<?xml version="1.0" encoding="UTF-8"?>
<svg width="394px" height="359px" viewBox="0 0 394 359" version="1.1" xmlns="http://www.w3.org/2000/svg" xmlns:xlink="http://www.w3.org/1999/xlink">
    <!-- Generator: Sketch 62 (91390) - https://sketch.com -->
    <title>Group 2</title>
    <desc>Created with Sketch.</desc>
    <defs>
        <polygon id="path-1" points="0.0488219178 0.721116 33.1878082 0.721116 33.1878082 106.857593 0.0488219178 106.857593"></polygon>
        <polygon id="path-3" points="0 0.000296259352 23.1007685 0.000296259352 23.1007685 101.10584 0 101.10584"></polygon>
    </defs>
    <g id="design" stroke="none" stroke-width="1" fill="none" fill-rule="evenodd">
        <g id="Home" transform="translate(0.000000, -387.000000)">
            <g id="Group-21" transform="translate(-36.000000, 156.000000)">
                <g id="Group-2" transform="translate(0.000000, 231.000000)">
                    <g id="Group-7" transform="translate(268.000000, 18.000000)">
                        <path d="M79.8912998,286.122449 C56.2326423,286.051912 29.1860396,287.121854 5.54069709,287.876977 C3.32891627,287.947514 0.536450513,288.439049 0.0615464035,290.429692 C-0.406700172,292.392862 1.88497106,293.940974 3.94584777,294.608482 C8.0676012,295.942754 12.5074368,296.129864 16.8740396,296.272424 C39.971245,297.026804 63.0906423,296.891669 86.2019026,296.756534 C91.8822587,296.723122 97.5618752,296.689709 103.242231,296.657039 C113.138286,296.599124 123.03804,296.541209 132.922259,296.094224 C134.110259,296.040022 135.347081,295.967999 136.381957,295.426717 C137.416094,294.886919 138.172094,293.727134 137.789656,292.690604 C137.531492,291.991912 136.841327,291.514484 136.166697,291.117247 C130.471546,287.760404 123.472259,286.978552 116.728916,286.510034 C108.173245,285.916034 94.3381491,285.697739 85.7595464,285.838072" id="Fill-4" fill="#527AF3" style="mix-blend-mode: multiply;"></path>
                        <g id="Group-46" transform="translate(66.394851, 0.000000)">
                            <path d="M25.9056493,284.868738 C29.8875945,268.854498 33.4212658,252.144535 36.2218685,235.87933 L22.3860329,234.36166 C21.5286904,251.164435 19.9686082,267.931571 17.7109644,284.604408 L16.6109918,289.658606 L23.9172658,287.064311 L25.9056493,284.868738 Z" id="Fill-9" fill="#FFCFD6"></path>
                            <path d="M63.5540055,236.615668 C62.2417315,251.856965 60.5248274,269.719288 59.6297589,284.990285 C59.5513479,286.326043 56.4992384,285.93326 56.4992384,285.93326 C53.8384438,285.77585 53.5255397,283.49786 53.5255397,283.49786 C53.0706082,266.66687 52.744389,247.196293 52.2894575,230.365303 L63.5540055,236.615668 Z" id="Fill-11" fill="#FFCFD6"></path>
                            <path d="M26.2119699,285.008699 C26.4849288,286.774364 26.7038877,288.767977 25.6098329,290.177984 C24.9973397,290.967262 24.0682438,291.430582 23.1665178,291.857519 C17.7006822,294.442904 11.8339151,296.665207 5.79923014,296.373404 C5.41309315,296.354099 4.89380548,296.158822 4.98035342,295.780889 C5.00846301,295.656892 5.10314795,295.560367 5.19487397,295.472009 C8.20851781,292.560667 13.5974219,289.536464 16.2234493,286.267979 C16.3506822,286.109084 16.4838329,285.940537 16.6732027,285.865544 C16.8729288,285.788324 17.096326,285.829162 17.3071479,285.867029 C20.1965178,286.377127 21.9489288,287.081759 24.4536411,285.549239 L26.2119699,285.008699 Z" id="Fill-13" fill="#000000"></path>
                            <path d="M52.9796959,282.315652 C54.6485178,284.297384 57.588189,285.085177 60.0196685,284.202344 C60.212737,284.131807 60.4191205,284.050874 60.6195863,284.099879 C60.7808466,284.139974 60.9088192,284.258774 61.0293945,284.373119 C63.4053945,286.639229 65.6430658,289.078342 68.3023808,291.000674 C69.1619425,291.622147 70.1280247,292.274804 70.4069014,293.300197 C65.4167096,293.314304 60.4265178,292.172339 55.9349014,289.990132 C55.1308192,289.600319 54.3311753,289.168184 53.686874,288.548197 C53.0425726,287.927467 52.5617507,287.089927 52.5380795,286.193729 C52.5136685,285.259664 52.9782164,284.339707 52.8176959,283.418264 L52.9796959,282.315652 Z" id="Fill-15" fill="#000000"></path>
                            <path d="M12.6104795,244.414071 C12.168863,243.811161 11.9632192,242.891946 12.0919315,241.537626 C13.4308356,227.374438 14.8843973,213.281789 16.2447534,199.137906 C17.0037123,191.243646 17.5259589,183.263999 18.6126164,175.416516 C20.7948082,159.656211 22.5834658,143.817201 24.8285342,128.052441 C25.9580959,120.115859 27.6468904,112.119134 28.2601233,104.115726 C28.2601233,104.115726 40.9227534,100.214631 53.5861233,97.9492635 C66.1141233,95.709141 69.9148356,95.398776 69.9939863,95.3920809 C70.2166438,95.3742735 73.7821233,114.330298 74.0794932,115.677936 C76.2239589,125.383154 78.2019863,135.126239 80.0150548,144.899766 C83.6397123,164.446079 86.6000959,184.117131 88.8888082,203.866889 C89.5405068,209.489841 90.1300685,215.138781 90.4407534,220.752824 C90.6567534,224.666541 92.2582603,229.593771 88.2933288,232.248209 C86.672589,233.333001 84.7182329,233.772561 82.8134384,234.182421 C63.2787534,238.382001 43.5857671,241.560643 23.7773836,244.125981 C21.1861233,244.445999 14.4886438,246.927434 12.6104795,244.414071" id="Fill-17" fill="#09299C"></path>
                            <path d="M25.2901973,77.3443688 C25.2901973,88.7150138 23.1176219,100.284649 21.6625808,111.532039 C21.6625808,114.975754 20.7401425,118.663751 20.2977863,122.082964 C19.8251014,125.735321 19.3524164,129.387679 18.8797315,133.040036 C17.9669096,140.099726 14.8963068,159.591836 14.8963068,159.591836 C16.1900877,163.347401 17.2471562,167.729636 17.3381425,171.702754 C16.2596219,171.725029 15.3490192,170.935751 14.6004164,170.155384 C13.7038685,169.220576 12.8672384,168.228596 12.0971836,167.187611 C11.5608822,168.808489 11.5823342,170.555591 11.6600055,172.261114 C11.8175671,175.722649 12.1829918,179.174531 12.7540603,182.591516 C12.816937,182.967221 12.8805534,183.361489 12.7533205,183.720859 C12.6260877,184.078744 12.2355123,184.373516 11.8752658,184.253231 C11.6148822,184.166359 11.4595397,183.904256 11.3308274,183.659974 C9.80995068,180.776846 8.66411507,177.695471 7.93104658,174.517571 C7.69433425,173.493664 7.50052603,172.458619 7.41619726,171.410209 C7.1388,167.967236 8.04718356,164.550994 8.94743014,161.216426 L9.39274521,159.902944 C9.39274521,156.486701 11.9004164,112.968034 12.4381973,106.673861 C12.9759781,100.378946 14.4088274,83.6556188 15.4836493,76.1021663 L25.2901973,77.3443688 Z" id="Fill-19" fill="#FFCFD6"></path>
                            <g id="Group-23" transform="translate(62.136986, 69.795000)">
                                <mask id="mask-2" fill="white">
                                    <use xlink:href="#path-1"></use>
                                </mask>
                                <g id="Clip-22"></g>
                                <path d="M0.0488219178,3.5686035 C1.91663014,14.7833235 5.95923288,25.8346935 9.24213699,36.687816 C9.80728767,40.0847535 11.323726,43.5700485 12.3216164,46.8682335 C13.3875616,50.392881 14.4535068,53.9175285 15.5194521,57.4414335 C17.579589,64.2531285 23.8095616,82.9700685 23.8095616,82.9700685 C23.1504658,86.8889835 22.8279452,91.3855635 23.390137,95.3193285 C24.4583014,95.162661 25.226137,94.2337935 25.836411,93.340566 C26.5672603,92.2706235 27.2300548,91.1539035 27.818137,89.9985735 C28.6133425,91.508076 28.8789041,93.2358735 29.0830685,94.931001 C29.4958356,98.3710035 29.7022192,101.836251 29.7,105.301499 C29.7,105.681659 29.7022192,106.081124 29.886411,106.414506 C30.0706027,106.747146 30.5048219,106.973609 30.8399178,106.794666 C31.0832877,106.666214 31.1927671,106.381094 31.2793151,106.118991 C32.3053151,103.023509 32.9303836,99.7951185 33.131589,96.5399985 C33.1966849,95.490846 33.2173973,94.4372385 33.1286301,93.3903135 C32.8371781,89.947341 31.3791781,86.7286035 29.9441096,83.588571 L29.2894521,82.3671585 C28.7287397,78.996951 19.1063836,36.488826 17.5426027,30.3698835 C15.9788219,24.2501985 11.817863,7.9924185 9.51731507,0.721116 L0.0488219178,3.5686035 Z" id="Fill-21" fill="#FFCFD6" mask="url(#mask-2)"></path>
                            </g>
                            <path d="M49.1954795,38.06946 C49.1954795,38.06946 46.1759178,38.875815 45.5626849,37.652175 C43.8694521,34.2700875 40.5406849,27.5771925 39.4703014,25.092045 L39.7158904,24.4134 C40.7145205,23.9478525 41.7353425,23.467455 42.5150137,22.6870875 C43.2946849,21.90672 43.7984384,20.7536175 43.515863,19.68516 C43.3338904,18.99612 42.8575068,18.430335 42.4203288,17.86752 C41.6902192,16.92603 41.0348219,15.926625 40.4630137,14.8804425 C40.2107671,14.417865 39.9718356,13.8572775 40.2026301,13.3835625 C40.5310685,12.7116 41.6806027,12.4806825 41.5829589,11.738925 C40.5059178,11.489445 39.4000274,11.2273425 38.4894247,10.5991875 C37.8036986,10.1254725 37.2666575,9.4705875 36.7510685,8.8157025 C35.5963562,7.349265 34.4993425,5.837535 33.3712603,4.3503075 C32.9806849,3.8364975 32.5804932,3.3182325 32.067863,2.9276775 C31.5249041,2.5133625 30.8746849,2.258685 30.2089315,2.11167 C28.2627123,1.6832475 26.160411,2.1896325 24.5359726,3.345705 C22.9100548,4.50252 21.7575616,6.271155 21.2131233,8.19423 C20.3380274,11.286 21.0030411,14.6502675 22.3663562,17.55864 C23.730411,20.4670125 25.7491233,23.0063625 27.7175342,25.5412575 L28.5297534,27.27648 C30.2888219,32.11461 32.1669863,36.909675 34.1635068,41.655735 L34.1450137,42.11757 C34.3447397,42.4197675 34.2988767,42.8355675 34.1235616,43.1541 C33.9489863,43.47189 33.666411,43.713945 33.3875342,43.945605 C31.7660548,45.2925 30.0735616,46.5510375 28.3189315,47.7152775 C28.3189315,47.7152775 44.163863,61.83243 48.4187671,59.846985 C52.674411,57.86154 51.3051781,42.77097 51.3051781,42.77097 L49.1954795,38.06946 Z" id="Fill-24" fill="#FFCFD6"></path>
                            <path d="M39.1105726,17.264907 C39.2762712,16.990182 39.4575041,16.724367 39.6535315,16.470432 C39.6357781,16.4934495 39.6180247,16.516467 39.5995315,16.5394845 C39.6720247,16.446672 39.7459973,16.354602 39.8214493,16.264017 C39.8813671,16.1934795 39.9227918,16.1162595 39.9227918,16.0197345 C39.9227918,15.9350895 39.8850658,15.833367 39.8214493,15.7747095 C39.6934767,15.656652 39.4582438,15.626952 39.3339699,15.7747095 C39.0329014,16.1340795 38.7569836,16.5142395 38.5150932,16.9151895 C38.4211479,17.070372 38.4758877,17.3027745 38.6386274,17.389647 C38.8058055,17.4780045 39.0107096,17.431227 39.1105726,17.264907" id="Fill-26" fill="#000000"></path>
                            <path d="M35.9404027,10.138689 C35.8368411,10.1008215 35.7177452,10.1230965 35.6223205,10.171359 C35.5505671,10.208484 35.486211,10.2775365 35.4492247,10.3488165 C35.3796904,10.4839515 35.3648959,10.6354215 35.399663,10.781694 C35.4566219,11.020779 35.5897726,11.242044 35.7465945,11.427669 C35.8442384,11.543499 35.9603753,11.637054 36.101663,11.6912565 C36.247389,11.746944 36.4264027,11.7298665 36.558074,11.6452215 C36.7444849,11.525679 36.8310329,11.301444 36.7644575,11.087604 C36.7274712,10.970289 36.6653342,10.854459 36.6031973,10.7482815 C36.4752247,10.532214 36.3132247,10.331739 36.126074,10.1646765 C36.0424849,10.0904265 35.9485397,10.0547865 35.8361014,10.0696365 C35.739937,10.0830015 35.6260192,10.138689 35.5845945,10.235214 C35.5328137,10.354014 35.4943479,10.4750415 35.5069233,10.607949 C35.5187589,10.735659 35.5505671,10.8641115 35.6289781,10.9680615 C35.6844575,11.0437965 35.7414164,11.1017115 35.8346219,11.127699 C35.9174712,11.149974 36.0269507,11.1403215 36.1001836,11.0928015 C36.1741562,11.0452815 36.2392521,10.9740015 36.2592247,10.885644 C36.2784575,10.800999 36.2791973,10.6918515 36.2244575,10.618344 C36.2067041,10.5953265 36.1926493,10.570824 36.180074,10.5448365 C36.1911699,10.572309 36.2030055,10.5997815 36.2148411,10.627254 C36.201526,10.5953265 36.1919096,10.563399 36.1867315,10.5299865 C36.1904301,10.560429 36.1948685,10.5908715 36.1985671,10.6220565 C36.193389,10.5834465 36.193389,10.545579 36.1985671,10.5062265 C36.1941288,10.5374115 36.1904301,10.567854 36.1867315,10.5982965 C36.1911699,10.5700815 36.1985671,10.542609 36.2089233,10.5151365 L36.1741562,10.597554 C36.1763753,10.593099 36.1785945,10.588644 36.180074,10.5849315 C35.9995808,10.607949 35.8190877,10.6309665 35.6385945,10.6547265 C35.739937,10.744569 35.8324027,10.844064 35.9152521,10.952469 C35.8974986,10.9279665 35.8790055,10.904949 35.8612521,10.8819315 C35.9633342,11.016324 36.0506219,11.1611115 36.1186767,11.3155515 L36.0839096,11.233134 C36.0950055,11.2591215 36.1038822,11.2843665 36.1083205,11.3125815 C36.1038822,11.282139 36.1001836,11.250954 36.0957452,11.2205115 C36.0972247,11.231649 36.0972247,11.242044 36.0964849,11.2531815 C36.1001836,11.222739 36.1046219,11.191554 36.1090603,11.1611115 C36.1068411,11.175219 36.1038822,11.1863565 36.0979644,11.200464 L36.1327315,11.117304 C36.1297726,11.124729 36.1253342,11.132154 36.1208959,11.1388365 C36.139389,11.114334 36.1564027,11.0913165 36.1748959,11.068299 C36.1667589,11.0779515 36.1593616,11.0853765 36.1497452,11.0942865 C36.1734164,11.0764665 36.1963479,11.057904 36.2192795,11.040084 C36.2059644,11.050479 36.1926493,11.057904 36.1771151,11.0645865 L36.2599644,11.029689 C36.2436904,11.035629 36.2281562,11.0393415 36.2111425,11.0423115 C36.2414712,11.0378565 36.2725397,11.034144 36.3028685,11.029689 C36.2858548,11.031174 36.2695808,11.0304315 36.2525671,11.0289465 C36.2836356,11.032659 36.3139644,11.037114 36.3442932,11.041569 C36.3243205,11.037114 36.3050877,11.031174 36.2851151,11.0230065 L36.3679644,11.057904 C36.3435534,11.0467665 36.3221014,11.0334015 36.3006493,11.0185515 C36.3243205,11.035629 36.3472521,11.053449 36.3709233,11.0720115 C36.3036082,11.0200365 36.2466493,10.955439 36.1941288,10.888614 L36.2488685,10.958409 C36.1837726,10.872279 36.1305123,10.780209 36.0876082,10.6814565 L36.1223753,10.7646165 C36.0972247,10.704474 36.072074,10.6413615 36.0609781,10.576764 C36.0646767,10.6072065 36.0683753,10.637649 36.0728137,10.668834 C36.0691151,10.6413615 36.0698548,10.615374 36.0735534,10.587159 C36.0691151,10.618344 36.0646767,10.6487865 36.0609781,10.6799715 C36.063937,10.6606665 36.0691151,10.643589 36.0757726,10.6250265 C36.063937,10.652499 36.0528411,10.6799715 36.0410055,10.7081865 C36.0469233,10.695564 36.0528411,10.683684 36.0609781,10.673289 L36.0062384,10.7423415 C36.0128959,10.735659 36.018074,10.729719 36.0254712,10.723779 C36.0025397,10.741599 35.9788685,10.7601615 35.955937,10.7779815 C35.9603753,10.774269 35.9655534,10.7720415 35.9707315,10.769814 L35.8878822,10.803969 C35.8930603,10.802484 35.8982384,10.800999 35.9041562,10.800999 C35.8738274,10.803969 35.8427589,10.808424 35.8124301,10.812879 C35.8183479,10.8121365 35.8242658,10.8121365 35.8301836,10.812879 C35.7998548,10.8091665 35.7687863,10.8047115 35.7384575,10.800999 C35.7443753,10.802484 35.7510329,10.803969 35.7569507,10.8061965 C35.8368411,10.8358965 35.9522384,10.8136215 36.0225123,10.7720415 C36.0942658,10.729719 36.1630603,10.648044 36.1815534,10.564884 C36.201526,10.475784 36.1970877,10.376289 36.1467863,10.2983265 C36.0957452,10.2181365 36.0291699,10.171359 35.9404027,10.138689" id="Fill-28" fill="#000000"></path>
                            <path d="M33.5344438,11.362626 C33.4959781,10.234026 34.0041699,9.157401 34.8837041,8.457966 C35.0294301,8.3413935 35.0050192,8.089686 34.8837041,7.967916 C34.7394575,7.8231285 34.5419507,7.8513435 34.3962247,7.967916 C33.3857589,8.7720435 32.8006356,10.072161 32.8442795,11.362626 C32.8598137,11.8073835 33.5499781,11.809611 33.5344438,11.362626" id="Fill-30" fill="#000000"></path>
                            <path d="M29.9528384,30.9243082 C30.1288932,27.0425182 30.3056877,23.1614707 30.4817425,19.2804232 C28.7211945,19.4148157 26.8607836,18.7599307 25.7585918,17.3751682 C24.6564,15.9911482 24.4714685,13.8638857 25.5167014,12.4360582 C26.562674,11.0074882 28.843989,10.6020832 30.1880712,11.7514732 C31.1045918,9.41334075 31.7333589,6.96309075 32.0558795,4.47126075 C32.1372493,3.84459075 32.1971671,3.19490325 32.0129753,2.59125075 C31.759989,1.76262075 31.0624274,1.11961575 30.2672219,0.78252075 C29.4727562,0.44542575 28.5865644,0.38157075 27.7240438,0.42834825 C24.540263,0.59689575 21.4888932,2.26009575 19.5175233,4.77568575 C17.5468932,7.29201825 16.6570027,10.6072807 16.9832219,13.7911207 C17.3094411,16.9749607 18.8214411,20.0021332 21.0827836,22.2585907 C23.7605918,24.9308482 27.6219616,26.8442707 29.2641534,30.2568007 L29.9528384,30.9243082 Z" id="Fill-32" fill="#000000"></path>
                            <path d="M8.91724932,2.8065015 C9.84412603,2.7990765 10.7961534,2.964654 11.742263,3.331449 C14.4311671,4.3731765 16.4787288,6.9570765 17.2044,9.7221465 C17.4507288,10.6591815 17.5357973,11.632599 17.5572493,12.600819 C17.5949753,14.2885215 17.4218795,16.0467615 16.5564,17.493894 C16.1369753,18.197784 15.5659068,18.802179 14.9275233,19.313019 C12.1764822,21.516759 8.08209863,21.836034 5.00261918,20.125314 C1.9224,18.4153365 0.0205643836,14.795649 0.306838356,11.274714 C0.67670137,6.7209615 4.5314137,2.8406565 8.91724932,2.8065015" id="Fill-34" fill="#000000"></path>
                            <path d="M70.3253836,95.8829602 C70.4896027,91.0760153 67.5595479,86.7828802 65.607411,82.3909928 C65.1362055,81.3299602 64.6398493,80.2681852 64.4023973,79.1314178 C64.1849178,78.0919177 64.1900959,77.0197477 64.1960137,75.9564878 C64.2011918,75.0773677 64.2537123,73.7260177 64.2537123,73.7260177 L73.4951096,70.9052602 C71.6628082,65.8933852 69.803137,60.7307827 67.3302329,55.9906627 C65.8359863,53.1260978 64.0229178,50.3996377 61.7504795,48.0949177 C59.4824795,45.7939103 57.0058767,43.4505803 54.3569178,41.6262577 C52.6193014,40.4308327 48.4738767,38.1706627 48.4738767,38.1706627 C48.7949178,44.0854177 49.1203973,47.6687227 49.6914658,53.7846953 L49.8815753,56.6306977 C43.5798493,52.7786077 37.4778493,49.2116377 31.3277671,45.7293128 L30.6405616,46.1844652 C27.7696849,48.8099452 24.9860959,51.5319502 22.2971918,54.3430553 C21.2682329,55.4181952 20.2429726,56.5208078 19.5165616,57.8216677 C18.9610274,58.8158752 18.5941233,59.9028952 18.2457123,60.9876877 C16.0834932,67.7281028 14.5419041,74.6504302 13.0735479,81.5764703 L14.4812466,81.8096152 L26.2673014,82.7058127 L26.8250548,82.5105353 L27.0477123,80.4159427 L27.1549726,78.6866602 L28.1972466,80.1620077 C28.3074658,80.3298128 28.4176849,80.4968753 28.5271644,80.6639377 C29.3748904,81.9529177 30.2396301,83.2842202 30.5436575,84.7981778 C30.9268356,86.7026903 30.3801781,88.6562077 29.880863,90.5332478 C28.7505616,94.7766352 27.8392192,99.0779377 27.151274,103.415623 C27.0928356,103.785388 27.0417945,104.189308 27.2311644,104.51081 C27.4205342,104.833798 27.9583151,104.952598 28.1536027,104.633323 C28.1536027,104.633323 70.2935753,96.8251927 70.3253836,95.8829602" id="Fill-36" fill="#82A6F5"></path>
                            <path d="M21.1881205,70.125264 C23.4250521,73.528884 25.6627233,76.9332465 27.8996548,80.3368665 C28.1430247,80.707374 28.7407233,80.3606265 28.4951342,79.987149 C26.2582027,76.583529 24.0212712,73.1791665 21.7843397,69.7755465 C21.5409699,69.405039 20.9425315,69.7517865 21.1881205,70.125264" id="Fill-38" fill="#000000"></path>
                            <path d="M63.9394027,60.6924698 C63.9149918,64.9009598 63.8905808,69.1087072 63.8661645,73.3171973 C63.8639507,73.7634398 64.5541151,73.7634398 64.5563342,73.3171973 C64.5807452,69.1087072 64.6044164,64.9009598 64.6295725,60.6924698 C64.6317863,60.2462273 63.9416219,60.2454848 63.9394027,60.6924698" id="Fill-40" fill="#000000"></path>
                            <path d="M39.5180137,24.3143505 C37.7626438,25.275888 35.8940959,26.4646305 33.8110274,26.3057355 C33.3686712,26.2715805 33.3701507,26.964333 33.8110274,26.9977455 C36.0176301,27.1670355 38.0060137,25.9315155 39.8664247,24.9128055 C40.2562603,24.6989655 39.9078493,24.1005105 39.5180137,24.3143505" id="Fill-42" fill="#000000"></path>
                            <path d="M64.1745616,148.722973 C61.6062329,156.091543 58.5755753,163.293793 55.098863,170.276263 C51.6339863,177.235715 47.7326712,183.976873 43.4252466,190.445533 C40.9841507,194.110513 38.412863,197.687878 35.7158219,201.167975 C35.4465616,201.515465 35.9318219,202.009228 36.2040411,201.657283 C41.0152192,195.44924 45.4380411,188.941228 49.4281233,182.171113 C53.4026712,175.427728 56.9526164,168.431893 60.0461507,161.23781 C61.7882055,157.185988 63.3882329,153.072538 64.8395753,148.907113 C64.9867808,148.48572 64.3202877,148.304945 64.1745616,148.722973" id="Fill-44" fill="#000000"></path>
                        </g>
                    </g>
                    <g id="Group-6" transform="translate(115.000000, 0.000000)">
                        <path d="M127.546971,285.825542 C133.00975,285.74333 138.482942,286.084769 143.863898,286.843193 C145.913183,287.132786 148.256287,287.675681 149.038065,289.215489 C150.301853,291.704068 146.46809,293.858614 143.241302,294.614075 C132.739735,297.073769 121.585819,296.833799 110.646873,296.57309 C75.6282621,295.73912 40.5940306,294.90515 5.66170545,292.765417 C3.47555274,292.63136 0.817060134,292.211412 0.147602006,290.544953 C-0.881875827,287.986754 3.69349856,286.499532 7.05194683,286.334367 C33.315533,285.039714 59.669868,284.920469 85.9505626,285.977375 L127.546971,285.825542 Z" id="Fill-6" fill="#527AF3" style="mix-blend-mode: multiply;"></path>
                        <g id="Group" transform="translate(48.096276, 0.000000)">
                            <g id="Group-3" transform="translate(78.847291, 71.385913)">
                                <mask id="mask-4" fill="white">
                                    <use xlink:href="#path-3"></use>
                                </mask>
                                <g id="Clip-2"></g>
                                <path d="M-7.43842365e-05,1.31494713 C0.656738424,11.9632489 4.1661867,23.0855656 6.19018177,33.5346329 C6.38878768,36.7586753 7.47256601,40.1597327 8.08846749,43.3363736 C8.7452803,46.7285431 9.4020931,50.1214534 10.0589059,53.5151042 C11.3293887,60.0735456 15.3535759,78.1490693 15.3535759,78.1490693 C14.3501325,81.741214 13.6055463,85.9058798 13.748364,89.6313411 C14.7681719,89.5906055 15.5819355,88.7981117 16.2432113,88.0241342 C17.0361473,87.097583 17.768832,86.1206678 18.4353148,85.100795 C19.0355956,86.5872763 19.1159305,88.2248499 19.1412212,89.8268723 C19.1925463,93.0775781 19.0467532,96.3305057 18.7053296,99.5634359 C18.6681374,99.9189471 18.6302015,100.292234 18.7707877,100.620341 C18.9113739,100.949189 19.2974281,101.202491 19.6306695,101.069915 C19.8716744,100.97289 20.0025906,100.718107 20.1104478,100.48184 C21.3794429,97.69478 22.2832113,94.7432963 22.7919995,91.7244135 C22.9556448,90.7526828 23.0791227,89.7713237 23.0984626,88.7855207 C23.1609453,85.545184 22.1061768,82.3981691 21.0633099,79.3274409 L20.5679108,78.1231466 C20.3700488,74.9235456 15.4882113,34.3152763 14.6171719,28.4523037 C13.7461325,22.5893312 11.426832,7.01053317 9.97633941,0.000296259352 L-7.43842365e-05,1.31494713 Z" id="Fill-1" fill="#FFCFD6" mask="url(#mask-4)"></path>
                            </g>
                            <g id="Group-130">
                                <path d="M36.1385399,77.3163584 C36.6369143,87.9735479 34.3518305,99.4069369 33.4703773,110.013022 C33.6213773,113.240027 32.9117517,116.737368 32.6439685,119.96067 L31.7848305,130.291234 C31.2321557,136.948922 29.1865892,155.350331 29.1865892,155.350331 C30.5731113,158.814343 31.764003,162.875318 32.0250916,166.594114 C31.0067714,166.662254 30.1119291,165.962341 29.3703182,165.263909 C28.4821704,164.427717 27.6483232,163.534496 26.8747271,162.592391 C26.4388355,164.134421 26.5362788,165.771254 26.6843034,167.36661 C26.9848158,170.603244 27.4817025,173.822842 28.1712443,177.000224 C28.2471163,177.34981 28.3244759,177.716431 28.2203379,178.05861 C28.1162,178.399308 27.7591557,178.693346 27.4140128,178.596321 C27.1640818,178.525959 27.0063872,178.28673 26.8739833,178.063054 C25.3104266,175.428568 24.0927567,172.591144 23.260397,169.644845 C22.9926138,168.696074 22.7635103,167.733231 22.637801,166.755575 C22.2242246,163.540421 22.9331064,160.298603 23.6375251,157.134553 L23.9997764,155.884338 C23.850264,152.681775 24.3107025,111.786134 24.5420374,105.863909 C24.7741163,99.941685 25.3944808,84.2051289 26.0788158,77.0793509 L36.1385399,77.3163584 Z" id="Fill-84" fill="#FFCFD6"></path>
                                <path d="M23.4459857,284.641467 C25.6990842,285.168809 27.9521828,285.69541 30.2052813,286.222751 C30.3473552,287.48926 30.428434,288.761694 30.4492616,290.034869 C30.4552123,290.443706 30.4506546,290.871801 30.253631,291.227312 C29.8541877,291.946482 28.8864488,292.044988 28.0682222,292.059801 C20.7145966,292.186452 13.3594833,292.312362 6.00511379,292.439013 C4.21989212,292.46938 2.43243892,292.500487 0.647217241,292.411609 C0.408443842,291.568011 1.36725665,290.923647 2.16688719,290.592577 C5.95676404,289.023884 9.77267537,287.515923 13.6116458,286.070918 L23.4459857,284.641467 Z" id="Fill-86" fill="#231F20"></path>
                                <path d="M72.2752202,285.182511 C73.7495158,284.927728 75.310097,284.67961 76.7062892,285.216581 C77.5498064,285.540985 78.2609197,286.128319 78.9556685,286.706765 C82.4569345,289.616032 85.9693581,292.53863 89.0377079,295.897471 C80.6211315,293.973266 72.2201759,291.981663 63.8355847,289.919698 C63.6072251,289.863408 63.362501,289.798231 63.2092695,289.618995 C63.0344665,289.414576 63.0285158,289.118316 63.0314911,288.849461 C63.0441365,287.749598 63.0567818,286.648995 63.0694271,285.548391 L72.2752202,285.182511 Z" id="Fill-88" fill="#231F20"></path>
                                <path d="M61.7299158,282.826064 C61.7269404,282.53647 61.7328911,282.247617 61.7403296,281.961727 C62.5741768,249.339129 63.4065365,216.717271 64.2173246,184.094672 C64.2470783,182.902969 64.276832,181.712006 64.3058419,180.519563 C64.5691621,169.928291 64.8324823,158.30974 65.0958025,147.718468 L63.3604182,148.21248 C62.0348911,148.602061 60.2972754,159.299246 59.9156842,160.86942 C54.7987926,181.911241 50.6340192,205.086129 46.0809601,226.741947 C43.754965,237.806493 41.4691374,248.879927 39.206369,259.957804 C38.0742409,265.500817 36.9480635,271.045311 35.8248616,276.590545 C34.9523345,280.895934 35.53997,287.433637 30.2505069,287.942463 C29.6598961,287.999493 29.0477138,287.971348 28.4556153,287.952832 C25.8105118,287.868398 23.1654084,287.782483 20.5203049,287.698049 C18.6376399,287.637316 16.721502,287.571398 14.9347926,286.954438 C14.6097335,286.8426 14.281699,286.706321 14.0325118,286.467091 C13.3675167,285.827912 13.4954576,284.745084 13.6739798,283.840011 C13.6553837,281.333657 14.7518074,278.384396 15.2382803,275.923221 C15.7760783,273.199116 16.3585069,270.480937 16.8531621,267.748685 C18.0953788,260.879912 19.8739059,254.144455 21.0216547,247.259388 C23.7939552,230.642201 26.5655118,214.023533 29.3370685,197.406346 L29.8168468,193.897154 C34.4502409,165.202213 37.3504823,136.311742 42.2278567,108.019715 L87.1306448,103.760987 C86.2700192,148.41764 85.2442606,201.545829 84.1523,246.195076 C83.8503,258.543166 84.0132015,271.003094 83.3095266,283.309707 L83.1867926,284.539184 C83.208364,284.967278 82.8966941,285.355378 82.5158468,285.554612 C82.1357433,285.753106 81.6961325,285.801248 81.269167,285.842725 C76.5271719,286.312296 71.7621177,286.55671 66.9970635,286.575226 C65.3516842,286.581892 63.1461916,286.950735 62.2215956,285.222061 C61.8310783,284.493263 61.7395857,283.661515 61.7299158,282.826064" id="Fill-90" fill="#43BD57"></path>
                                <path d="M62.3764635,41.5671127 L58.9302419,26.6815616 C58.8908182,26.5149157 58.7308921,26.3008683 58.5999759,26.4127062 L46.8911532,28.2969157 C47.2958034,33.0000329 47.245966,37.7409232 46.7438724,42.434412 C46.7438724,42.434412 53.1922419,49.4898284 58.25037,48.2455392 C63.3077542,46.9997686 62.3764635,41.5671127 62.3764635,41.5671127" id="Fill-92" fill="#FFCFD6"></path>
                                <path d="M56.5135724,31.5394002 C57.9194345,30.5076771 59.7329222,29.9810761 60.8174443,28.6175424 C61.6051734,27.6272955 61.8908089,26.3104227 61.8394837,25.0483579 C61.7881586,23.7855524 61.4281389,22.5568167 61.040597,21.3532631 C59.7031685,17.2011883 58.0072079,13.1624327 55.9787498,9.29847007 C55.1873015,7.79199127 54.2530355,6.22181671 52.7117941,5.48931546 C50.9845921,4.66867706 48.9367941,5.10640025 47.1166118,5.69521571 C45.6110749,6.18330299 44.1360355,6.76471197 42.7033951,7.4357394 C41.2439764,8.1200985 39.7399271,8.98591646 39.0355084,10.4309214 C38.3206759,11.8974052 38.589203,13.6520012 39.1054296,15.1992157 C39.5874394,16.6449613 40.2673113,18.0151608 40.9315626,19.3875823 C43.1058138,23.8773928 45.9019172,28.2724002 47.1099172,33.2828865 C48.3179172,38.2926322 49.4783113,34.6316072 49.8725478,34.4353354 C51.2813852,33.734682 52.6902227,33.033288 54.0998039,32.331894 L56.5135724,31.5394002 Z" id="Fill-94" fill="#FFCFD6"></path>
                                <path d="M44.4984355,16.3192242 C44.113869,14.8727379 43.3172138,13.5358676 42.2252532,12.5078476 C41.5981941,11.9168102 40.7174847,11.4005783 39.9081842,11.7005409 C39.4841941,11.8568177 39.1665734,12.2115883 38.913667,12.5841344 C38.0009724,13.924708 37.7183123,15.6541219 38.0775882,17.2331843 C38.436864,18.8122466 39.4142729,20.2298476 40.7174847,21.1986157 C41.2337113,21.5815309 41.8161399,21.9044536 42.4536128,21.9933314 C43.2859724,22.1103539 44.1451103,21.8096506 44.8004355,21.2837903 C45.4550167,20.7586706 45.9184305,20.0261693 46.2301005,19.2484885 C46.671199,18.1471444 46.8244305,16.9317404 46.6689675,15.7555908" id="Fill-96" fill="#FFCFD6"></path>
                                <path d="M65.652866,42.0531262 C69.0990877,42.8041436 75.9573143,46.2014978 76.8343044,46.7873506 C78.2974424,47.7635252 84.608201,71.6324005 85.7195015,83.504994 C86.2825901,89.527206 88.4070039,96.4959666 88.0990532,102.535954 C87.9636739,105.194882 89.0905951,108.552982 86.9408906,109.092914 C78.6061369,111.186727 66.6682108,113.628645 58.169068,114.864046 C55.9576246,115.185488 53.7439498,115.495819 51.5310187,115.806892 C48.4321714,116.242393 45.3020828,116.678635 42.1838956,116.417186 C41.1551616,116.331271 40.0356788,116.116483 39.3825852,115.321026 C38.9266099,114.767021 38.7153586,114.036742 38.6588266,113.323498 C38.0451567,105.553356 37.609265,85.2951411 37.609265,85.2951411 C32.3302158,85.6491711 23.8340483,86.3683406 23.8340483,86.3683406 C23.8340483,86.3683406 24.9096443,74.8134853 26.4791517,69.0401312 C27.6588857,64.6984504 28.8534966,60.3204778 30.9176591,56.3209766 C34.0447724,50.2624728 39.3134079,46.4185077 45.3504325,43.504797 L57.7986345,46.3029666 L59.6701419,45.6208294 L65.652866,42.0531262 Z" id="Fill-98" fill="#4A6DE2"></path>
                                <path d="M60.3613946,46.8651928 C60.9720892,49.6692875 61.6370842,52.4622726 62.3578675,55.2419259 L62.577301,56.2418012 C61.3254143,56.5884247 59.5669709,56.8824621 58.2942567,56.9720805 C57.5995079,53.9398661 56.905503,50.9076516 56.211498,47.8754372 L58.4698034,46.1630581 L60.3613946,46.8651928 Z" id="Fill-100" fill="#4A6EE3"></path>
                                <path d="M58.3902867,46.1802411 C54.7566167,44.6522835 49.9833803,42.5466202 46.5869961,40.5483509 L44.6507744,43.9553334 L53.80673,52.0372885 L58.3902867,46.1802411 Z" id="Fill-102" fill="#FFFFFF"></path>
                                <polygon id="Fill-104" fill="#FFFFFF" points="61.9849049 39.070313 58.3899148 46.1805374 63.8898852 50.4029738 67.0080724 42.2291783"></polygon>
                                <path d="M62.9368744,148.449043 C65.854968,147.715061 68.818436,147.178091 71.81017,146.849243 C72.2006872,146.806285 72.2044064,146.192288 71.81017,146.235986 C68.7633916,146.570018 65.7448793,147.10921 62.7732291,147.857265 C62.3886626,147.95355 62.551564,148.546068 62.9368744,148.449043" id="Fill-106" fill="#000000"></path>
                                <path d="M39.0525424,206.291904 C37.2717837,207.734687 35.3214291,208.961201 33.2528034,209.950707 C32.8957591,210.122538 33.2081729,210.652101 33.5644734,210.481011 C35.6821926,209.467064 37.6660202,208.203518 39.488434,206.725924 C39.7963847,206.476326 39.3575177,206.044528 39.0525424,206.291904" id="Fill-108" fill="#000000"></path>
                                <path d="M62.5979798,274.726629 C69.0738714,274.602941 75.5430685,274.227432 81.9892064,273.601585 C82.3804675,273.564552 82.3849305,272.950555 81.9892064,272.988328 C75.5430685,273.614176 69.0738714,273.988944 62.5979798,274.112632 C62.2022557,274.120779 62.200768,274.734777 62.5979798,274.726629" id="Fill-110" fill="#000000"></path>
                                <path d="M49.3334108,13.9157461 C49.3348985,13.907599 49.3363862,13.9009332 49.3393616,13.8935267 C49.3289478,13.9179681 49.318534,13.9424095 49.3081202,13.9668509 C49.3103517,13.962407 49.3133271,13.9587037 49.3163025,13.9557411 C49.2999379,13.9757387 49.2843172,13.9964768 49.2679527,14.017215 C49.2709281,14.0142524 49.2739034,14.0112898 49.2776227,14.0083272 L49.2151399,14.0557287 C49.2188591,14.0542474 49.2233222,14.0520254 49.2270414,14.0498035 C49.2024946,14.0594319 49.1779478,14.0705416 49.153401,14.0809107 C49.1608394,14.0779481 49.1667901,14.0764668 49.1749724,14.0749855 C49.1474502,14.0786888 49.1199281,14.082392 49.0924059,14.0853546 C49.1065389,14.084614 49.1199281,14.0853546 49.1333172,14.0860953 C49.1065389,14.0831327 49.0790167,14.0794294 49.0514946,14.0757262 C49.0700906,14.0786888 49.087199,14.0838733 49.1043074,14.0905392 C49.0797606,14.0801701 49.0552138,14.069801 49.030667,14.0594319 C49.0514946,14.0683197 49.0693468,14.0794294 49.087199,14.0920204 C49.0663714,14.0764668 49.0455438,14.0601726 49.0247163,14.044619 C49.0663714,14.0794294 49.101332,14.122387 49.1348049,14.164604 C49.1191842,14.1446065 49.1028197,14.1231277 49.0864552,14.1023895 C49.1467064,14.179417 49.1965438,14.2638509 49.2352236,14.3527287 C49.2248099,14.3290279 49.2143961,14.3038459 49.2047261,14.2794045 C49.2344798,14.3497661 49.2597704,14.4238309 49.2709281,14.4993771 C49.2672089,14.4719731 49.2634897,14.4453097 49.2597704,14.4179057 C49.2627458,14.4460504 49.2634897,14.4727137 49.2597704,14.5008584 C49.2634897,14.4734544 49.2672089,14.446791 49.2709281,14.419387 C49.2672089,14.4364219 49.2627458,14.4534569 49.2560512,14.4697511 C49.266465,14.4453097 49.2768788,14.4208683 49.2872926,14.3956863 C49.2820857,14.406796 49.2768788,14.4156838 49.2701842,14.4245716 C49.2865488,14.4045741 49.3021695,14.3838359 49.318534,14.3630978 C49.308864,14.3749481 49.2991941,14.3853172 49.2872926,14.3949456 C49.3081202,14.379392 49.3289478,14.3630978 49.3497754,14.3475441 C49.3378739,14.3564319 49.3259724,14.3630978 49.3118394,14.3690229 C49.3363862,14.3593945 49.360933,14.3490254 49.3854798,14.3379157 C49.375066,14.3423596 49.3653961,14.3445815 49.3542384,14.3460628 C49.3817606,14.3423596 49.4092828,14.3386564 49.4368049,14.3349531 C49.4256473,14.3356938 49.4159773,14.3356938 49.4048197,14.3342125 C49.431598,14.3379157 49.4591202,14.341619 49.4866424,14.3453222 C49.4792039,14.3438409 49.4717655,14.341619 49.4643271,14.3386564 C49.4888739,14.3490254 49.5134207,14.3601352 49.5379675,14.3697636 C49.5268099,14.3638384 49.5178837,14.3593945 49.50747,14.351988 C49.5282975,14.3675416 49.5491251,14.3838359 49.5699527,14.3993895 C49.554332,14.3867985 49.5409429,14.3719855 49.5275537,14.3564319 C49.5439182,14.3764294 49.5595389,14.3971676 49.5759034,14.4186464 C49.4829232,14.2979207 49.4077951,14.1631227 49.3482877,14.0238808 C49.3587015,14.0475815 49.3683714,14.0720229 49.3795291,14.0964643 C49.3319232,13.9853671 49.2954749,13.8698259 49.2701842,13.7513222 C49.1705094,13.8809357 49.0715783,14.0105491 48.9726473,14.1401626 C48.9771103,14.1401626 48.9800857,14.1409032 48.9845488,14.1409032 C48.9570266,14.1372 48.9302483,14.1334968 48.9019823,14.1297935 C48.9332236,14.1342374 48.9629773,14.1423845 48.9919872,14.1542349 C48.9674404,14.1438658 48.9428936,14.1334968 48.9183468,14.1231277 C48.9436374,14.1349781 48.9659527,14.1475691 48.9890118,14.1638633 C48.9674404,14.1475691 48.9466128,14.1320155 48.9265291,14.1164618 C48.9510759,14.1357187 48.9726473,14.1564569 48.9919872,14.1808983 C48.9763665,14.1609007 48.960002,14.1401626 48.9443813,14.1186838 C48.9607458,14.1416439 48.9733911,14.164604 48.9845488,14.1890454 C49.0135586,14.2549631 49.1028197,14.311993 49.1690217,14.3305092 C49.2426621,14.3505067 49.3408493,14.341619 49.4063074,14.299402 C49.4725094,14.257185 49.5297852,14.1942299 49.5483813,14.1164618 C49.5513567,14.0883172 49.5550759,14.0616539 49.5587951,14.0342499 C49.5587951,13.9794419 49.5446621,13.9275965 49.5171399,13.8794544 C49.4717655,13.7765042 49.3862236,13.6950329 49.294731,13.6305965 C49.1987754,13.5624569 49.0879429,13.5372748 48.9726473,13.5261651 C48.8789232,13.5165367 48.785199,13.5765292 48.7308985,13.6468908 C48.6684158,13.7268808 48.6542828,13.8164993 48.6758542,13.9142648 C48.7182532,14.1127586 48.7926374,14.3053272 48.8878493,14.4845641 C48.9309921,14.5652948 48.9808296,14.6438035 49.0366177,14.718609 C49.0864552,14.786008 49.1325734,14.8437786 49.2062138,14.8882175 C49.3006818,14.9474693 49.4107704,14.9593197 49.5186276,14.9385815 C49.6837606,14.9052524 49.8057507,14.7697137 49.8570759,14.6156589 C49.8994749,14.4875267 49.8764158,14.3408783 49.8362483,14.2157087 C49.7693025,14.0083272 49.6592138,13.8194618 49.5104453,13.6594818 C49.4077951,13.5491252 49.2843172,13.4876514 49.1333172,13.4720978 C48.9629773,13.4558035 48.7673468,13.5765292 48.7390808,13.7528035 C48.7256916,13.8372374 48.7249478,13.9127835 48.7703222,13.989811 C48.8075143,14.0535067 48.8811547,14.1142399 48.9540512,14.1305342 C49.0336424,14.1475691 49.1214158,14.1446065 49.1920808,14.0994269 C49.2553074,14.0586913 49.3215094,13.9927736 49.3334108,13.9157461" id="Fill-112" fill="#000000"></path>
                                <path d="M54.6728601,11.8391903 C54.6743478,11.8310431 54.6758355,11.8243773 54.6788108,11.8169708 C54.668397,11.8414122 54.6579833,11.8658536 54.6475695,11.8895544 C54.649801,11.8858511 54.6527764,11.8821479 54.6557517,11.8784446 C54.6393872,11.8991828 54.6230227,11.9199209 54.607402,11.9406591 C54.6103773,11.9376965 54.6133527,11.9339933 54.6170719,11.9317713 L54.5545892,11.9791728 C54.5583084,11.9769509 54.5627714,11.9747289 54.5664906,11.9732476 C54.5419438,11.9828761 54.517397,11.9932451 54.4928502,12.0043549 C54.5002887,12.0013923 54.5062394,11.999911 54.5144217,11.9984297 C54.4868995,12.0021329 54.4593773,12.0058362 54.4318552,12.0087988 C54.4459882,12.0080581 54.4593773,12.0080581 54.4727665,12.0095394 C54.4459882,12.0065768 54.418466,12.0028736 54.3909438,11.9991703 C54.4095399,12.0021329 54.4266483,12.0073175 54.4437567,12.0132426 C54.4192099,12.0036142 54.3946631,11.9932451 54.3701163,11.9828761 C54.3909438,11.9917638 54.4087961,12.0028736 54.4259044,12.0154646 L54.3641655,11.9680631 C54.4058207,12.0028736 54.4407813,12.0458312 54.4742542,12.0880481 C54.4586335,12.06731 54.442269,12.0465718 54.4259044,12.0258337 C54.4861557,12.1028611 54.5352493,12.187295 54.5746729,12.2761728 C54.5642591,12.2517314 54.5538453,12.22729 54.5441754,12.2028486 C54.5739291,12.2732102 54.5992197,12.3472751 54.6103773,12.4228212 C54.6066581,12.3954172 54.6029389,12.3687539 54.5992197,12.3413499 C54.6021951,12.3694945 54.6029389,12.3961579 54.5992197,12.4243025 C54.6029389,12.3968985 54.6066581,12.3702352 54.6103773,12.3428312 C54.6066581,12.3598661 54.6021951,12.376901 54.5955005,12.3931953 C54.6059143,12.3687539 54.6163281,12.3443125 54.6267419,12.3191304 C54.621535,12.3302401 54.6163281,12.3391279 54.6096335,12.3480157 C54.625998,12.3280182 54.6416187,12.30728 54.6579833,12.2865419 C54.6483133,12.2983923 54.6386433,12.3087613 54.6267419,12.3183898 C54.6475695,12.3028362 54.668397,12.2865419 54.6892246,12.2709883 C54.6773232,12.2798761 54.6654217,12.2865419 54.6512887,12.2924671 C54.6758355,12.2828387 54.7003823,12.2724696 54.7249291,12.2613599 C54.7145153,12.2650631 54.7048453,12.2680257 54.6936877,12.269507 C54.7212099,12.2658037 54.748732,12.2621005 54.7762542,12.2583973 C54.7650966,12.2591379 54.7546828,12.2591379 54.744269,12.2576566 L54.8260916,12.2687663 C54.8186532,12.267285 54.8112148,12.2650631 54.8037764,12.2621005 C54.8283232,12.2724696 54.85287,12.2828387 54.8774167,12.2932077 C54.8662591,12.2872825 54.857333,12.2828387 54.8469192,12.2754322 C54.8677468,12.2909858 54.8885744,12.30728 54.909402,12.3228337 C54.8930374,12.3102426 54.8796483,12.2954297 54.867003,12.2798761 C54.8833675,12.2998736 54.8989882,12.3206117 54.9153527,12.3420905 C54.8223724,12.2213648 54.7472443,12.0858262 54.6877369,11.9473249 C54.6974069,11.9710257 54.7078207,11.9954671 54.7182345,12.0199085 C54.6713724,11.9080706 54.6349241,11.7932701 54.6096335,11.6740257 C54.5099586,11.8036392 54.4110276,11.9332526 54.3120966,12.0636067 C54.3158158,12.0636067 54.319535,12.0643474 54.323998,12.0643474 C54.2964759,12.0606441 54.2689537,12.0569409 54.2414315,12.0532377 C54.2726729,12.0576815 54.3024266,12.0658287 54.3314365,12.0776791 C54.3068897,12.06731 54.2823429,12.0569409 54.2577961,12.0465718 C54.2830867,12.0576815 54.305402,12.0710132 54.3277172,12.0873075 L54.2659783,12.039906 C54.2905251,12.0591628 54.3120966,12.079901 54.3314365,12.1043424 C54.3158158,12.0843449 54.2994512,12.0636067 54.2830867,12.0421279 C54.2994512,12.065088 54.3128404,12.0873075 54.323998,12.1124895 C54.3530079,12.1784072 54.4415251,12.2354372 54.5077271,12.2539534 C54.5821113,12.2739509 54.6802985,12.2643224 54.7457567,12.2228461 C54.8119586,12.1806292 54.8692345,12.1176741 54.8870867,12.039906 C54.8908059,12.0117613 54.8945251,11.985098 54.8982443,11.957694 C54.8982443,11.9021454 54.8841113,11.8510406 54.8565892,11.8028985 C54.8104709,11.6992077 54.7256729,11.6184771 54.6341803,11.5540406 C54.5382246,11.485901 54.4266483,11.460719 54.3120966,11.4496092 C54.2183724,11.4399808 54.1246483,11.4999733 54.0696039,11.5703349 C54.007865,11.6503249 53.993732,11.7392027 54.0153034,11.837709 C54.0577025,12.0362027 54.1320867,12.2287713 54.2272985,12.4080082 C54.2704414,12.4887389 54.3202788,12.5672476 54.3753232,12.6413125 C54.4259044,12.7094521 54.4720227,12.7672227 54.5456631,12.8116616 C54.640131,12.8709135 54.7502197,12.8827638 54.8580768,12.8620257 C55.0232099,12.8286965 55.1452,12.6931579 55.1965251,12.539103 C55.2389241,12.4109708 55.215865,12.2643224 55.1756975,12.1384122 C55.1087517,11.9317713 54.9986631,11.742906 54.8498946,11.5829259 C54.7472443,11.4725693 54.6237665,11.4110955 54.4727665,11.3955419 C54.3024266,11.3792476 54.1060522,11.4999733 54.07853,11.6762476 C54.0651409,11.7606815 54.064397,11.8362277 54.1097714,11.9132551 C54.1469635,11.9769509 54.2206039,12.0369434 54.2935005,12.0539783 C54.3723478,12.0710132 54.460865,12.0680506 54.53153,12.0228711 C54.5947567,11.9821354 54.6602148,11.9162177 54.6728601,11.8391903" id="Fill-114" fill="#000000"></path>
                                <path d="M47.9576,10.0164546 C46.8329103,10.3919633 45.9350926,11.2948137 45.5735852,12.4205993 C45.5237478,12.5783574 45.6330926,12.7553723 45.7892995,12.7983299 C45.9559202,12.8435095 46.117334,12.7427813 46.1686591,12.5842825 C46.3122207,12.1361903 46.5733094,11.7117988 46.9125015,11.3681379 C47.2539251,11.0237364 47.6771714,10.7563623 48.1212453,10.6082327 C48.2796837,10.5556466 48.382334,10.3971479 48.3369596,10.230502 C48.2945606,10.0771878 48.1160384,9.96386858 47.9576,10.0164546" id="Fill-116" fill="#000000"></path>
                                <path d="M52.6051271,12.6781968 C53.0134966,13.6143763 53.4479005,14.5379648 53.9120581,15.447481 C54.1433931,15.9029798 54.3829103,16.3540347 54.6283783,16.8013863 C54.6640828,16.8665633 54.9928611,17.4109399 54.9764966,17.4257529 C55.0114571,17.2983613 54.988398,17.2768825 54.9088069,17.3598352 C54.8604571,17.391683 54.8106197,17.4220496 54.7600384,17.4494536 C54.6551567,17.5079648 54.5480433,17.5494411 54.4342355,17.5872142 C54.0593389,17.7094212 54.219265,18.3019399 54.5986246,18.1789923 C54.9653389,18.0590072 55.7188512,17.7723763 55.5760335,17.2642915 C55.5016493,16.9983988 55.2933734,16.7339873 55.1609695,16.4910546 C55.0129448,16.2229399 54.8678956,15.9533439 54.7258217,15.6822666 C54.1560384,14.5972167 53.6271665,13.4914287 53.1369744,12.3678651 C52.9792798,12.0071693 52.4489202,12.3189823 52.6051271,12.6781968" id="Fill-118" fill="#000000"></path>
                                <path d="M52.1133729,10.1148127 C52.4652103,9.84077282 52.9546586,9.8052217 53.3831118,9.82077531 C53.9268606,9.84077282 54.4646586,9.94890748 54.9823729,10.1140721 C55.3609887,10.2340571 55.5231463,9.6415384 55.1460182,9.52155337 C54.5472251,9.33120673 53.9112399,9.21270299 53.2812054,9.20455586 C52.7002645,9.19714938 52.1408951,9.31935636 51.6774813,9.68079277 C51.5458212,9.78300224 51.5696241,10.0074187 51.6774813,10.1148127 C51.8069099,10.2436855 51.9817128,10.2170222 52.1133729,10.1148127" id="Fill-120" fill="#000000"></path>
                                <path d="M55.5750665,19.1769419 C55.2172783,19.3517349 54.9137906,19.6405878 54.7107217,19.981286 C54.6549335,20.076089 54.6556773,20.1968147 54.7107217,20.2916177 C54.7605591,20.3760516 54.8728793,20.4560416 54.9770172,20.4434506 C55.1652094,20.4212312 55.3415,20.3723484 55.506633,20.2760641 C55.6695345,20.1805204 55.7989631,20.0531289 55.9090517,19.9020367 C55.9715345,19.8146401 55.9603768,19.6798421 55.9090517,19.591705 C55.8815296,19.5457848 55.8443374,19.5087524 55.7982192,19.4813484 C55.7498695,19.4539444 55.6985443,19.4391314 55.6427562,19.4391314 C55.4805985,19.4213559 55.3191847,19.4650541 55.1741355,19.5346751 C55.1079335,19.5672636 55.0514015,19.6502162 55.0328054,19.7183559 C55.0119778,19.79168 55.0209039,19.8901863 55.063303,19.9553633 C55.105702,20.0205404 55.1689286,20.078311 55.2477759,20.0960865 C55.33183,20.1153434 55.4069581,20.1027524 55.4850616,20.0649793 C55.4969631,20.0590541 55.5081207,20.0546102 55.5200222,20.0494257 C55.4962192,20.0590541 55.4709286,20.0694232 55.4463818,20.0805329 C55.4910123,20.0620167 55.5363867,20.0501663 55.5832488,20.0435005 C55.5557266,20.0472037 55.5289483,20.050907 55.5014261,20.0546102 C55.5482882,20.048685 55.5951502,20.0479444 55.6427562,20.0538696 L55.3764606,19.591705 C55.369766,19.6005928 55.3630714,19.6102212 55.355633,19.6198496 C55.3719975,19.5983708 55.3883621,19.5783733 55.4039828,19.5576352 C55.3534015,19.6220716 55.2953818,19.6791015 55.2299236,19.7287249 C55.2507512,19.7131713 55.2715788,19.6968771 55.2924064,19.6813234 C55.2269483,19.7302062 55.1562833,19.7716825 55.0804113,19.8035304 C55.1049581,19.7931613 55.1295049,19.7827923 55.1540517,19.7724232 C55.0781798,19.8042711 54.9993325,19.8257499 54.9182537,19.8376002 C54.9457759,19.833897 54.9725542,19.8301938 55.0000764,19.8264905 C54.9926379,19.8279718 54.9844557,19.8287125 54.9770172,19.8294531 C55.0655345,19.983508 55.1547956,20.1375628 55.2433128,20.2916177 C55.2812488,20.2264406 55.3243916,20.1634855 55.3705099,20.1042337 C55.3548892,20.1242312 55.3385246,20.14571 55.3229039,20.1664481 C55.4166281,20.0472037 55.5237414,19.9398097 55.6442438,19.8472287 C55.6234163,19.8635229 55.6025887,19.8790766 55.5817611,19.8953708 C55.6769729,19.8227873 55.7781355,19.7598322 55.8859926,19.7072461 C55.9529384,19.6746576 56.0087266,19.5931863 56.0280665,19.524306 C56.0481502,19.4502411 56.0392241,19.3524756 55.9968251,19.2872985 C55.9544261,19.2221214 55.8911995,19.1636102 55.8123522,19.1465753 C55.728298,19.1273185 55.6524261,19.1391688 55.5750665,19.1769419" id="Fill-122" fill="#000000"></path>
                                <path d="M48.8293089,6.74575137 C49.4474419,6.63539476 50.1935158,6.42356933 50.3333581,5.81475636 C50.3817079,5.60811546 50.3727818,5.34148204 50.5646931,5.248901 C50.6576734,5.20446209 50.7662744,5.22149701 50.8666931,5.23927257 C51.6670675,5.38147706 52.4674419,5.52368155 53.2670724,5.66514539 C52.6243926,3.98979875 51.9817128,2.31593342 51.339033,0.640586783 C51.2951463,0.527267581 51.2467966,0.407282544 51.1448901,0.341364838 C51.0377768,0.27174389 50.8994222,0.279891022 50.7722251,0.292482045 C48.5987177,0.5183798 46.5955502,1.52047706 44.6481709,2.5070207 C41.2391414,4.23569401 37.7892005,5.99621521 34.9417719,8.54108304 C34.7766389,8.68847207 34.6077867,8.84771147 34.535634,9.05657431 C34.4672005,9.25506808 34.4947227,9.4728187 34.5334025,9.6794596 C34.6955601,10.552684 35.0235946,11.3851728 35.3531167,12.2102551 C36.168368,14.2581479 36.9977522,16.3008561 37.8390379,18.3376392 C38.1759985,19.153093 38.5166783,19.9707688 38.9748852,20.7254895 C40.0839542,22.5489658 41.8156192,23.8962052 43.5078606,25.2019683 C43.2906586,23.8147339 43.0734567,22.4274995 42.8555108,21.0402651 C42.8391463,20.9328711 42.8198064,20.8210332 42.7521167,20.7365993 C42.6606241,20.6210581 42.5036734,20.5862476 42.3608557,20.5514372 C40.1910675,20.0196516 38.5821365,17.7836342 38.7747916,15.5676142 C38.8365305,14.8617763 39.2039887,14.0448411 39.9113828,13.9737389 C40.5503433,13.9093025 41.0524369,14.4870082 41.3998113,15.024719 C41.7665256,15.5898337 42.099767,16.1771678 42.3980478,16.7822776 C42.6918655,16.9452202 43.0742005,16.6719209 43.1493286,16.345295 C43.2237128,16.0194097 43.0927966,15.683896 42.963368,15.374305 C42.4560675,14.1559384 41.9480232,12.9368312 41.4399788,11.7177239 C41.3090626,11.4044297 41.1729394,11.081507 40.929703,10.8444995 C40.3576882,10.28531 39.3973877,10.3645594 38.7457818,9.90091347 C38.7457818,9.90091347 45.7594714,7.29605312 48.8293089,6.74575137" id="Fill-124" fill="#231F20"></path>
                                <path d="M59.6415039,29.412184 C58.2244842,29.9906304 56.7434941,30.4816803 55.2342379,30.7579421 C53.8633365,31.0090219 52.1837404,30.9319945 51.317164,29.6721516 C51.0940113,29.3477476 50.5599325,29.6543761 50.7845729,29.9817426 C51.6541246,31.2460294 53.2109867,31.6126504 54.6711493,31.4571142 C56.4281049,31.2697302 58.1791099,30.667583 59.8051493,30.0039621 C60.1674005,29.8565731 60.0089621,29.2618324 59.6415039,29.412184" id="Fill-126" fill="#000000"></path>
                                <path d="M81.5532404,77.2939908 C84.9726837,76.825901 88.3921271,76.3585519 91.8123143,75.8904621 C91.2440187,69.6779035 89.595664,63.5638511 86.9617182,57.9015943 C85.6436296,55.0663923 84.0503192,52.3067364 81.8158167,50.1129359 C79.5805704,47.9191354 76.6349547,46.3230382 73.4996591,46.1808337 C73.2065852,46.9481454 72.9142552,47.7161978 72.6211813,48.4842501" id="Fill-128" fill="#4A6DE2"></path>
                            </g>
                        </g>
                    </g>
                    <g id="Group-4" transform="translate(0.000000, 27.000000)">
                        <g id="Group-3" transform="translate(0.000000, 320.116331)" fill="#527AF3">
                            <path d="M61.205198,1.34508277 C46.9366337,0.496885906 32.6227723,0.306004474 18.3334158,0.772438479 C12.7425743,0.955149888 7.00247525,1.27080984 1.90990099,3.40170022 C0.771534653,3.87704698 -0.505693069,5.02159284 0.204207921,5.96931544 C0.463366337,6.31394183 0.917079208,6.48105593 1.34554455,6.62365996 C12.219802,10.2600626 23.9799505,10.8542461 35.5425743,11.2389799 C58.2170792,11.9950783 80.9175743,12.0856913 103.59802,11.513047 C111.380941,11.3169664 119.270792,11.0250738 126.701733,8.88675615 C127.949257,8.5280179 129.337129,7.97542729 129.727723,6.82791051 C130.10495,5.71901566 129.314851,4.5009396 128.230693,3.90601342 C127.145792,3.31034452 125.839604,3.19150783 124.580941,3.09421029 C115.32698,2.3797047 106.035149,2.07667114 96.7492574,2.18882327" id="Fill-1" style="mix-blend-mode: multiply;"></path>
                        </g>
                        <g id="Group-83" transform="translate(63.861386, 0.000000)">
                            <path d="M8.34898515,322.287552 C10.8046782,322.034281 13.4059158,321.80552 15.632896,322.871337 C16.7081436,323.386048 17.6244802,324.173341 18.5861139,324.877449 C21.107896,326.726102 24.0158168,328.042961 27.067797,328.718102 C27.3484901,328.780491 27.6477475,328.846594 27.8489851,329.050845 C28.0502228,329.256581 28.0806683,329.652455 27.8341337,329.799516 C27.7517079,329.850021 27.6529455,329.863391 27.5571535,329.876017 C19.1942822,330.973028 10.6932921,331.012393 2.32002475,329.991883 C2.38462871,327.316572 2.67274752,324.644974 3.18141089,322.017198 L8.34898515,322.287552 Z" id="Fill-47" fill="#000000"></path>
                            <path d="M41.1749257,316.271741 C43.6306188,316.018471 46.2318564,315.78971 48.4588366,316.854784 C49.5340842,317.370238 50.4504208,318.156788 51.4120545,318.861638 C53.9338366,320.710292 56.8417574,322.026408 59.8937376,322.702292 C60.1744307,322.763938 60.4736881,322.830041 60.6749257,323.035034 C60.8761634,323.24077 60.9066089,323.636645 60.6600743,323.783706 C60.5776485,323.833468 60.4788861,323.846838 60.3830941,323.860207 C52.0202228,324.956475 43.5192327,324.996583 35.1459653,323.976072 C35.2105693,321.300019 35.4986881,318.629164 36.0073515,316.001388 L41.1749257,316.271741 Z" id="Fill-49" fill="#000000"></path>
                            <path d="M32.5044059,279.418924 C31.8880693,283.937689 31.2717327,317.21122 31.8880693,317.621949 C32.5044059,318.031936 55.9140594,318.237672 56.1190099,317.416213 C57.604901,311.455068 57.2610891,304.428106 57.7742079,298.332526 C60.5982178,264.798298 63.9301485,231.292294 65.4761881,197.647399 C66.0591089,184.957868 66.4437624,172.259426 66.6286634,159.558012 C66.8083663,147.201224 65.4390594,134.83998 64.5383168,122.500276 L48.7266832,124.759658 L32.2987129,256.825842 L32.5044059,279.418924 Z" id="Fill-51" fill="#4A6DE2"></path>
                            <path d="M59.2428713,159.991097 C59.0624257,164.292985 57.6901485,168.799124 56.8629208,173.003715 C55.3198515,180.844708 53.7025248,188.670847 52.1022772,196.500699 C48.6864356,213.221021 45.2698515,229.941343 41.8532673,246.660923 C38.0668812,261.80963 35.7114356,277.391348 32.5428713,292.675231 C31.2641584,298.844341 29.9609406,305.009737 28.580495,311.157307 C27.7651485,314.79371 27.2646535,318.950766 25.7913861,322.400001 C25.7512871,322.494328 25.6324752,323.007553 25.4802475,323.007553 C24.5594554,323.007553 0.627029703,323.314301 0.311435644,322.394059 C-0.757128713,319.280538 1.37183168,313.855643 1.9250495,310.694587 C2.74485149,306.007222 3.56465347,301.319115 4.38445545,296.63175 C9.1770297,269.230981 14.2889109,241.877003 18.6782673,214.407902 C19.2611881,210.760359 19.835198,207.112815 20.4010396,203.463043 C22.069604,192.700896 22.8374257,181.308914 25.4802475,170.736162 C25.7869307,168.894193 22.3354455,167.444386 21.1829703,163.675034 C20.030495,159.906426 25.7869307,129.597871 27.6285149,127.756645 C29.470099,125.913934 58.3220792,122.229996 59.550297,122.844234 C60.7777723,123.458471 59.2428713,159.987383 59.2428713,159.991097" id="Fill-53" fill="#4A6DE2"></path>
                            <path d="M33.7618812,42.3613432 C33.2977723,38.9492447 32.7007426,35.5557145 31.9722772,32.1911508 L32.2425743,31.0428913 C32.0910891,30.5972537 31.7925743,30.2192045 31.4910891,29.858238 C29.7608911,27.7860233 27.7069307,25.8838935 26.7014851,23.3779248 C26.0962871,21.8701843 25.9106436,20.2242962 25.8831683,18.5999472 C25.8482673,16.5812089 26.0940594,14.4406631 27.3178218,12.8356251 C28.0084158,11.930238 28.9596535,11.2654953 29.9116337,10.6430881 C31.8215347,9.39456018 33.8042079,8.25892707 35.8455446,7.24138792 L36.8591584,7.41295839 C37.7591584,7.70559374 38.6450495,8.07547293 39.4054455,8.6399472 C40.5408416,9.48145951 41.325,10.7002783 42.1537129,11.8455669 C43.0752475,13.1178622 44.0806931,14.3307391 45.160396,15.4715714 C45.6987624,16.040502 46.2794554,16.6079472 47.0123762,16.8864707 C47.3873762,17.0298174 47.7905941,17.091464 48.160396,17.2474371 C48.5294554,17.4026676 48.8814356,17.6856474 48.9653465,18.0785512 C48.9653465,18.0785512 49.0210396,19.0426139 48.0720297,19.4273477 C47.1222772,19.8128242 45.9675743,20.1567078 45.9675743,20.1567078 C45.9675743,20.1567078 46.1450495,20.8994371 46.4339109,21.4230613 C47.2767327,22.9501128 48.2071782,24.4355714 48.8903465,26.0413521 C49.2423267,26.8709808 49.4873762,27.9382828 48.8613861,28.5874282 C48.570297,28.8889763 48.15,29.0234103 47.7475248,29.1407615 C46.2475248,29.5789718 44.7267327,29.9451374 43.1918317,30.2385154 L42.7336634,31.0332358 C43.7079208,35.727285 44.6814356,40.4228197 45.6556931,45.1176116 L33.7618812,42.3613432 Z" id="Fill-55" fill="#A5453C"></path>
                            <path d="M44.997995,23.6226541 C45.1650743,23.3471016 45.347005,23.0812045 45.5437871,22.8271911 C45.5252228,22.8502157 45.507401,22.8732403 45.4895792,22.8962649 C45.5616089,22.8034237 45.6358663,22.7113253 45.7123515,22.6207123 C45.7725,22.5494103 45.8140842,22.4729092 45.8140842,22.3756116 C45.8140842,22.2909405 45.7762129,22.1891866 45.7123515,22.130511 C45.5838861,22.0131597 45.347005,21.9827078 45.2222525,22.130511 C44.9200248,22.4899919 44.642302,22.8710121 44.3994802,23.2728286 C44.3059158,23.4280591 44.3601238,23.6605333 44.5242327,23.7474327 C44.6920545,23.8358174 44.8977475,23.7890255 44.997995,23.6226541" id="Fill-57" fill="#000000"></path>
                            <path d="M41.9602723,14.7765996 C41.8563119,14.7387204 41.7360149,14.7610022 41.6402228,14.8100224 C41.5689356,14.8464161 41.5035891,14.9162327 41.4664604,14.9867919 C41.397401,15.1219687 41.3818069,15.2734855 41.4174505,15.4205459 C41.4738861,15.6597047 41.6075495,15.881038 41.7657178,16.0667204 C41.8637376,16.1825861 41.9803218,16.2769128 42.1221535,16.3303893 C42.2684406,16.386094 42.4481436,16.3697539 42.5803218,16.28434 C42.7674505,16.1655034 42.8543317,15.9411991 42.7875,15.7265503 C42.7511139,15.6091991 42.687995,15.4933333 42.6256188,15.3863803 C42.497896,15.1702461 42.3345297,14.9704519 42.1466584,14.8025951 C42.0627475,14.7283221 41.9684406,14.6926711 41.8555693,14.7075257 C41.7590347,14.7208949 41.6446782,14.7765996 41.6023515,14.8731544 C41.5503713,14.9927338 41.5117574,15.1137987 41.5251238,15.2460045 C41.537005,15.3737539 41.5689356,15.5029888 41.6469059,15.6069709 C41.702599,15.6827293 41.7597772,15.7406622 41.8540842,15.7666577 C41.9372525,15.7889396 42.0471535,15.7792841 42.1206683,15.7317494 C42.1949257,15.6842148 42.2602723,15.6129128 42.2803218,15.524528 C42.2996287,15.4398568 42.3003713,15.3306756 42.2454208,15.2571454 C42.227599,15.2333781 42.2134901,15.2096107 42.2008663,15.1828725 C42.212005,15.2103535 42.2238861,15.2378345 42.2357673,15.2653154 C42.222401,15.2341208 42.2134901,15.2021834 42.2075495,15.1680179 C42.2112624,15.1992125 42.2157178,15.2296644 42.2201733,15.2601163 C42.2142327,15.2222371 42.2142327,15.1836152 42.2194307,15.1449933 C42.2149752,15.1754452 42.2112624,15.2066398 42.2075495,15.2370917 C42.212005,15.2081253 42.2194307,15.1806443 42.2298267,15.153906 L42.1949257,15.236349 C42.1971535,15.2318926 42.1993812,15.2274362 42.2008663,15.2229799 C42.0196782,15.2467472 41.8377475,15.2697718 41.6565594,15.2927964 C41.7590347,15.3834094 41.8511139,15.4829351 41.9350248,15.5913736 C41.9164604,15.5668635 41.8986386,15.5438389 41.8808168,15.5208143 C41.9832921,15.6552483 42.0709158,15.8000805 42.1392327,15.9545682 L42.1043317,15.8721253 C42.1154703,15.8981208 42.1236386,15.9241163 42.1288366,15.9515973 C42.1243812,15.9211454 42.1206683,15.8906935 42.1162129,15.8594989 C42.117698,15.8706398 42.117698,15.881038 42.1169554,15.892179 C42.1206683,15.8617271 42.1251238,15.8312752 42.1295792,15.8000805 C42.1273515,15.8141924 42.1243812,15.8260761 42.1184406,15.8394452 L42.1533416,15.7562595 C42.1503713,15.7636868 42.1459158,15.7711141 42.1414604,15.7777987 C42.1592822,15.7532886 42.177104,15.730264 42.1956683,15.7072394 C42.1875,15.7168949 42.1800743,15.7243221 42.1704208,15.7332349 C42.1941832,15.7154094 42.217203,15.6968412 42.2409653,15.6790157 C42.2268564,15.6894139 42.2134901,15.6968412 42.197896,15.7035257 L42.2810644,15.6686174 C42.2647277,15.6745593 42.2491337,15.6782729 42.2320545,15.6812438 C42.2625,15.6767875 42.2936881,15.6730738 42.3241337,15.6686174 C42.3070545,15.6701029 42.2907178,15.6701029 42.2736386,15.6678747 C42.3048267,15.6715884 42.3352723,15.6760447 42.3664604,15.6805011 C42.3456683,15.6760447 42.3263614,15.6701029 42.3063119,15.6619329 C42.3337871,15.6738166 42.362005,15.6857002 42.3894802,15.6968412 C42.3657178,15.6857002 42.3434406,15.6723311 42.3219059,15.6574765 C42.3456683,15.675302 42.3686881,15.6923848 42.3924505,15.710953 C42.3248762,15.6582192 42.267698,15.5943445 42.2149752,15.5267562 C42.2335396,15.5505235 42.2513614,15.5735481 42.2699257,15.5965727 C42.2045792,15.5111588 42.1503713,15.4190604 42.1080446,15.3202774 L42.1429455,15.4034631 C42.117698,15.343302 42.0924505,15.2794273 42.0805693,15.2148098 C42.0850248,15.2460045 42.0887376,15.2764564 42.0931931,15.3069083 C42.0894802,15.28017 42.0902228,15.2541745 42.0939356,15.2259508 C42.0894802,15.2564027 42.0850248,15.2875973 42.0813119,15.3180492 C42.0842822,15.299481 42.0894802,15.2823982 42.0961634,15.26383 C42.0842822,15.291311 42.072401,15.3187919 42.0612624,15.3470157 C42.067203,15.3343893 42.0731436,15.3225056 42.0813119,15.3113647 C42.0627475,15.335132 42.0449257,15.3581566 42.0263614,15.3811812 C42.0330446,15.3744966 42.0382426,15.3685548 42.0456683,15.362613 C42.0219059,15.3796957 41.9988861,15.398264 41.9758663,15.4160895 C41.9803218,15.4131186 41.9847772,15.4108904 41.9907178,15.4086622 L41.9075495,15.4428277 C41.9127475,15.4413423 41.9179455,15.4398568 41.9238861,15.4391141 C41.892698,15.4428277 41.8622525,15.4472841 41.8318069,15.4509978 C41.837005,15.4509978 41.8429455,15.4509978 41.8496287,15.4517405 C41.8184406,15.4472841 41.787995,15.4435705 41.7568069,15.4398568 C41.7634901,15.4413423 41.7701733,15.442085 41.7761139,15.4450559 C41.8563119,15.4747651 41.9714109,15.4517405 42.042698,15.4108904 C42.1147277,15.3685548 42.1837871,15.2861119 42.2023515,15.2029262 C42.222401,15.1145414 42.2179455,15.0150157 42.1674505,14.9362864 C42.1162129,14.8560716 42.0493812,14.8092796 41.9602723,14.7765996" id="Fill-59" fill="#000000"></path>
                            <path d="M39.5432673,16.0024 C39.5046535,14.8727087 40.0155446,13.7942658 40.8984653,13.093872 C41.0447525,12.9772635 41.0202475,12.7254783 40.8984653,12.6036707 C40.7536634,12.4588385 40.555396,12.4870622 40.4083663,12.6036707 C39.3940099,13.4087893 38.8058911,14.710051 38.8504455,16.0024 C38.865297,16.4472949 39.5588614,16.449523 39.5432673,16.0024" id="Fill-61" fill="#000000"></path>
                            <path d="M18.6797525,14.626494 C19.8106931,13.7003105 20.9423762,12.7748698 22.0733168,11.8486864 C24.490396,9.87079821 27.0084653,7.75624787 28.1186139,4.83583624 C28.4349505,4.00323669 28.6309901,3.11864609 29.0750495,2.34695034 C29.6839604,1.28781834 30.7592079,0.509438031 31.9547525,0.260623714 C33.1510396,0.011809396 34.4475743,0.297760179 35.4277723,1.0256349 C36.0767822,1.50840895 36.5780198,2.16052528 37.0391584,2.82452528 C38.1975743,4.4926953 39.1629208,6.2945566 39.9099505,8.1825745 C38.5376733,8.86662819 37.1921287,9.60490112 35.8777723,10.3959078 C35.4463366,10.6558631 34.9844554,10.9640957 34.8463366,11.449098 C34.6993069,11.9697512 34.9829703,12.5178855 35.3453465,12.919702 C35.7069802,13.3207758 36.1577228,13.6460913 36.4577228,14.0954425 C37.090396,15.0439078 36.8394059,16.4721763 35.9208416,17.1488027 C35.8079703,17.2312456 35.6765347,17.3062613 35.5376733,17.2936349 C35.3609406,17.2772949 35.2309901,17.128749 35.1121782,16.9972859 C34.8337129,16.6860823 34.5136634,16.4060734 34.1431188,16.2129638 C32.8681188,15.5474783 31.1215842,16.1468609 30.4421287,17.4154425 C29.7626733,18.6832814 30.1755446,20.4012143 31.299802,21.299174 C32.4240594,22.1963911 34.1186139,22.2468966 35.3483168,21.5004537 C36.019604,24.4684 36.4198515,27.4972501 36.5416337,30.5379839 C36.5557426,30.8996931 36.5661386,31.2673441 36.4785149,31.6193978 C36.3894059,31.9788787 36.2000495,32.3086506 35.9772772,32.6049996 C34.8455941,34.115711 32.6943564,34.8064492 30.9255446,34.1446774 C30.1733168,33.863183 29.5183663,33.3737244 28.8908911,32.8716394 C23.9238119,28.9032367 19.8879208,23.7746908 17.1975743,18.0140823 C16.9124257,17.4035588 16.6792574,16.5850711 17.1812376,16.1364626 L18.6797525,14.626494 Z" id="Fill-63" fill="#000000"></path>
                            <path d="M45.4222277,45.8167427 C48.5588614,47.978085 51.12,50.9675705 52.7766832,54.3982371 C54.0657921,57.0690917 54.8031683,59.9672215 55.5308911,62.8423266 C59.9558911,80.3209754 64.3571287,97.8649843 66.5328713,115.764018 C66.7081188,117.200456 66.8625743,118.698541 66.379901,120.064421 C65.7895545,121.738532 64.3014356,122.972206 62.6692574,123.668143 C61.0363366,124.365566 59.249703,124.596555 57.4890594,124.821602 C48.6219802,125.954264 39.7541584,127.087669 30.8870792,128.220331 C29.4962376,128.398586 27.9167822,128.522622 26.8586139,127.603123 C26.1212376,126.962148 25.8264356,125.95872 25.6170297,125.004313 C24.8172772,121.36494 24.7422772,117.6097 24.6702475,113.88417 C24.3888119,99.3289038 24.1073762,84.7728949 23.8266832,70.2183714 C23.7754455,67.5839105 23.7256931,64.9308814 24.1697525,62.3342998 C25.2138119,56.2253512 28.8167822,50.3822998 32.3818812,45.3131723 L45.4222277,45.8167427 Z" id="Fill-65" fill="#052175"></path>
                            <path d="M46.542995,46.8830049 C46.3135396,45.7867365 46.0840842,44.690468 45.8553713,43.5941996 L45.8004208,42.7630855 C41.5254208,41.8079356 37.1345792,40.8453584 32.8588366,39.8902085 C32.8588366,39.8902085 32.0657673,44.2619132 31.5994307,46.3014479 L41.5120545,46.7589691 L46.542995,46.8830049 Z" id="Fill-67" fill="#F2EDED"></path>
                            <path d="M45.0128465,230.173149 C42.947005,239.770697 40.8811634,249.368245 38.8153218,258.965793 C36.7435396,268.593793 34.6710149,278.220308 32.5992327,287.848308 C31.4363614,293.250921 30.2734901,298.652791 29.1106188,304.055404 C29.0170545,304.490643 29.6846287,304.676326 29.7789356,304.240344 C31.8447772,294.642796 33.9106188,285.045247 35.9764604,275.447699 C38.0482426,265.819699 40.1207673,256.192442 42.1925495,246.564442 C43.3554208,241.162572 44.5182921,235.759959 45.6811634,230.357346 C45.7747277,229.922849 45.1064109,229.736424 45.0128465,230.173149" id="Fill-69" fill="#000000"></path>
                            <path d="M59.8444307,149.576918 C58.017698,159.841437 56.3246287,170.130466 54.7704208,180.440292 C54.3308168,183.350305 53.9038366,186.262547 53.4857673,189.174788 C53.4233911,189.611513 54.0909653,189.800166 54.1540842,189.359728 C55.6325495,179.040247 57.2461634,168.740077 58.9964109,158.462932 C59.4909653,155.561088 59.9966584,152.659987 60.5127475,149.761115 C60.5899752,149.325133 59.922401,149.137222 59.8444307,149.576918" id="Fill-71" fill="#000000"></path>
                            <path d="M34.4163119,187.563437 C34.3576485,186.499849 34.3717574,183.271947 34.5321535,182.223956 C34.7014604,181.121003 35.0475,179.95269 35.9148267,179.320627 C36.4019554,178.966345 36.9982426,178.823741 37.5789356,178.691536 C41.7061634,177.746041 45.8541832,176.895616 50.0185396,176.138032 C50.8539356,175.986515 51.812599,175.871392 52.4682921,176.451464 C52.9517079,176.879276 53.127698,177.570757 53.2769554,178.215446 C53.5903218,179.567213 54.2727475,183.438319 54.5861139,184.790829 C53.8338861,185.077522 51.8497277,185.377585 51.0536881,185.483795 C50.8977475,185.504591 51.1539356,181.760493 50.7499752,181.423294 C50.6148267,181.311142 50.4380941,181.279204 50.2687871,181.253952 C46.7556683,180.728842 43.2083911,181.407697 39.7346287,182.084323 C39.3737376,182.154882 38.9972525,182.231383 38.7061634,182.465343 C37.962104,183.061012 38.1737376,186.435974 38.4217574,187.397066 C37.122995,187.826363 35.7767079,188.098945 34.4155693,188.208869 L34.4163119,187.563437 Z" id="Fill-73" fill="#000000"></path>
                            <path d="M7.6984901,191.332194 C7.74527228,193.159308 9.07225248,241.453796 9.07225248,241.453796 L85.457896,230.696847 C85.457896,230.696847 82.6153218,180.312319 81.4531931,180.260895 C80.2910644,180.209823 7.6984901,191.332194 7.6984901,191.332194" id="Fill-75" fill="#82A6F5"></path>
                            <path d="M47.8163614,97.0817763 C47.647797,106.830098 46.3839356,115.914421 46.8153713,125.656058 C46.9230446,128.076613 46.8272525,173.990653 46.8272525,173.990653 L47.3930941,174.877472 C48.2492822,175.114403 49.1047277,175.352076 49.9601733,175.589007 C50.1086881,175.629857 50.2653713,175.675906 50.3708168,175.788801 C50.5044802,175.929919 50.5245297,176.141597 50.537896,176.336192 C50.6232921,177.637454 50.6997772,178.939459 50.7666089,180.242206 C50.7732921,180.388523 50.7784901,180.546725 50.6982921,180.670018 C50.6069554,180.809651 50.4331931,180.866098 50.272797,180.910662 C46.4039851,182.009159 42.4074505,182.656076 38.3901238,182.835074 C38.1339356,182.846215 37.8539851,182.849186 37.6512624,182.691727 C37.4797277,182.558779 37.4017574,182.340416 37.332698,182.133937 C36.9510149,180.993848 36.5641337,179.803253 36.7215594,178.611172 C36.8797277,177.418349 37.7581931,176.228497 38.9574505,176.137884 L40.0497772,175.164908 C37.4930941,158.425275 35.0054703,143.003987 32.742104,127.185338 C31.4596782,118.224309 31.2933416,108.284362 30.7713119,98.7061253 L47.8163614,97.0817763 Z" id="Fill-77" fill="#A5453C"></path>
                            <path d="M27.4575743,62.9162282 C27.304604,72.308783 27.5221782,81.7072796 28.1169802,91.0820089 C28.2840594,93.7164698 28.4815842,96.3494452 28.7080693,98.9794497 C28.7229208,99.1532483 28.8558416,99.3485861 29.0570792,99.3285324 C35.8709406,98.6786443 42.679604,97.9812215 49.490495,97.3053378 C49.6731683,97.2867696 49.8469307,97.1597629 49.8402475,96.9555123 C49.7912376,95.5161029 49.8736634,94.1049172 49.9605446,92.6647651 C50.085297,90.6029485 50.2100495,88.541132 50.334802,86.4793154 C50.5575743,82.8013199 50.7818317,79.1233244 51.0038614,75.4460716 C51.1538614,72.9757539 51.3031188,70.506179 51.4516337,68.0358613 C51.4783663,67.5865101 50.779604,67.5879955 50.7521287,68.0358613 C50.275396,75.9667248 49.790495,83.8983311 49.3122772,91.8299374 C49.2090594,93.5448993 49.0828218,95.2390649 49.1414851,96.9555123 C49.2573267,96.8396465 49.3739109,96.723038 49.490495,96.6056868 C42.679604,97.2823132 35.8709406,97.979736 29.0570792,98.6296242 C29.1736634,98.7462327 29.2902475,98.8628412 29.4068317,98.9794497 C28.6033663,89.6203177 28.169703,80.2299911 28.1140099,70.8359508 C28.0984158,68.1962908 28.1132673,65.5566309 28.1563366,62.9162282 C28.1637624,62.466877 27.465,62.466877 27.4575743,62.9162282" id="Fill-79" fill="#000000"></path>
                            <polygon id="Fill-81" fill="#4A6DE2" points="77.4022277 180.81797 79.8334158 231.685272 85.8512376 230.645451 83.2158416 180.055187"></polygon>
                        </g>
                    </g>
                </g>
            </g>
        </g>
    </g>
</svg>