<?xml version="1.0" encoding="UTF-8"?>
<svg width="292px" height="323px" viewBox="0 0 292 323" version="1.1" xmlns="http://www.w3.org/2000/svg" xmlns:xlink="http://www.w3.org/1999/xlink">
    <!-- Generator: Sketch 62 (91390) - https://sketch.com -->
    <title>Group 13</title>
    <desc>Created with Sketch.</desc>
    <defs>
        <polygon id="path-1" points="0.593841872 0.296117021 24.0463628 0.296117021 24.0463628 62.312102 0.593841872 62.312102"></polygon>
    </defs>
    <g id="design" stroke="none" stroke-width="1" fill="none" fill-rule="evenodd">
        <g id="Home" transform="translate(-1115.000000, -365.000000)">
            <g id="Group-21" transform="translate(-36.000000, 156.000000)">
                <g id="Group-13" transform="translate(1151.000000, 209.000000)">
                    <g id="Group-43" transform="translate(31.000000, 22.000000)">
                        <g id="Group-3" transform="translate(0.068602, 284.000000)" fill="#527AF3" fill-opacity="0.3">
                            <path d="M101.695192,1.65221497 C76.1328913,0.481353293 50.5238928,0.418956276 24.9557548,1.46624739 C17.9277565,1.75376305 10.7468234,2.1599554 4.23133196,4.93601092 C2.67163001,5.60035563 0.990514135,6.61461303 0.635611895,8.33848356 C-0.038001895,11.6014805 4.18580173,13.306999 7.3577405,13.6043024 C74.1155522,19.8305459 141.327499,14.548822 208.332808,16.0781606 C216.312271,16.2592343 224.543902,16.4953642 231.97817,13.4489216 C232.910956,13.0659752 233.898611,12.5631287 234.337569,11.6186091 C235.287867,9.5778596 233.066225,7.48817127 231.045384,6.67089269 C227.105269,5.07793355 222.812586,4.79164135 218.596954,4.53838287 C181.254001,2.29698414 143.844503,1.26682163 106.44201,1.44667185" id="Fill-1" style="mix-blend-mode: multiply;"></path>
                        </g>
                        <g id="Group-42" transform="translate(134.068602, 0.000000)">
                            <path d="M95.7181859,21.9591032 C94.3063822,21.2499809 92.9717135,20.3850074 91.7461245,19.3852229 C91.3417503,19.0548186 90.9350387,18.6924649 90.732462,18.2101059 C90.4340509,17.5041005 90.6342902,16.6773106 91.0059405,16.0063718 C91.3783699,15.3369915 91.9081859,14.7689144 92.3304804,14.129925 C92.7551123,13.4893771 93.0504067,12.585441 92.5564313,11.9971032 C92.3717748,11.7757947 92.1053086,11.642542 91.864554,11.4843532 C91.1111245,10.9887468 90.5688423,10.1845553 90.390419,9.30087979 C92.4870877,8.79358457 94.8128239,9.5081617 96.7856092,8.63773351 C97.5070939,8.31979734 98.1249528,7.81016436 98.711646,7.28416702 C99.8195847,6.29061649 100.852726,5.21446489 101.80094,4.06818032 C102.36348,3.38711117 102.913554,2.6663 103.668542,2.20887713 C104.585591,1.65326809 105.702879,1.54884787 106.774977,1.56443298 C110.024775,1.61430532 113.370407,2.75825213 115.522394,5.19498351 C116.248554,6.01709787 116.82356,6.9654516 117.277799,7.9628984 C119.096315,11.9596989 118.924904,16.6360101 117.693082,20.8502229 C116.462039,25.0644356 114.24694,28.9147362 112.030284,32.7034755 L108.926186,36.6987176 C108.952677,37.316667 108.763345,37.9237069 108.53194,38.4980181 C107.021965,42.2587043 106.558376,51.4118372 90.8921859,48.3626112 C75.2252166,45.3126059 81.7442902,32.8429622 83.742008,32.595159 C84.4533638,32.5071032 87.8379528,31.9624037 88.4947687,31.6771963 C89.2427442,31.3538053 89.8644988,30.7989755 90.4434006,30.2254436 C92.5985049,28.0972973 94.3788423,25.590433 95.6776706,22.8544676 L95.7181859,21.9591032 Z" id="Fill-4" fill="#A5453C"></path>
                            <path d="M94.7830607,15.7531918 C94.6046374,15.2942104 94.3958276,14.8492556 94.1488399,14.4245614 C94.0530055,14.2601386 93.8177049,14.1884471 93.6533061,14.2944258 C93.4881282,14.4011838 93.4211221,14.6146997 93.5231896,14.7900322 C93.6369442,14.9856253 93.7429074,15.1851146 93.8418583,15.3885003 C93.8893859,15.4866864 93.9345761,15.5856519 93.978208,15.6861758 C93.9859994,15.7025402 94.0008031,15.7633221 94.0156067,15.7718939 C93.9937908,15.7212423 93.9906742,15.7134497 94.0062571,15.7500747 C94.0093736,15.757088 94.0124902,15.7648806 94.0156067,15.7711146 C94.038981,15.8295588 94.0615761,15.8872237 94.0849503,15.9456678 C94.1192325,16.0360614 94.1636436,16.1108699 94.2509074,16.1615215 C94.3288215,16.2074976 94.4425761,16.2261997 94.5298399,16.1981465 C94.7012509,16.1428194 94.8563,15.9417715 94.7830607,15.7531918" id="Fill-6" fill="#000000"></path>
                            <path d="M100.162485,8.90423883 C100.165601,8.90345957 100.168718,8.90345957 100.171834,8.90268032 C100.13989,8.90735585 100.107945,8.91125213 100.075221,8.91592766 C100.081454,8.9151484 100.086129,8.9151484 100.092362,8.9151484 C100.060417,8.91125213 100.028472,8.9065766 99.9957485,8.90190106 C100.001202,8.90268032 100.006656,8.90345957 100.01211,8.90579734 L99.9248466,8.86917234 C99.932638,8.87228936 99.9388712,8.87540638 99.9451043,8.88086117 L99.871865,8.82319628 C99.8757607,8.82709255 99.8796564,8.83098883 99.882773,8.83488511 C99.8640736,8.81072819 99.8453742,8.78657128 99.8258957,8.76163511 C99.832908,8.77098617 99.838362,8.78111649 99.8430368,8.79124681 L99.8064172,8.70474947 C99.8126503,8.72111383 99.8157669,8.73591968 99.8188834,8.75228404 C99.8142086,8.72033457 99.8095337,8.68838511 99.805638,8.65643564 C99.8079755,8.68137181 99.8079755,8.70474947 99.8048589,8.72968564 C99.8087546,8.69773617 99.8134294,8.6657867 99.8181043,8.63383723 C99.8142086,8.65487713 99.8095337,8.67435851 99.8017423,8.69383989 C99.8142086,8.6657867 99.8258957,8.63695426 99.838362,8.60812181 C99.7970675,8.7024117 99.7409693,8.79046755 99.678638,8.87151011 C99.6965583,8.84735319 99.7160368,8.82319628 99.7347362,8.79826011 C99.6669509,8.88475745 99.589816,8.96190372 99.5025521,9.03047819 L99.5757914,8.97359255 C99.5274847,9.01177606 99.4768405,9.04684255 99.4207423,9.07255798 L99.507227,9.03593298 C99.4783988,9.04762181 99.4503497,9.05619362 99.419184,9.06008989 C99.4511288,9.05619362 99.4830736,9.05151809 99.5157975,9.04762181 C99.4970982,9.04995957 99.4791779,9.04995957 99.4604785,9.04762181 C99.4924233,9.05151809 99.5243681,9.05541436 99.5563129,9.06008989 C99.5391718,9.05697287 99.5243681,9.05229734 99.5080061,9.04684255 L99.5944908,9.0826883 C99.5796871,9.07645426 99.5648834,9.06788245 99.551638,9.05775213 C99.5765706,9.07723351 99.6007239,9.09593564 99.6256564,9.11463777 C99.6155276,9.10684521 99.6069571,9.0982734 99.5983865,9.08892234 L99.6560429,9.16217234 C99.6482515,9.15204202 99.6420184,9.14347021 99.6357853,9.13256064 L99.6724049,9.21905798 C99.6677301,9.20736915 99.6646135,9.19723883 99.6622761,9.18477074 C99.6661718,9.21672021 99.6708466,9.24866968 99.6755215,9.28061915 C99.6739632,9.26659255 99.6739632,9.25256596 99.6763006,9.23853936 C99.6716258,9.27048883 99.6669509,9.3024383 99.6630552,9.33438777 C99.6661718,9.31880266 99.6708466,9.30555532 99.6770798,9.28997021 L99.6404601,9.37646755 C99.6692883,9.31568564 99.7121411,9.26191702 99.7526564,9.20970691 C99.7339571,9.23386383 99.7152577,9.25802074 99.6957791,9.28217766 C99.8126503,9.13178138 99.9474417,8.99697021 100.096258,8.88008191 L100.023018,8.93696755 C100.087687,8.88709521 100.155472,8.84033989 100.225595,8.7967016 C100.04873,8.72501011 99.8710859,8.65253936 99.6926626,8.58006862 C99.6965583,8.59409521 99.6988957,8.6065633 99.7012331,8.62058989 C99.6973374,8.58864043 99.6926626,8.55669096 99.6887669,8.52474149 C99.6934417,8.56136649 99.6934417,8.59643298 99.689546,8.63305798 C99.6926626,8.60110851 99.6973374,8.56915904 99.7020123,8.53643032 C99.6957791,8.57305532 99.6872086,8.60812181 99.6724049,8.64240904 L99.7090245,8.5559117 C99.6957791,8.5855234 99.6801963,8.61201809 99.6607178,8.63851277 C99.6801963,8.61435585 99.6988957,8.58941968 99.7175951,8.56448351 C99.7035706,8.58318564 99.6887669,8.59955 99.6716258,8.61513511 C99.5329387,8.74527074 99.5298221,8.99852872 99.6716258,9.12788511 C99.8204417,9.26425479 100.036264,9.26659255 100.183521,9.12788511 C100.383761,8.94008457 100.456221,8.6502016 100.392331,8.38759255 C100.337012,8.16394628 100.054963,8.050175 99.8593988,8.17173883 C99.6599387,8.29486117 99.4721656,8.44447819 99.3124417,8.61747287 C99.2259571,8.71176277 99.1457055,8.81306596 99.0724663,8.91826543 C98.9524785,9.08736383 98.8971595,9.32114043 99.0163681,9.5081617 C99.1215521,9.67414309 99.3023129,9.7785633 99.5002147,9.77310851 C99.6591595,9.76921223 99.8048589,9.70219628 99.9295215,9.60868564 C100.135994,9.45439309 100.312859,9.2658133 100.433626,9.03671223 C100.46635,8.97359255 100.500632,8.90735585 100.514656,8.83722287 C100.535693,8.73280266 100.536472,8.64396755 100.513098,8.53954734 C100.495178,8.45616702 100.445313,8.37044894 100.383761,8.31122553 C100.334675,8.26369096 100.263773,8.22005266 100.196767,8.20524681 C100.115736,8.18576543 100.051067,8.19044096 99.9700368,8.20602606 C99.8851104,8.22161117 99.7955092,8.30031596 99.7534356,8.37200745 C99.7074663,8.44993298 99.6887669,8.56370426 99.716816,8.65176011 C99.744865,8.7390367 99.7994049,8.82319628 99.8835521,8.86761383 C99.9731534,8.91592766 100.061975,8.92294096 100.162485,8.90423883" id="Fill-8" fill="#000000"></path>
                            <path d="M102.903971,9.71014468 C103.193032,8.33709681 102.812032,6.89781223 101.880958,5.84815532 C101.751621,5.70165532 101.500737,5.71568191 101.368283,5.84815532 C101.223363,5.99309681 101.238167,6.21362606 101.368283,6.36012606 C102.119375,7.20639734 102.438044,8.40956755 102.20586,9.51688936 C102.165345,9.70858617 102.261958,9.90885479 102.459081,9.9626234 C102.638283,10.0124957 102.863455,9.90184149 102.903971,9.71014468" id="Fill-10" fill="#000000"></path>
                            <g id="Group-14" transform="translate(100.509202, 0.000000)">
                                <mask id="mask-2" fill="white">
                                    <use xlink:href="#path-1"></use>
                                </mask>
                                <g id="Clip-13"></g>
                                <path d="M19.0648816,2.32857074 C19.9569982,2.98002819 20.9644276,3.99929415 21.5955319,4.90478883 C22.3333785,5.96301755 22.7852804,7.1934617 23.1335564,8.43559468 C24.6949552,14.0088287 24.2399368,20.1244245 21.8705687,25.4054378 C21.3797098,26.5002915 20.8047037,27.5709883 20.5226546,28.7367543 C20.2398264,29.9032995 20.2842374,31.2132277 20.9644276,32.2028819 C21.4428202,32.8987569 22.1837834,33.3686479 22.7463233,34.0006239 C24.4923785,35.9612303 24.1783847,38.984741 23.4210595,41.4993979 C22.6637344,44.0132755 21.5557957,46.5910521 22.0606791,49.1672702 C22.330262,50.5449936 23.0455135,51.7933606 23.4389798,53.1399138 C24.2734399,55.9935468 23.528581,59.2562888 21.5386546,61.4654777 L19.4341945,62.2400574 C18.0683601,62.5759165 16.6370779,61.6937995 15.8898816,60.5015388 C15.1419061,59.3108367 14.9245258,57.8723314 14.7235074,56.4805814 C14.4811945,54.7997277 14.2388816,53.1188739 13.9957896,51.4380202 C13.8345074,50.3190096 13.6716669,49.1929856 13.3233908,48.1176133 C12.6751454,46.1133686 11.3732006,44.3265362 9.66454417,43.0937543 L9.02798589,42.5950309 C7.52580184,41.4425122 6.02439693,40.2915521 4.52221288,39.1390335 C3.21715153,38.1384697 1.86534172,37.0810202 1.16099816,35.5934218 C0.117728221,33.3912463 0.725458282,30.8033394 1.3020227,28.4351824 C2.00402883,25.5550548 2.63123742,22.656225 3.18364847,19.7433686 C4.85178957,20.2958606 6.79107178,19.9350654 8.14833558,18.8199511 C9.50482025,17.7040574 10.2356546,15.8712489 10.0174951,14.128834 C9.91542761,13.3152915 9.56247669,12.4604484 8.83320061,12.0856266 C8.42648896,11.8760069 7.95355031,11.8424989 7.49541534,11.8432782 C6.43734172,11.8448367 5.3792681,12.0069218 4.36950123,12.3232995 C3.54594908,8.84236596 3.43531104,4.63750426 4.58376503,1.25008138 C4.58376503,1.25008138 13.3537773,-1.49601436 19.0648816,2.32857074" id="Fill-12" fill="#000000" mask="url(#mask-2)"></path>
                            </g>
                            <path d="M26.9878896,279.368253 C26.1900491,283.11803 25.3922086,286.868585 24.5943681,290.619141 C24.444773,291.320471 24.267908,292.072452 23.7334172,292.552474 C23.2004847,293.031716 22.1868221,293.024702 21.8969816,292.36779 C22.1439693,291.19579 22.3652454,290.018335 22.5608098,288.836205 C21.214454,289.341162 19.8579693,289.820405 18.4936933,290.27549 C17.5384663,290.593426 16.5637607,290.902011 15.5578896,290.93396 C14.4795583,290.968248 13.4199264,290.68304 12.3805521,290.393157 C8.86740491,289.414412 5.37607362,288.360859 1.90811656,287.234056 C1.38765031,287.064178 0.829785276,286.865468 0.525141104,286.411942 C2.42780368,285.403585 4.57044172,284.964865 6.67723926,284.522248 C8.78403681,284.081189 10.9243374,283.611298 12.7981718,282.553069 C14.6727853,281.494841 16.2739202,279.740737 16.6198589,277.615708 L26.9878896,279.368253 Z" id="Fill-15" fill="#000000"></path>
                            <path d="M84.0759479,281.641341 C85.1098681,284.240936 86.2809172,287.009631 88.6417147,288.509697 C89.4995491,289.055176 90.4680215,289.397269 91.4388313,289.696503 C92.9737393,290.169511 94.5382546,290.54745 96.119911,290.824865 C96.6699847,290.921492 97.2488865,291.01812 97.6844264,291.367226 C98.1191871,291.717112 98.3311135,292.414545 97.9719294,292.841577 C92.2203098,292.977947 86.4632362,292.885216 80.7201871,292.562604 C80.3968436,292.544681 80.0555798,292.518966 79.7906718,292.332724 C79.499273,292.126221 79.3644816,291.769322 79.2203405,291.442814 C78.7551933,290.386144 78.0329294,289.443245 77.1353589,288.716979 C76.7068313,289.896772 76.2783037,291.075006 75.8497761,292.254019 C75.7913405,292.415325 75.7266718,292.585982 75.5911012,292.69274 C75.4267025,292.822096 75.1999724,292.825992 74.9911626,292.821317 C74.469138,292.810407 73.9471135,292.784692 73.4258681,292.742612 C73.1983589,292.724689 72.9544877,292.696636 72.7822975,292.54546 C72.4870031,292.286748 72.5501135,291.819974 72.6381564,291.43658 C73.4048313,288.113835 74.1699479,284.789532 74.9358436,281.465229 L84.0759479,281.641341 Z" id="Fill-17" fill="#000000"></path>
                            <path d="M105.837904,281.050042 C108.625671,229.286449 110.998935,178.565499 109.520904,127.725324 L109.397021,120.436169 C109.909696,112.813494 109.573107,105.134712 108.395825,97.5868449 C107.691481,93.0679434 106.589775,88.3947492 103.618131,84.917712 C103.618131,84.917712 77.7389595,80.5188157 72.6145485,80.6699912 C67.4909166,80.8211668 64.3268245,87.1510577 63.8749227,88.6573582 C63.4230209,90.1652173 53.7788123,123.02018 53.7788123,123.02018 C53.7788123,123.02018 32.2293276,197.924539 31.9285791,198.98043 C31.6270515,200.034762 11.5462479,276.58413 11.5462479,276.58413 L40.5645791,283.770422 C40.5645791,283.770422 49.5597632,246.755794 50.011665,244.645571 C50.4635669,242.536127 61.916162,196.418239 63.8749227,190.088348 C65.8336834,183.757677 80.0935239,136.643901 80.0935239,136.643901 C79.3385362,185.474377 74.7369288,234.188744 69.7231558,283.948872 L105.837904,281.050042 Z" id="Fill-19" fill="#42BC56"></path>
                            <path d="M68.8043926,62.653842 C68.6080491,63.1439936 67.823454,80.9951745 67.823454,80.9951745 L109.993687,83.8394564 L111.857393,63.340366 L68.8043926,62.653842 Z" id="Fill-21" fill="#09299C"></path>
                            <path d="M100.329143,81.7562731 C95.7992166,83.3919301 90.130965,84.8982306 85.4561184,85.6276136 C83.1038914,85.9938636 80.7423147,86.2440045 78.3838546,86.4933662 C72.7701429,87.087938 67.1556521,87.6817306 61.5419405,88.2755231 C59.8247135,88.4570896 58.0248975,88.6254088 56.4821982,87.8882332 C53.6437871,86.5307705 52.682327,82.6609886 52.4914374,79.1878476 C52.3262595,76.1838184 52.301327,72.0522066 52.8155601,69.0520737 C52.8155601,69.0520737 55.0579282,68.3593157 61.9167074,68.0382625 C68.7754865,67.7187678 70.473235,68.3242492 70.473235,68.3242492 C70.6173761,70.2264114 70.9352656,72.5836588 71.0801859,74.485821 C71.0965479,74.7110258 71.1183638,74.9486987 71.2367933,75.1263689 C71.4050877,75.3765098 71.7151859,75.4404088 71.9995724,75.4871641 C80.7391982,76.9381375 100.329143,81.7562731 100.329143,81.7562731" id="Fill-23" fill="#A5453C"></path>
                            <path d="M100.666979,81.6314364 C105.13769,78.7902715 110.497402,79.1440535 115.484684,79.5858912 C116.929212,79.7136891 118.373739,79.8422662 119.818267,79.9700641 L121.773911,80.1866971 C121.490304,82.2610747 121.868187,84.4538992 121.050089,86.3794391 C119.999807,88.8527955 117.373322,89.989729 114.982138,90.5445588 C107.84988,92.1981386 100.607764,90.9653566 93.557316,89.7286785 C88.0589172,88.7639604 81.4463466,87.5514391 75.9479479,86.586721 C75.9479479,86.586721 87.0195429,85.7061625 91.8143773,84.3183088 C96.6092117,82.9304551 100.666979,81.6314364 100.666979,81.6314364" id="Fill-25" fill="#A5453C"></path>
                            <path d="M77.7066252,76.4392582 C76.0345883,74.7724311 74.0734902,72.5749311 71.813981,72.1447822 C68.7831221,71.5689125 65.6307172,73.5240641 63.4335393,76.0940481 C67.0175883,76.3480854 70.7418828,75.1441359 74.2300975,75.8789737 C74.3493061,75.9039098 74.4692939,75.931963 74.5877233,75.962354 L77.7066252,76.4392582 Z" id="Fill-27" fill="#A5453C"></path>
                            <path d="M77.7172994,86.7103109 C81.5234037,86.2201593 85.3069129,85.5757152 89.0615939,84.778537 C92.8793853,83.9665529 96.6496491,82.9605343 100.426925,81.9817896 C100.897526,81.8586673 100.698066,81.1300636 100.226686,81.2524066 C96.5101828,82.2163455 92.8014712,83.206779 89.0467902,84.009412 C85.2983423,84.8112657 81.5187288,85.4642816 77.7172994,85.9544332 C77.2420233,86.0152152 77.2357902,86.7726513 77.7172994,86.7103109" id="Fill-29" fill="#000000"></path>
                            <path d="M77.9645988,76.1934032 C75.2921448,76.0336559 72.6126785,76.1770388 69.970611,76.611084 C68.6219178,76.8323926 67.2849117,77.1324059 65.9689423,77.5041106 C64.6599853,77.8726984 63.3611571,78.3184324 61.9937644,78.402592 C62.1160896,78.5631186 62.2384147,78.7236452 62.3607399,78.8841718 C62.4363166,78.6005229 62.565654,78.359733 62.8048503,78.1820628 C63.0978074,77.963092 63.0152184,77.4861878 62.6131816,77.4729404 C62.2524393,77.4612516 61.8924761,77.4487835 61.5317337,77.4378739 C61.4569362,77.4347569 60.5570282,77.4269644 60.5710528,77.4573553 C60.583519,77.5547622 60.5959853,77.6521691 60.6092307,77.7503553 C60.6544209,77.5976213 60.931016,77.3895601 61.0393166,77.2734511 C61.1935865,77.1098074 61.3486356,76.9477223 61.5068012,76.7887543 C61.781838,76.5105601 62.0654454,76.2401585 62.356065,75.9783287 C63.0082061,75.3892117 63.697746,74.8452915 64.4316969,74.3613739 C65.9073902,73.388084 67.5583902,72.6509085 69.2818503,72.252709 C69.7594638,72.142834 69.5568871,71.4087755 69.0800528,71.5194298 C66.6093963,72.0898447 64.321838,73.3288606 62.3841141,74.9481532 C61.9127337,75.3408979 61.461611,75.7570202 61.0284086,76.1910654 C60.8094699,76.4092569 60.5959853,76.6321239 60.3863963,76.8588872 C60.2266724,77.0326612 59.9781264,77.2368261 59.898654,77.4706027 C59.7630834,77.8695814 60.0856479,78.1282941 60.4502859,78.1618021 C61.1647583,78.2280388 61.8963718,78.210116 62.6131816,78.2334936 C62.549292,77.9966 62.4854025,77.7612649 62.4215129,77.5251505 C62.0171387,77.8251638 61.7576847,78.1921931 61.6275681,78.6815654 C61.5667951,78.9083287 61.7436601,79.1787303 61.9937644,79.1639245 C63.3089546,79.0821027 64.5610344,78.7033846 65.8185681,78.3386931 C67.1314209,77.9584165 68.4614147,77.6420388 69.8069914,77.407483 C72.4973656,76.9352543 75.238384,76.791092 77.9645988,76.9539564 C78.4538994,76.9835681 78.4523411,76.2222356 77.9645988,76.1934032" id="Fill-31" fill="#822420"></path>
                            <path d="M95.487638,22.519154 C96.7747791,23.3552949 98.3166994,23.770638 99.8500491,23.694271 C100.310521,23.6716726 100.313638,22.9516407 99.8500491,22.9742391 C98.4327914,23.0451513 97.0404663,22.6703295 95.8514969,21.8973082 C95.4619264,21.6440503 95.1004049,22.2674545 95.487638,22.519154" id="Fill-33" fill="#000000"></path>
                            <g id="Group-37" transform="translate(46.748466, 31.949468)" fill="#09299C">
                                <path d="M56.6652963,48.252892 C63.7882043,47.4268814 73.6038239,47.9209293 80.1478301,50.6304 L79.8346153,48.5755037 C79.5097135,42.2947059 78.7983577,36.0630011 77.706781,29.9380543 C77.0125663,26.0441154 76.1352534,22.1151101 74.211554,18.8360037 C71.1877074,13.6859053 65.9916153,10.7636979 61.4679221,7.21029362 L60.4768546,6.60403298 C59.9797626,10.1636713 56.1019773,15.7532697 44.5504313,13.7669479 C32.9981061,11.7798468 37.9986337,0.113615426 37.9986337,0.113615426 C32.7776092,0.97858883 24.4820939,3.53220851 19.7137503,6.24557553 C17.7347319,7.37159947 15.8063577,8.65659149 14.1288669,10.2969239 C10.700646,13.6508388 8.53463374,18.2632511 6.60859693,22.8172191 C4.57348037,27.6291207 2.70743742,32.5212856 1.01825951,37.475791 L0.622455828,38.650908 C8.14740061,37.5116367 16.3151368,36.8212165 23.8618975,36.4876952 L43.0178607,38.4108973 L59.2021798,41.504541 L56.6652963,48.252892 Z" id="Fill-35"></path>
                            </g>
                            <path d="M72.8895074,56.2425189 L71.6662558,68.1207077 C71.6156117,68.6077423 72.3768325,68.603846 72.4266975,68.1207077 C72.8349675,64.1613114 73.2416791,60.2019152 73.6499491,56.2425189 C73.6998141,55.7554843 72.9385933,55.7593806 72.8895074,56.2425189" id="Fill-38" fill="#4A6EE3"></path>
                            <path d="M106.320271,64.6324492 C105.082215,69.5105875 103.704694,74.3513215 102.186927,79.1491965 C102.039669,79.6167497 102.77362,79.8170184 102.920878,79.3518029 C104.437866,74.5531487 105.816166,69.7124146 107.053442,64.8350556 C107.174209,64.3597098 106.440258,64.1578827 106.320271,64.6324492" id="Fill-40" fill="#4A6EE3"></path>
                        </g>
                    </g>
                    <g id="Group-154">
                        <path d="M74.5990228,310 C74.7202902,311.607379 74.6808245,313.224015 74.483496,314.824782 C64.8983545,314.471039 55.2967092,314.529225 45.7180257,315 L45.6677966,313.622719 C49.8576185,312.709601 53.9950587,311.59151 58.0571553,310.275721 L74.5990228,310 Z" id="Fill-106" fill="#000000"></path>
                        <path d="M112.206548,312.676924 C114.919861,312.480588 117.633174,312.283629 120.347211,312.08667 C121.301869,312.016862 122.265218,311.9483 123.214805,312.056129 C127.299986,312.519856 130.586962,316.146771 134.659105,315.60451 C134.662002,316.010895 134.664899,316.416032 134.667797,316.821793 C126.857424,317.012519 119.041982,317.05054 111.229436,316.933985 C110.974475,316.930245 110.697784,316.919649 110.501492,316.780033 C110.298682,316.636053 110.237114,316.395464 110.188585,316.17295 C110.015472,315.385736 109.84091,314.598523 109.667797,313.811309 L112.206548,312.676924 Z" id="Fill-108" fill="#000000"></path>
                        <path d="M48.6677966,105.465957 C50.7984595,106.353459 52.6981213,107.778862 54.1372155,109.570209 C54.2864336,109.756378 54.4356518,109.957469 54.4679346,110.193378 C54.5045217,110.462684 54.3811298,110.725595 54.2606074,110.970742 C53.8854099,111.731051 53.5109297,112.492782 53.1364496,113.253803 C52.819361,113.897579 52.4965333,114.633729 52.7504911,115.304507 C52.9571009,115.848093 53.4908427,116.192009 53.9937365,116.491869 C55.5626792,117.426979 57.3812753,118.349299 59.1467843,117.868243 C60.6203134,117.467482 61.6870797,116.138716 62.1756256,114.704786 C62.6641716,113.270856 62.6684759,111.726788 62.6677966,110.213274 C62.6670411,109.482808 62.6670411,108.753053 62.6670411,108.023298 C62.6663237,107.426419 62.661302,106.806802 62.4030398,106.266769 C62.183517,105.80632 61.7997107,105.446772 61.4223609,105.100014 C58.9530876,102.831164 55.2986779,100.111814 52.6902299,98 L48.6677966,105.465957 Z" id="Fill-110" fill="#F4ABBA"></path>
                        <path d="M132.724469,188.832161 C132.590365,188.863399 132.401171,191.087078 132.688949,191.965363 C135.194143,192.045999 137.703687,191.985704 140.202357,191.785928 C140.52203,191.760502 140.877947,191.714736 141.080914,191.466288 C141.209943,191.3101 141.251262,191.101608 141.288231,190.903285 C141.548463,189.524473 141.808696,188.111517 141.579633,186.72762 C141.35057,185.342996 140.528554,183.971449 139.215067,183.48545 C138.811307,183.336527 138.351732,183.258796 138.062503,182.939882 C137.801546,182.650753 137.748629,182.235221 137.707311,181.847293 C137.244111,177.498732 136.830203,171.349288 136.367003,167 L128.085221,169.18881 C128.571617,173.246063 129.031917,178.624738 129.092807,182.711049 C129.095707,182.898474 129.093532,183.098976 128.985525,183.250805 C128.794881,183.519594 128.400545,183.494168 128.085221,183.584248 C127.469795,183.760777 127.117502,184.426936 127.034866,185.062585 C126.953679,185.698233 126.771734,186.347684 126.742013,186.987691 C126.70287,187.825294 126.587613,188.666529 126.759411,189.487424 C126.724616,191.136477 127.7467,190.858971 128.300511,190.667914 C128.393296,190.63595 127.711906,187.855805 129.830013,187.619707 C132.430891,187.285538 133.286253,187.564497 132.724469,188.832161" id="Fill-112" fill="#F4ABBA"></path>
                        <path d="M116.667797,251.222287 L157.975228,253.99155 C160.095156,254.133418 161.910436,252.471435 161.983272,250.320716 L163.665487,200.946397 C163.739023,198.802772 162.047002,197.028003 159.928475,197.021619 C157.075992,197.012398 154.415402,196.527209 151.420049,196.452728 C140.323868,196.179632 128.265421,195.927107 118.09789,195 L116.667797,251.222287 Z" id="Fill-114" fill="#5684E8"></path>
                        <path d="M155.334146,253.800329 L158.091853,253.991475 C160.167679,254.134656 161.945783,252.45658 162.017126,250.28668 L163.665577,200.454855 C163.73692,198.291397 162.079552,196.500209 160.005098,196.493766 C159.526272,196.492335 159.05362,196.476585 158.583713,196.451528 L158.240028,196.394256 C155.81846,196.261098 154.792894,196.181633 152.476283,196.009816 C150.405945,195.856613 148.627155,197.515359 148.545522,199.679532 L146.670692,249.502051 C146.589059,251.671235 148.243683,253.481753 150.323625,253.498218 L155.334146,253.800329 Z" id="Fill-116" fill="#376FD1"></path>
                        <path d="M134.19524,196 C134.115423,193.921698 133.950757,191.967793 133.968014,190.009134 C133.970171,189.754794 134.005406,189.443405 134.220408,189.350702 C134.306696,189.314254 134.405208,189.32297 134.490059,189.281768 C134.68996,189.184311 134.70506,188.867376 134.615177,188.647106 C134.526012,188.426836 134.367098,188.240637 134.314606,188.006105 C133.444532,187.987088 132.573019,188.012443 131.705103,188.082961 C131.213259,188.123371 130.691934,188.189927 130.302917,188.523501 C129.928282,188.846775 129.738448,189.372887 129.685956,189.892661 C129.634183,190.413227 129.703932,190.936962 129.76002,191.456735 C129.918934,192.918599 129.970707,194.395516 129.916058,195.866095 L134.19524,196 Z" id="Fill-118" fill="#000000"></path>
                        <path d="M140.381133,192 C140.589025,192.920437 140.684254,193.862939 140.665476,194.803549 C140.664806,194.836332 140.662794,194.872897 140.63731,194.894962 C140.61585,194.913245 140.58366,194.916397 140.554153,194.918288 C139.825858,194.962419 139.095551,194.989528 138.365914,194.999615 C138.291475,195.000876 138.213683,195.000876 138.146621,194.969354 C138.063464,194.929006 138.014508,194.846419 137.977624,194.765723 C137.846853,194.480766 137.806615,194.167439 137.76839,193.858525 C137.702669,193.321394 137.734188,192.926741 137.667797,192.388979 L140.381133,192 Z" id="Fill-120" fill="#000000"></path>
                        <path d="M112.194061,118.113557 C112.887546,134.188155 114.256735,151.970631 115.800184,167.98641 C118.208534,192.980238 120.617595,217.973357 123.025945,242.967185 C125.368858,267.284949 127.185434,288.696486 130.667797,312.878895 L108.156909,314 C102.15595,263.363209 96.5476105,211.519565 90.5459401,160.882774 L90.1910179,158.311037 C89.0487232,158.311037 87.5579077,158.452769 86.415613,158.452769 L84.7590723,158.441431 C83.6317142,183.263762 81.3328995,207.31436 80.2055414,232.135983 C78.9885637,258.938318 77.2047062,284.095848 77.2047062,311.383617 L54.6931077,310.448891 C54.4391854,286.020576 56.1583176,258.880917 57.0509576,234.466775 C57.9677807,209.375151 58.885315,184.282819 59.8021381,159.191196 C60.3896446,143.112346 60.9778624,127.024992 62.4167554,111 L112.194061,118.113557 Z" id="Fill-122" fill="#052175"></path>
                        <path d="M101.738514,37 C102.048945,33.1641294 102.388568,29.2167011 104.117299,25.7820093 C104.696153,24.6313912 105.421679,23.5615809 106.084549,22.45673 C108.281063,18.7917716 109.799042,14.7177681 110.534536,10.5043174 C110.656999,9.80636633 110.755967,9.07408977 110.543792,8.3983072 C110.208441,7.32849691 109.189572,6.64699343 108.224815,6.08133839 C106.368636,4.99150491 104.351546,3.97818861 102.200601,4.00035714 C101.764858,4.00536293 101.323419,4.0554209 100.918293,4.2156064 C100.388566,4.42584987 99.9499755,4.81272645 99.5163688,5.18387053 C96.6242335,7.65959461 93.4131231,9.75845371 89.9884134,11.412512 C89.2016557,11.7922374 88.2475786,12.5223687 88.6057135,13.3218659 C88.9745284,14.1449619 90.4611799,14.0934738 90.6099875,14.9845056 C90.6811873,15.4099983 90.3750282,15.7947296 90.103757,16.1294028 C89.0507122,17.4301949 88.2447306,18.9326491 87.7434841,20.5323587 C87.6907962,20.7018407 87.6402444,20.8827645 87.6851003,21.0543918 C87.7520281,21.3175537 88.0140433,21.4741636 88.2468666,21.6128957 C89.0179603,22.073429 89.7228382,22.6455201 90.3337323,23.3062852 C90.7538111,23.7596674 91.1418499,24.2831307 91.2500736,24.8938379 C91.3476173,25.4480512 91.2059297,26.0129911 91.0613941,26.5564776 C90.2020127,29.7809259 89.2052157,32.9696184 88.0766991,36.1103984 L101.738514,37 Z" id="Fill-124" fill="#F4ABBA"></path>
                        <path d="M91.9246809,16.6395814 C92.3661544,16.7232983 92.7994524,16.8385806 93.2208588,16.984742 C93.3955158,17.045128 93.6169957,16.917494 93.6571297,16.7562361 C93.7032094,16.5695886 93.5961856,16.4179375 93.409637,16.3534343 C92.9882306,16.2072729 92.5549326,16.0919906 92.1134591,16.0075875 C91.9321131,15.9732773 91.7217815,16.056308 91.6771883,16.2367797 C91.6363111,16.4000962 91.7307002,16.6018402 91.9246809,16.6395814" id="Fill-126" fill="#000000"></path>
                        <path d="M96.6177566,10.2659331 C96.62069,10.1426262 96.5238882,10.0306945 96.3938414,10.0074891 C96.2965507,9.98974387 96.1904599,10.0029391 96.1053916,10.0534449 C95.9689891,10.1339811 95.8526314,10.2522829 95.7700077,10.3810499 C95.7167178,10.4643162 95.6766282,10.5534976 95.6688058,10.6508691 C95.658539,10.770991 95.7274736,10.8920228 95.8360089,10.9557238 C95.888321,10.9857543 95.9513888,11.0016795 96.012501,10.9998595 C96.1014804,10.9966745 96.1757929,10.9593639 96.2413052,10.9061281 C96.290195,10.8674525 96.3337069,10.8219517 96.3742855,10.775541 C96.4324643,10.71002 96.4872209,10.641769 96.5341551,10.5685128 C96.5830448,10.4925267 96.6211789,10.4119904 96.6568684,10.3305441 C96.6842467,10.2682082 96.6563795,10.190402 96.6153121,10.1412612 C96.5683779,10.0848403 96.5077546,10.060725 96.4319754,10.0552649 C96.3444627,10.0493498 96.2593945,10.0730102 96.1816597,10.1085007 C96.1049027,10.1435362 96.0437905,10.2040522 95.9968563,10.2695732 C95.964589,10.3146189 95.9582334,10.3856 95.9738781,10.4370158 C95.988545,10.4870666 96.0305903,10.5416674 96.0804578,10.5666928 C96.1977933,10.6240237 96.3278402,10.5898982 96.400197,10.4884316 C96.4031304,10.4838815 96.4060638,10.4797865 96.4094861,10.4756914 C96.3977525,10.4902516 96.3850412,10.5048118 96.3733077,10.5198271 C96.3869968,10.5029918 96.4031304,10.4875216 96.4212196,10.4747814 C96.405086,10.4857015 96.3894413,10.4970767 96.3737966,10.5084519 C96.3923747,10.4957117 96.4119306,10.4852465 96.4329532,10.4770564 C96.4143751,10.4838815 96.395797,10.4916166 96.3772188,10.4988967 C96.3987303,10.4907066 96.4202419,10.4852465 96.4432201,10.4829715 C96.4226863,10.4847915 96.4021526,10.4875216 96.38113,10.4902516 C96.3982414,10.4884316 96.414864,10.4884316 96.4319754,10.4893416 L96.2070824,10.2149724 C96.2036601,10.2231625 96.2002378,10.2318076 96.1963266,10.2395427 C96.2036601,10.2227075 96.2119714,10.2054172 96.2197937,10.1881269 C96.1709039,10.2941436 96.1078361,10.3928801 96.0325458,10.4838815 C96.0442794,10.4693213 96.0569907,10.4547611 96.0687243,10.4402008 C96.0198345,10.4988967 95.9665446,10.5585027 95.9044546,10.6049134 C95.9200993,10.5935382 95.9357441,10.582163 95.9518777,10.5707879 C95.9416108,10.578068 95.9318329,10.5835281 95.9205882,10.5885331 C95.9391664,10.581253 95.9577445,10.5739729 95.9763226,10.5666928 C95.9675224,10.5698778 95.9597001,10.5721529 95.950411,10.5735179 C95.9709447,10.5707879 95.9919673,10.5680578 96.012501,10.5657828 C96.0041898,10.5662378 95.9968563,10.5657828 95.9890339,10.5648728 C96.0100565,10.5676028 96.0305903,10.5703329 96.051124,10.5726079 C96.046235,10.5721529 96.0408571,10.5707879 96.036457,10.5689678 C96.0550351,10.5762479 96.0736133,10.5835281 96.0921914,10.5908082 C96.0824134,10.5867131 96.0741022,10.582163 96.065302,10.576703 C96.0809467,10.5876231 96.0970804,10.5989983 96.1127251,10.6103735 C96.1044138,10.6035484 96.0975693,10.5971783 96.0907247,10.5889881 C96.1024582,10.6035484 96.1151696,10.6181086 96.1269031,10.6331238 C96.1205475,10.6244787 96.1161474,10.6162886 96.1112584,10.6067334 C96.1190808,10.6240237 96.1269031,10.6408589 96.1352144,10.6581492 C96.1308143,10.6481391 96.1283698,10.6381289 96.1264142,10.6272087 C96.1293476,10.646319 96.132281,10.6658843 96.1352144,10.6849946 C96.1342366,10.6717994 96.1342366,10.6590592 96.1357033,10.645864 C96.1327699,10.6654293 96.1298365,10.6845396 96.127392,10.7036499 C96.1313032,10.6804446 96.1386367,10.6590592 96.1474368,10.6367639 C96.1396145,10.6545092 96.1317921,10.6717994 96.1239697,10.6890897 C96.151348,10.6285738 96.1880154,10.5721529 96.2310384,10.5202821 C96.2193048,10.5348423 96.2065935,10.5494025 96.1948599,10.5639628 C96.2393496,10.5111819 96.290195,10.4634062 96.3473961,10.4220006 C96.3317513,10.4329207 96.3161066,10.4447509 96.3004619,10.4556711 C96.3214845,10.4406558 96.3420182,10.4256406 96.3664631,10.4156305 C96.347885,10.4233656 96.3293068,10.4301907 96.3107287,10.4374708 C96.3253957,10.4324657 96.3405515,10.4283707 96.3561962,10.4265506 C96.3351736,10.4288257 96.3146399,10.4315557 96.2941062,10.4342857 C96.3063286,10.4329207 96.31904,10.4324657 96.3317513,10.4338307 C96.3112176,10.4311007 96.290195,10.4283707 96.2696613,10.4260956 C96.2774837,10.4270056 96.2843282,10.4283707 96.2916617,10.4306457 C96.2730836,10.4238206 96.2545055,10.4160855 96.2359274,10.4088054 C96.2408163,10.4106254 96.2447275,10.4129004 96.2491276,10.4156305 C96.2334829,10.4047103 96.218327,10.3928801 96.2021934,10.3819599 C96.2061046,10.385145 96.209038,10.387875 96.2124603,10.3910601 C96.2002378,10.3764999 96.1880154,10.3619396 96.1757929,10.3473794 C96.1777485,10.3501094 96.1792152,10.3523845 96.180193,10.3551145 C96.1723706,10.3378243 96.1645483,10.320989 96.1572148,10.3036987 C96.1581926,10.3064288 96.1591704,10.3096138 96.1596593,10.3132539 C96.1567259,10.2936886 96.1537925,10.2745783 96.1508591,10.255468 C96.1518369,10.258653 96.1518369,10.2622931 96.151348,10.2659331 C96.1489035,10.3792299 96.2608611,10.4879766 96.3845523,10.4829715 C96.5131324,10.4775114 96.6153121,10.387875 96.6177566,10.2659331" id="Fill-128" fill="#000000"></path>
                        <path d="M96.7972058,9.54418268 C97.544886,10.0020358 98.0457062,10.8384628 98.1614901,11.7861265 C98.1806054,11.9434559 98.3586505,12.0294954 98.4820806,11.9907776 C98.632272,11.9446851 98.683064,11.7879702 98.6639488,11.6306408 C98.5317803,10.5477721 97.9113531,9.55893232 97.0599042,9.03839327 C96.7649829,8.8577103 96.5017382,9.36349971 96.7972058,9.54418268" id="Fill-130" fill="#000000"></path>
                        <path d="M100.356808,3.95339158 C99.6924996,5.5687031 99.3771987,7.33111954 99.4418038,9.08074424 C99.4460172,9.203687 99.4544439,9.33302563 99.519049,9.43820209 C99.5913786,9.55759159 99.7240999,9.62439286 99.8526079,9.6784024 C100.106113,9.78286821 100.371555,9.85890795 100.641211,9.90367902 C100.736012,9.91931336 100.83924,9.92997313 100.925614,9.88591272 C101.042184,9.82550732 101.089233,9.68550892 101.146114,9.56611942 C101.309031,9.22500656 101.634866,8.96846126 102.002131,8.89171087 C102.724725,8.74105269 103.357434,9.37708604 103.754193,9.92002401 C104.170615,10.4885454 104.374262,11.226202 104.248563,11.928326 C104.000676,13.3133863 102.610262,14.3594657 101.243022,14.2862686 C100.832218,14.2642384 100.372257,14.1704324 100.044316,14.4305309 C99.8512034,14.5840317 99.7535935,14.8284959 99.6651127,15.0608791 C98.9010873,17.0727343 98.2416941,19.1250966 97.6904442,21.2058851 C97.4341306,22.1766354 97.233293,23.1573349 97.0029619,24.1323491 C96.7761418,25.0924397 96.4587342,26.0809563 96.8590049,27.0467321 C97.2115239,27.9023569 98.0598168,28.4666144 98.94603,28.7032615 C99.5028977,28.8524983 100.019738,28.8091486 100.575202,28.8290468 C101.279538,28.8539196 101.970531,29.0088417 102.681889,28.9996032 C103.341985,28.9910754 104.177637,28.9427511 104.772425,28.6194045 C105.291373,28.3379864 105.699368,27.7822567 106.085594,27.3309928 C110.152203,22.5703365 113.459703,18.6205339 115.173142,12.5657806 C115.704027,10.6882386 115.965256,8.59679038 115.134519,6.8585361 C113.938623,4.35277789 111.122684,3.55542658 108.720358,2.77157766 C108.28638,2.63015795 107.852403,2.48802759 107.428958,2.31747116 C105.579287,1.56986548 103.909386,0.255159671 101.9291,0.0291724024 C101.144007,-0.060369723 100.303439,0.04409609 99.663006,0.512415619 C99.022573,0.980024497 98.648987,1.87047119 98.936901,2.61523426 C99.1763612,3.23705458 99.7865983,3.61725329 100.356808,3.95339158" id="Fill-132" fill="#000000"></path>
                        <path d="M105.667797,43 C105.03108,40.235088 104.436763,36.850282 103.800047,34.08537 L89.116832,34 C89.116832,34 84.3966527,39.6897966 82.6677966,41.8248163 L105.667797,43 Z" id="Fill-134" fill="#FFFFFF"></path>
                        <path d="M106.490475,44.4160891 C110.943978,47.7188277 114.144688,50.7145992 118.581809,54.0400761 C126.097852,59.6734908 130.520729,67.1806839 132.410245,76.4039083 C134.196489,85.1297323 133.533413,94.5597331 133.798358,103.448989 C134.452175,125.355923 135.178638,147.12998 138.667797,168.818769 L125.033797,172 C122.207002,150.66934 119.86309,128.702717 116.921628,107.386979 L116.214395,101.215661 C116.163827,101.772039 116.054146,102.321311 115.943752,102.869873 C115.263583,106.266407 114.583414,109.662941 113.903246,113.059475 C112.124124,121.944467 104.489141,119.00412 97.9787514,117.856546 C91.8565208,116.777187 85.6580828,116.185281 79.4553716,115.81152 C74.0090364,115.483236 68.487206,115.191901 63.2801763,113.416182 C62.4198163,113.122716 61.4974933,112.728348 61.0872554,111.918296 C60.8166123,111.386078 60.8173246,110.762196 60.8244467,110.166026 C60.9576316,98.2632343 61.0908165,86.360443 61.2240013,74.4576516 L61.1335496,73.3889513 C48.8335354,76.110442 38.0241946,78.2748443 25.6821595,80.7980854 L26.9057509,81.346647 C35.649658,86.4862142 44.2717756,91.8062667 52.7649817,97.3018304 L47.9859953,107.386979 C34.2337675,101.048677 20.4359577,94.6862149 7.59608187,86.6034586 C5.84544869,85.5013614 4.08840555,84.3459714 2.73234145,82.7734756 C0.593549171,80.2914476 -0.231199899,76.5701821 1.95673546,73.8451385 C2.90398612,72.6648785 4.19167724,71.8086392 5.49147608,71.0312735 C10.8081875,67.852885 16.8834116,65.6629021 22.5996776,63.3116194 C32.3577839,59.2954665 42.2967936,55.7411855 52.2137246,52.1392961 C61.4668679,48.7797117 70.7192989,45.4052053 79.8264374,41.6640438 L80.9296639,41.2853089 C87.7812063,40.3530385 103.370958,41.9596418 103.685759,42.4783593 L106.490475,44.4160891 Z" id="Fill-136" fill="#42BC56"></path>
                        <path d="M84.0039607,158.930994 C88.7796079,159.046459 93.5574451,159.017373 98.3316323,158.84109 C98.7791211,158.825224 98.7805811,157.984356 98.3316323,158.000222 C93.5574451,158.176504 88.7796079,158.205591 84.0039607,158.090126 C83.5557419,158.078667 83.5557419,158.919536 84.0039607,158.930994" id="Fill-138" fill="#000000"></path>
                        <path d="M119.990635,75.3294784 C119.560961,82.4696925 118.795205,89.5883545 117.685567,96.6531362 C117.37572,98.6301831 117.037511,100.602201 116.674486,102.570627 C116.595074,103.001669 117.247385,103.186299 117.326796,102.752383 C118.62291,95.718493 119.589322,88.6228199 120.212563,81.4948187 C120.392657,79.4423394 120.542972,77.3869865 120.667053,75.3294784 C120.693287,74.8890969 120.016869,74.8912521 119.990635,75.3294784" id="Fill-140" fill="#000000"></path>
                        <path d="M62.5453833,73.4789444 C60.3176893,71.9170853 57.8015328,70.7397043 55.09894,70.0146504 C54.6666132,69.8982427 54.4816449,70.5102148 54.9139716,70.6266225 C57.4917842,71.318417 59.9220626,72.4359312 62.0499324,73.9279457 C62.4022531,74.1747301 62.9013739,73.7283896 62.5453833,73.4789444" id="Fill-142" fill="#000000"></path>
                        <path d="M26.4153883,80.436475 C22.331859,79.6907792 18.1813263,79.2107565 14.0057593,79.0006333 C13.5544064,78.9782926 13.555879,79.5543199 14.0057593,79.5766606 C18.119477,79.7837648 22.2052151,80.2571457 26.2291039,80.991973 C26.6694124,81.0728825 26.8579056,80.5173845 26.4153883,80.436475" id="Fill-144" fill="#000000"></path>
                        <path d="M100.997552,71.2420889 C98.7241504,78.6419108 94.7531433,85.4641679 89.4993592,91.0402541 C88.0229954,92.6068896 86.4466475,94.0708308 84.7844974,95.4269792 C84.4434162,95.7052009 84.9256099,96.1939096 85.2631455,95.9186012 C91.2622027,91.0235025 96.1174679,84.671746 99.3432021,77.5348509 C100.239515,75.5516112 101.010316,73.5108335 101.650641,71.4270845 C101.781117,70.9995554 101.128737,70.8160165 100.997552,71.2420889" id="Fill-146" fill="#000000"></path>
                        <path d="M66.0668827,220.992255 C68.3046278,220.533424 70.2941064,219.245988 71.6097185,217.447448 C71.8472782,217.122846 71.2945337,216.814378 71.0589816,217.135753 C69.8370549,218.806517 67.96736,219.974567 65.8975796,220.39855 C65.4954011,220.480507 65.6653734,221.074212 66.0668827,220.992255" id="Fill-148" fill="#000000"></path>
                        <path d="M132.040398,183.472017 C134.445113,183.510601 136.833645,183.684721 139.184958,183.993884 C139.669623,184.057695 139.876759,183.602607 139.390476,183.538796 C136.973624,183.22073 134.51227,183.039684 132.040398,183.000111 C131.543596,182.991702 131.543596,183.464102 132.040398,183.472017" id="Fill-150" fill="#000000"></path>
                        <path d="M131.669185,186.288657 C131.742823,186.8394 132.17447,187.283859 132.599851,187.710202 C133.032281,188.142583 133.506232,188.547186 134.023269,188.919783 C134.374227,189.173415 134.903798,188.767 134.552056,188.512765 C134.08594,188.177005 133.651942,187.815278 133.256331,187.429395 C133.076151,187.253061 132.902239,187.070084 132.743994,186.880464 C132.59515,186.702922 132.44474,186.50364 132.416538,186.288657 C132.39617,186.133459 132.25986,186 132.042861,186 C131.856415,186 131.648816,186.132855 131.669185,186.288657" id="Fill-152" fill="#000000"></path>
                    </g>
                </g>
            </g>
        </g>
    </g>
</svg>