<?xml version="1.0" encoding="UTF-8"?>
<svg width="316px" height="271px" viewBox="0 0 316 271" version="1.1" xmlns="http://www.w3.org/2000/svg" xmlns:xlink="http://www.w3.org/1999/xlink">
    <!-- Generator: Sketch 62 (91390) - https://sketch.com -->
    <title>Group 140</title>
    <desc>Created with Sketch.</desc>
    <defs>
        <path d="M33.15,0.647067669 C27.6651375,1.03462406 22.024275,1.93729323 17.13465,4.73571429 L17.13465,4.73571429 C14.1194625,6.46041353 11.494275,8.85417293 9.24105,11.5177068 L9.24105,11.5177068 C4.3460625,17.3041729 1.1388,24.4659023 0.158925,31.7977068 L0.158925,31.7977068 L0.0550875,33.392406 C0.082875,40.7237218 2.3599875,47.8854511 6.5027625,53.6714286 L6.5027625,53.6714286 C8.4098625,56.3354511 10.724025,58.7292105 13.5149625,60.4539098 L13.5149625,60.4539098 C18.0418875,63.2518421 23.5652625,64.1545113 28.9999125,64.5425564 L28.9999125,64.5425564 C44.0090625,65.6138346 58.89975,63.2533083 73.9776375,60.818985 L73.9776375,60.818985 L74.00055,59.6118421 C74.0536875,58.0225188 74.106825,56.4336842 74.1599625,54.8438722 L74.1599625,54.8438722 C74.274525,51.4120677 73.85625,44.2850376 73.85625,44.2850376 L73.85625,44.2850376 C60.3451875,46.3884962 45.096675,46.8185714 32.6586,44.1784962 L32.6586,44.1784962 C30.278625,43.6736466 27.8884125,43.0583459 25.83555,41.8199248 L25.83555,41.8199248 C23.74125,40.5560902 22.0618125,38.6559398 21.0561,36.4151504 L21.0561,36.4151504 C20.608575,35.4166917 20.2921875,34.3136466 20.3253375,33.202782 L20.3253375,33.202782 L20.3926125,32.122218 C20.4784125,30.9659023 20.9522625,29.813985 21.5528625,28.7749624 L21.5528625,28.7749624 C22.849125,26.5331955 24.775725,24.6330451 27.033825,23.3696992 L27.033825,23.3696992 C29.2475625,22.1312782 31.717725,21.5159774 34.1635125,21.0111278 L34.1635125,21.0111278 C46.9443,18.3710526 62.1372375,18.8006391 75.3753,20.9045865 L75.3753,20.9045865 C75.3753,20.9045865 76.7193375,13.7775564 77.05035,10.3457519 L77.05035,10.3457519 C77.203425,8.75642857 77.3569875,7.16661654 77.51055,5.57778195 L77.51055,5.57778195 L77.644125,4.3706391 C65.3952,2.35075188 53.271075,0.381691638 40.8432375,0.381691638 L40.8432375,0.381691638 C38.2936125,0.381691638 35.728875,0.464774436 33.15,0.647067669" id="path-1"></path>
        <path d="M33.15,0.647067669 C27.6651375,1.03462406 22.024275,1.93729323 17.13465,4.73571429 L17.13465,4.73571429 C14.1194625,6.46041353 11.494275,8.85417293 9.24105,11.5177068 L9.24105,11.5177068 C4.3460625,17.3041729 1.1388,24.4659023 0.158925,31.7977068 L0.158925,31.7977068 L0.0550875,33.392406 C0.082875,40.7237218 2.3599875,47.8854511 6.5027625,53.6714286 L6.5027625,53.6714286 C8.4098625,56.3354511 10.724025,58.7292105 13.5149625,60.4539098 L13.5149625,60.4539098 C18.0418875,63.2518421 23.5652625,64.1545113 28.9999125,64.5425564 L28.9999125,64.5425564 C44.0090625,65.6138346 58.89975,63.2533083 73.9776375,60.818985 L73.9776375,60.818985 L74.00055,59.6118421 C74.0536875,58.0225188 74.106825,56.4336842 74.1599625,54.8438722 L74.1599625,54.8438722 C74.274525,51.4120677 73.85625,44.2850376 73.85625,44.2850376 L73.85625,44.2850376 C60.3451875,46.3884962 45.096675,46.8185714 32.6586,44.1784962 L32.6586,44.1784962 C30.278625,43.6736466 27.8884125,43.0583459 25.83555,41.8199248 L25.83555,41.8199248 C23.74125,40.5560902 22.0618125,38.6559398 21.0561,36.4151504 L21.0561,36.4151504 C20.608575,35.4166917 20.2921875,34.3136466 20.3253375,33.202782 L20.3253375,33.202782 L20.3926125,32.122218 C20.4784125,30.9659023 20.9522625,29.813985 21.5528625,28.7749624 L21.5528625,28.7749624 C22.849125,26.5331955 24.775725,24.6330451 27.033825,23.3696992 L27.033825,23.3696992 C29.2475625,22.1312782 31.717725,21.5159774 34.1635125,21.0111278 L34.1635125,21.0111278 C46.9443,18.3710526 62.1372375,18.8006391 75.3753,20.9045865 L75.3753,20.9045865 C75.3753,20.9045865 76.7193375,13.7775564 77.05035,10.3457519 L77.05035,10.3457519 C77.203425,8.75642857 77.3569875,7.16661654 77.51055,5.57778195 L77.51055,5.57778195 L77.644125,4.3706391 C65.3952,2.35075188 53.271075,0.381691638 40.8432375,0.381691638 L40.8432375,0.381691638 C38.2936125,0.381691638 35.728875,0.464774436 33.15,0.647067669" id="path-3"></path>
    </defs>
    <g id="Symbols" stroke="none" stroke-width="1" fill="none" fill-rule="evenodd">
        <g id="cta" transform="translate(-1079.000000, -379.000000)">
            <g id="Group-22" transform="translate(-1.000000, 73.000000)">
                <g id="Group-18" transform="translate(0.000000, 141.000000)">
                    <g id="Group-140" transform="translate(1238.000000, 300.500000) scale(-1, 1) translate(-1238.000000, -300.500000) translate(1080.000000, 165.000000)">
                        <g id="Group-61" transform="translate(209.000000, 55.000000)">
                            <path d="M2.00850136,7.24594488 C6.74167783,7.16685827 11.4772751,7.22202362 16.2075466,7.41095276 L16.2075466,6.92276378 C15.967886,6.92032283 15.7282253,6.9173937 15.4885647,6.91495276 C15.1767638,6.91202362 15.1762796,7.4002126 15.4885647,7.40314173 C15.7282253,7.40558268 15.967886,7.40851181 16.2075466,7.41095276 C16.5203158,7.41388189 16.5183792,6.9349685 16.2075466,6.92276378 C11.4772751,6.73383465 6.74167783,6.67866929 2.00850136,6.75775591 C1.69670045,6.7626378 1.69573213,7.25082677 2.00850136,7.24594488" id="Fill-25" fill="#231F20"></path>
                            <path d="M5.59242036,12.7652142 C8.20786833,12.6914976 10.8242846,12.6177811 13.4402167,12.5445528 C13.7510493,12.5352772 13.7525018,12.0470882 13.4402167,12.0563638 C10.8242846,12.1295921 8.20786833,12.2033087 5.59242036,12.2770252 C5.28110362,12.2858126 5.27965113,12.7740016 5.59242036,12.7652142" id="Fill-27" fill="#231F20"></path>
                            <path d="M1.50303529,43.7595024 C2.97924796,43.5681323 4.4559448,43.3772504 5.9316733,43.1858803 C6.23669593,43.146337 6.24056923,42.6576598 5.9316733,42.6976913 C4.4559448,42.8890614 2.97924796,43.0799433 1.50303529,43.2713134 C1.19801267,43.3108567 1.19413937,43.7995339 1.50303529,43.7595024" id="Fill-29" fill="#231F20"></path>
                            <path d="M0.299261086,60.6611417 C7.32494887,60.4263228 14.34289,59.9581496 21.3380756,59.2541811 C23.3255643,59.0545118 25.310148,58.835315 27.2937633,58.5975669 C27.5992701,58.5609528 27.6031434,58.0722756 27.2937633,58.109378 C20.3126186,58.9451575 13.3048448,59.5490472 6.28448281,59.9171417 C4.29021584,60.021126 2.29498054,60.1060709 0.299261086,60.1729528 C-0.0120556561,60.1832047 -0.0135081448,60.6713937 0.299261086,60.6611417" id="Fill-31" fill="#231F20"></path>
                            <path d="M4.06382127,54.6040835 C8.63577149,54.1315165 13.2082059,53.6594378 17.7806403,53.1873591 C19.078681,53.0526189 20.3762376,52.9188551 21.6737941,52.7846031 C21.9812376,52.7528709 21.9846267,52.2646819 21.6737941,52.2964142 C17.1018439,52.7689811 12.5294095,53.241548 7.95697511,53.7136268 C6.65893439,53.8478787 5.36186199,53.9821307 4.06382127,54.1158945 C3.75637783,54.1476268 3.75347285,54.6358157 4.06382127,54.6040835" id="Fill-33" fill="#231F20"></path>
                            <path d="M25.1929805,43.4710803 C27.0327995,43.377348 28.8731027,43.2831276 30.7124376,43.1893953 C31.022786,43.1737732 31.0247226,42.6850961 30.7124376,42.7012063 C28.8731027,42.7949386 27.0327995,42.8891591 25.1929805,42.9828913 C24.8826321,42.9990016 24.8806955,43.4871906 25.1929805,43.4710803" id="Fill-35" fill="#231F20"></path>
                            <path d="M19.7782964,0.212442906 C19.1779344,0.191955906 19.7782964,18.7953732 19.7782964,18.7953732 C19.7782964,18.7953732 65.3791787,19.7536882 75.4487986,18.7953732 L75.4487986,0.212442906 C75.4487986,0.212442906 30.9886041,0.5952 19.7782964,0.212442906" id="Fill-37" fill="#BBEFBB"></path>
                            <path d="M36.6810041,35.9889984 C37.0383163,44.0284945 37.0688186,61.9015811 37.0688186,61.9015811 C37.0688186,61.9015811 84.054891,61.4255969 106.894791,60.4951087 L106.039276,34.6972504 C106.039276,34.6972504 49.791167,35.4144 36.6810041,35.9889984" id="Fill-39" fill="#5684E8"></path>
                            <polygon id="Fill-41" fill="#84D896" points="10.0165557 37.9098268 10.3825828 48.9155591 21.956981 47.9552913 21.2980353 36.9495591"></polygon>
                            <path d="M65.8125529,41.7924425 C73.3093312,42.0809622 80.8201502,41.7821906 88.2714172,40.8975921 C88.8824308,40.8253402 88.8901774,39.8479858 88.2714172,39.9212142 C80.8201502,40.8058126 73.3093312,41.1045843 65.8125529,40.8160646 C65.1894353,40.7916551 65.1904036,41.7680331 65.8125529,41.7924425" id="Fill-43" fill="#C2CFF9"></path>
                            <path d="M66.2437484,48.6995843 C70.6331692,48.4384031 75.0230742,48.1767339 79.412495,47.9155528 C80.0322235,47.8784504 80.0360968,46.9015843 79.412495,46.9391748 C75.0230742,47.2003559 70.6331692,47.4620252 66.2437484,47.7232063 C65.6245041,47.7598205 65.6201466,48.7366866 66.2437484,48.6995843" id="Fill-45" fill="#C2CFF9"></path>
                            <path d="M66.1373778,55.1976236 C76.2810747,54.9022693 86.4296131,54.798285 96.5771833,54.8851827 C97.2003009,54.8905528 97.2007851,53.9141748 96.5771833,53.9088047 C86.4296131,53.8219071 76.2810747,53.9258913 66.1373778,54.2212457 C65.5157127,54.2393087 65.5132919,55.2156866 66.1373778,55.1976236" id="Fill-47" fill="#C2CFF9"></path>
                            <path d="M42.6011059,6.99418583 C47.0278072,7.02884724 51.4540244,6.98735118 55.8792733,6.87018583 C56.5009385,6.8535874 56.5033593,5.87720945 55.8792733,5.89380787 C51.4540244,6.01097323 47.0278072,6.05246929 42.6011059,6.01780787 C41.9779882,6.01292598 41.9775041,6.98930394 42.6011059,6.99418583" id="Fill-49" fill="#D7F7D9"></path>
                            <path d="M42.9268507,13.6910646 C50.6240724,13.4289071 58.3241991,13.2292378 66.0252941,13.0920567 C66.6474434,13.0813165 66.6493801,12.1049386 66.0252941,12.1156787 C58.3241991,12.2528598 50.6240724,12.4525291 42.9268507,12.7146866 C42.3051855,12.7356787 42.3022805,13.7120567 42.9268507,13.6910646" id="Fill-51" fill="#D7F7D9"></path>
                            <path d="M66.1350054,6.67002835 L68.1859195,6.67002835 C68.4396208,6.67002835 68.6821864,6.44546142 68.6700824,6.18183937 C68.6584624,5.91724094 68.4575348,5.69365039 68.1859195,5.69365039 L66.1350054,5.69365039 C65.8817882,5.69365039 65.6392226,5.91821732 65.6508425,6.18183937 C65.6624624,6.4464378 65.86339,6.67002835 66.1350054,6.67002835" id="Fill-53" fill="#D7F7D9"></path>
                            <path d="M53.3850597,39.1026677 C53.4983538,39.1285417 53.611648,39.1592976 53.7234896,39.1954236 C54.6811638,39.5064 55.5023041,40.1776598 56.0068018,41.0534709 C56.5534217,42.0015339 56.9204172,43.1375496 56.6270145,44.1930142 C56.3219919,45.2929039 55.3536661,46.0910929 54.3165891,46.5499906 C53.266924,47.0137701 52.0768516,47.2012346 50.9589195,46.9444472 C49.8414715,46.6886362 48.811657,45.9597701 48.3057068,44.9228567 C47.7242271,43.730211 47.8999783,42.2383055 48.6208968,41.1257228 C49.6216615,39.5815811 51.5912362,38.6960063 53.3850597,39.1026677" id="Fill-55" fill="#C2CFF9"></path>
                            <path d="M53.8347018,45.8767291 C52.3672041,45.9909654 50.8474167,46.2062567 49.6157063,47.0200677 C48.9359416,47.4692016 48.3777018,48.0813906 47.8688466,48.7204299 C45.7917878,51.3332173 44.4482357,54.6367921 44.0226566,57.9574535 C44.0226566,57.9574535 52.803919,57.8124614 57.752548,57.8158787 L60.0876656,57.9291386 C60.460471,55.4178945 59.4950502,52.2803039 58.4308602,49.9784929 C58.0391724,49.1300205 57.6252131,48.2825244 57.0543851,47.5438945 C56.4840412,46.8052646 55.740367,46.1750126 54.8572538,45.8864929 C54.3217697,45.7107449 53.7538466,45.6658315 53.1912493,45.6443512 C52.4214303,45.6160362 51.6496747,45.6297055 50.8813081,45.6868236" id="Fill-57" fill="#C2CFF9"></path>
                            <path d="M34.7698679,11.1523843 C34.5316597,10.6368567 34.2803792,10.1223055 33.9337186,9.67365984 C33.6354742,9.28799055 33.2558905,8.95943937 32.8157864,8.76123465 C33.2161891,8.48052598 33.5444516,8.10510866 33.6742072,7.63791181 C33.851895,6.9964315 33.6296643,6.30662047 33.2975285,5.73104567 C32.9905692,5.19891969 32.4918814,4.79128189 31.9104018,4.60235276 C31.8421348,4.58038425 31.7738679,4.56134488 31.7046326,4.54572283 C30.6147819,4.29869921 29.4184154,4.83668346 28.8103068,5.77449449 C28.3726235,6.45063622 28.2656235,7.35720315 28.6195466,8.0811874 C28.8553339,8.56547087 29.2799448,8.93747087 29.7718543,9.15471496 C29.6498452,9.2147622 29.5297729,9.27920315 29.4150262,9.35487244 C29.0020353,9.62777008 28.6626371,9.99977008 28.3537412,10.3883685 C27.0924968,11.9754709 26.2761982,13.9824157 26.0176552,15.9996126 C26.0176552,15.9996126 31.3511937,15.9112504 34.3573611,15.9132031 L35.7759584,15.9820378 C36.0025466,14.4569354 35.4162253,12.5505575 34.7698679,11.1523843" id="Fill-59" fill="#84D896"></path>
                        </g>
                        <g id="Group-84">
                            <path d="M92.787397,43.9376784 C95.4392667,41.3466065 98.0945388,38.7526101 100.920413,36.3560147 C101.675243,35.7165327 102.467013,35.0765633 103.39196,34.7665705 C104.080688,34.5350507 104.805383,34.4999572 105.518413,34.4658385 C106.708741,34.4102737 107.899069,34.354709 109.089397,34.2986568 C109.511285,34.2791604 109.95213,34.2538151 110.32833,34.0388673 C110.795906,33.772254 111.072953,33.2658349 111.308685,32.7837863 C112.307511,30.7434878 113.060397,28.5993709 113.61449,26.4211353 C113.77926,25.7704428 114.013534,25.0110579 114.640048,24.7566299 C115.113457,24.5645903 115.624292,24.7473691 116.124434,24.7400579 C116.62409,24.7337216 117.243313,24.3150363 117.091181,23.8490723 C117.025564,23.6497216 116.837464,23.5264068 116.662002,23.4157647 C115.945083,22.9614986 115.222818,22.4467935 114.844188,21.6830219 C114.303704,20.593173 114.57103,19.254745 114.699832,18.0055129 C114.860227,16.4497 114.783918,14.8856011 114.47382,13.3829158 C114.335297,12.7122396 114.134074,12.0230417 113.655318,11.5512288 C113.252871,11.1539896 112.69732,10.9526892 112.15149,10.7806335 C110.666618,10.3127198 109.128767,9.98810468 107.564183,9.81312446 C106.71506,9.7180795 105.836774,9.66933849 104.995427,9.91548058 C104.194909,10.1508996 103.474588,10.6412342 102.842727,11.2066299 C101.169755,12.7034662 100.043099,14.7432773 99.4063784,16.8610741 C98.7696574,18.9793583 98.5951667,21.1824518 98.5917644,23.3548385 L97.3149202,26.8778385 C94.658676,29.6029482 92.0019458,32.3275705 89.3452156,35.0521928 L92.787397,43.9376784 Z" id="Fill-62" fill="#FFCFD6"></path>
                            <path d="M109.534664,11.2907081 C113.06725,11.4081739 116.731069,9.69102824 119.028125,6.83919191 C119.64832,6.07005881 120.188318,5.18053543 120.267057,4.22228723 C120.397318,2.63235558 119.004794,1.18231061 117.416394,1.25249766 C115.765294,1.32609658 114.442276,2.71619011 112.977332,3.57208219 C113.424494,2.94429802 113.539201,2.10546529 113.270904,1.42601565 C113.00212,0.746078597 112.35908,0.247945504 111.624664,0.150463489 C110.281718,-0.0279285971 109.029176,1.03560018 108.098397,2.09864155 C107.260453,3.05542752 106.501248,4.08093831 105.831962,5.15811457 C105.610811,5.51489874 105.389173,5.88825486 105.051857,6.14073327 C104.794253,6.33326025 104.486585,6.44097788 104.181834,6.5291991 C101.116339,7.41920989 97.9147502,6.66079982 94.7826665,7.13310018 C94.2766921,7.20913615 93.742527,7.33342572 93.3600084,7.69215953 C92.8904874,8.13277824 92.7675177,8.80979083 92.6722526,9.43172608 C92.5172037,10.4460264 92.3621549,11.4603268 92.2654316,12.478039 C91.7618874,17.7732621 92.9784619,24.3596344 95.5418712,28.8184617 C95.5418712,28.8184617 100.156397,25.8662189 102.361104,24.4371326 C102.504487,24.3440372 102.668285,24.2114617 102.646899,24.0486667 C102.63572,23.9609329 102.571562,23.8941577 102.511778,23.8317692 C101.436157,22.716575 100.816934,21.1685606 100.807213,19.5693682 C100.803811,19.0385786 100.870885,18.4868304 101.136753,18.0096559 C101.686957,17.0231379 103.120308,16.6390588 103.998108,17.2434473 C105.028527,17.952629 105.230722,19.6605138 106.462364,19.9651451 C107.223999,20.1537728 108.068748,19.6532027 108.529034,18.9718034 C108.988834,18.2899167 109.143883,17.4666811 109.256646,16.6697656 C109.508418,14.8829203 109.588129,12.9981056 108.835243,11.4242585" id="Fill-64" fill="#231F20"></path>
                            <path d="M99.6285988,260.190658 C99.3418314,261.988226 99.055064,263.78677 98.7682965,265.584338 C98.7235802,265.867036 98.6808081,266.170692 98.8018337,266.418784 C98.9597988,266.745349 99.3442616,266.876462 99.6947012,266.979793 C102.726173,267.87419 105.757159,268.769075 108.789117,269.663473 C109.191078,269.782401 109.666431,270.229843 109.332517,270.517415 C102.252278,270.590039 95.1827314,270.489633 88.1301965,270.216196 C87.5649244,270.194262 86.9039012,270.113352 86.6594198,269.617656 C86.4810407,269.255511 86.6010942,268.806606 86.724064,268.403518 C87.6052663,265.517075 88.5185477,262.637944 89.462936,259.768561 L99.6285988,260.190658 Z" id="Fill-66" fill="#231F20"></path>
                            <path d="M17.1687181,258.170587 C15.8218833,259.458324 14.4760205,260.745574 13.1291856,262.033799 C12.9177553,262.236074 12.695146,262.456384 12.6266135,262.736157 C12.5371809,263.103177 12.7938135,263.746071 12.7938135,263.746071 C12.7938135,263.746071 13.6784181,266.775324 15.0160181,267.170614 L20.0981205,268.669887 C20.5000809,268.788328 20.9754344,269.236258 20.6415205,269.524317 C18.452853,269.546738 16.2651577,269.553074 14.0784344,269.541864 C9.19172279,269.517981 5.8467507,262.324783 2.38512744,259.089355 C1.98365302,258.713562 1.54912744,258.229564 1.68327628,257.670017 C1.78048558,257.26108 2.15182512,256.970096 2.49740419,256.718592 C4.9679786,254.917125 7.45750884,253.142952 9.96453674,251.395587 L17.1687181,258.170587 Z" id="Fill-68" fill="#231F20"></path>
                            <path d="M126.088728,81.9913424 C128.408142,81.709132 130.728042,81.4264342 133.047456,81.1442237 C133.939351,81.0355313 134.837079,80.9263514 135.724114,80.974605 C137.055395,81.0472291 138.317658,81.4688388 139.561937,81.8875241 C140.588467,82.2330978 141.618886,82.5796464 142.584174,83.0573083 C143.262695,83.3926464 143.927121,83.7981716 144.691186,83.8922417 C145.536907,83.9970349 146.401584,83.7084881 147.230779,83.4243281 C149.027693,82.8082417 150.833842,82.1877687 152.5282,81.2992201 C154.223044,80.4101842 155.815819,79.2326014 156.959486,77.6865367 C157.154877,77.4228478 157.310412,76.9929522 157.038712,76.8442921 C156.960944,76.8023748 156.865679,76.7999378 156.774788,76.7979881 C152.770251,76.7185403 148.819179,76.0191068 145.103353,74.7328317 C144.958998,74.6831158 144.799574,74.6168281 144.751456,74.4720673 C144.66737,74.2176392 144.974065,73.9948928 145.222921,73.8642669 C146.656758,73.1107309 147.856321,71.8775835 148.568865,70.4236392 C148.568865,70.4236392 146.364644,70.3027615 146.315553,70.3251824 C145.114533,70.8861914 143.906221,71.4311158 142.701798,71.9843263 C141.619858,72.4805097 140.527226,72.9805924 139.378212,73.2301464 C138.417298,73.4392453 137.439372,73.4684899 136.467765,73.4962723 C133.98504,73.5688964 130.575909,73.6775888 128.092698,73.7502129 L126.088728,81.9913424 Z" id="Fill-70" fill="#F7A9B8"></path>
                            <path d="M79.5786942,48.8684162 C81.2711081,52.9105079 82.7720198,57.1056464 84.7259267,60.9825061 C88.2896198,68.0519018 90.1793686,75.8236554 94.3792965,82.570873 C95.4617221,84.3089773 96.4313849,85.7726698 98.2321872,86.8673928 C99.9445291,87.9085007 101.896492,88.5772273 103.917473,88.8355547 C107.313966,89.2693496 110.899531,88.6128083 114.332964,88.3003784 C118.11878,87.9562669 121.904597,87.611668 125.690899,87.2675565 C126.284848,87.2139414 126.898238,87.1539899 127.436292,86.8669054 C128.27132,86.4204378 128.352003,85.7307525 128.35978,84.9187273 C128.371445,83.6860673 128.432687,82.4704665 128.517745,81.234882 C128.622245,79.7326842 128.73598,78.2299989 128.829787,76.7273137 C128.893945,75.7042399 129.159813,72.6930205 129.159813,72.6930205 C129.159813,72.6930205 126.491903,72.9230781 125.504743,73.0122741 C124.232759,73.1277903 122.96029,73.2437939 121.688306,73.3593101 L113.863443,74.0704414 C111.213031,74.3112219 108.302099,74.4837651 106.270424,72.9143047 C104.975597,71.9146266 104.256734,70.3583263 103.580643,68.8561284 C100.363015,61.7136212 98.0115221,54.1792363 95.4840802,46.7267363" id="Fill-72" fill="#42BC56"></path>
                            <path d="M0.358362093,251.718106 C18.9569319,222.986745 31.0862226,199.128509 42.1612784,176.505858 L42.9865853,173.730058 C43.6004621,168.726793 46.8715551,134.301507 48.2004063,123.55314 C48.6699272,119.752317 49.1438226,115.930534 50.2330528,112.219394 C51.7218133,107.148867 54.3173016,102.420015 56.8909179,97.7423401 L57.6306807,96.2177214 C61.1384784,95.9223509 64.6608574,97.2983095 67.9047319,98.4208149 C73.8276947,100.470374 86.9232458,104.04114 86.9232458,104.04114 C88.2705667,107.123522 98.7356342,125.290757 102.164206,131.19573 C105.75852,137.386326 109.352348,143.576921 112.946662,149.767029 C116.947311,156.657545 120.953792,163.558784 124.385281,170.781227 C125.849253,173.863608 128.181304,177.598631 128.301357,181.088 C128.444255,185.234885 126.852453,188.530752 126.067488,192.492421 L125.675734,194.468869 C116.753378,217.241155 108.516348,240.243011 100.980197,263.431545 L78.4062528,262.246164 C86.1825109,241.472259 94.2416481,220.749533 101.634902,199.859624 C102.697885,196.855716 103.827457,193.870329 104.91766,190.875682 L106.266439,186.740495 L105.296776,184.177693 C100.468876,175.197162 94.8535807,166.670898 90.0251947,157.690367 C85.723683,149.689043 81.2632342,142.184878 75.8297202,134.95025 L74.8396435,133.110277 C71.4105853,147.819338 66.944304,164.560899 63.360197,179.242666 L62.8216574,181.254694 C50.516904,206.866631 35.751783,231.891239 17.3563807,262.779878 L0.358362093,251.718106 Z" id="Fill-74" fill="#5684E8"></path>
                            <path d="M90.283577,34.3617764 C91.3062188,34.8418754 92.2812281,37.2842872 92.7847723,38.2591074 C93.4589188,39.5658538 94.1340374,40.8145984 94.4251793,42.2685426 C95.1693165,45.9752962 95.5562095,49.8097513 95.7690979,53.6144743 C96.5885723,68.2343394 93.293663,82.2361685 89.62547,96.5475031 C89.2133026,98.1579059 88.800163,99.7683088 88.3879956,101.378712 C88.0919933,102.530462 88.0351258,104.290987 86.5818467,104.600005 C86.0481677,104.713571 85.507684,104.623888 84.9827537,104.532255 C79.1851909,103.51308 74.9526979,102.821933 69.3403188,101.172537 C66.9047398,100.457019 64.4954072,99.6747261 62.0656607,98.946048 C59.7967956,98.2646487 57.3733677,97.5783754 55.6892165,95.8700031 C55.0850607,95.2573286 54.5742258,94.5120786 54.4318142,93.6444887 C54.3307165,93.0288897 54.419663,92.3874581 54.5246491,91.7596739 C55.3937002,86.566807 57.376284,81.5825516 59.57127,76.7435444 C61.5208026,72.4465372 63.2870956,68.0408376 65.3148816,63.7374941 C68.0785421,57.8724887 71.4074747,52.2453394 75.2375212,46.9652261 C77.0840119,44.4194833 79.11277,41.1606595 81.5347398,39.1213358 C83.6820933,37.312557 86.5837909,35.7430966 89.1724747,34.7375696 L90.283577,34.3617764 Z" id="Fill-76" fill="#84D896"></path>
                            <path d="M152.982653,90.4039428 C152.411549,87.2455255 154.499119,84.0081478 156.990593,81.7611874 C158.805977,80.1234896 160.889658,78.787986 163.115751,77.8341245 C166.739714,76.281236 170.654333,75.7621442 174.51014,75.4311928 C184.598035,74.5670147 194.672321,74.8833439 204.69217,75.4214446 L206.38264,72.5140435 C206.38264,72.5140435 197.675116,63.286396 177.90566,66.9102899 C158.136691,70.5336964 148.393402,68.6732522 148.381141,77.879941 C148.369586,87.0861424 149.285298,89.5348906 149.285298,89.5348906 L152.982653,90.4039428 Z" id="Fill-78" fill="#231F20"></path>
                            <path d="M130.650129,89.7061665 C130.767752,95.5862817 132.013003,101.446413 134.82867,106.456501 C137.644824,111.467077 142.106731,115.579843 147.584475,117.432001 C150.002557,118.249388 152.569368,118.620794 155.131805,118.918602 C167.511896,120.354512 180.17681,120.124942 192.687647,118.238177 L202.066887,117.441749 C202.066887,117.441749 203.726736,113.925573 204.946712,112.329305 L166.774563,105.483143 L136.087045,87.5737475 L130.650129,89.7061665 Z" id="Fill-80" fill="#231F20"></path>
                            <path d="M151.497441,84.7792306 C151.46439,85.8871137 151.779834,86.9867108 152.226025,87.9824896 C153.228739,90.2177522 154.903169,92.1128025 156.991225,93.373245 C159.037967,94.6083421 161.421053,95.2219914 163.793932,95.725486 C176.194923,98.3579878 191.397971,97.9295543 204.86875,95.8317414 C204.86875,95.8317414 205.285778,102.939642 205.171557,106.362236 C205.118092,107.947294 205.065599,109.532351 205.01262,111.117409 L204.989776,112.321312 C189.956357,114.749101 175.110067,117.103292 160.146153,116.034889 C154.727706,115.647885 149.220313,114.747639 144.706885,111.957216 C141.924755,110.236659 139.617492,107.849812 137.716078,105.192939 C133.585169,99.4224914 131.315332,92.2799842 131.287627,84.9683457 L131.391155,83.3774392 C132.368109,76.0658007 135.565809,68.9232935 140.446202,63.1523583 C142.692709,60.4959734 145.310069,58.1086388 148.315781,56.3885687 C153.191313,53.5976586 158.815357,52.6978996 164.284353,52.310896 C179.387276,51.2420058 193.927357,53.5961964 208.645332,56.0244734 L208.512155,57.2283763 C208.358564,58.8134338 208.205946,60.3984914 208.052841,61.9830615 C207.723302,65.4061424 206.382785,72.5140435 206.382785,72.5140435 C193.184678,70.4152558 178.037039,69.9873097 165.294357,72.6202989 C162.855862,73.1237935 160.393064,73.7374428 158.185927,74.9725399 C155.93456,76.232495 154.013704,78.1275453 152.721306,80.3628079 C152.122011,81.3990417 151.649574,82.5483547 151.564516,83.7015669 L151.497441,84.7792306 Z" id="Fill-82" fill="#052175"></path>
                        </g>
                        <g id="Group-91" transform="translate(131.000000, 51.000000)">
                            <g id="Group-87">
                                <mask id="mask-2" fill="white">
                                    <use xlink:href="#path-1"></use>
                                </mask>
                                <g id="Clip-86"></g>
                                <path d="M65.0669175,-1.51259398 C63.427455,6.41105263 61.85478,14.3444737 60.3508425,22.286203 C64.63353,23.9468797 69.2818425,24.7747744 73.97793,24.7146617 C74.5166175,24.7073308 75.08943,24.678985 75.5540175,24.3759774 C76.166805,23.9757143 76.42128,23.2186842 76.62603,22.5261654 C78.943605,14.6684962 80.81268,6.70575188 82.2210675,-1.30781955 C82.514055,-2.97338346 82.72563,-4.87988722 81.63753,-6.08116541" id="Fill-85" fill="#FFFFFF" mask="url(#mask-2)"></path>
                            </g>
                            <mask id="mask-4" fill="white">
                                <use xlink:href="#path-3"></use>
                            </mask>
                            <g id="Clip-89"></g>
                            <path d="M57.1160363,42.0180038 C55.2961988,50.8008233 53.6684363,59.6115 52.2351863,68.4407481 C55.4897363,67.8992444 58.7608613,68.2325526 62.0266238,68.2130038 C66.0070613,68.1885677 70.0182113,67.6348459 73.9216237,66.5699211 C74.8420238,66.3192068 75.8087363,66.007891 76.4688113,65.296312 C77.0148113,64.707891 77.2756237,63.9239812 77.4998738,63.165485 C80.1270113,54.290297 80.1133612,44.8110489 77.4603862,36.2862744" id="Fill-88" fill="#FFFFFF" mask="url(#mask-4)"></path>
                        </g>
                        <g id="Group-126" transform="translate(48.000000, 15.000000)">
                            <path d="M75.6272611,75.6733506 C77.9376864,75.3909404 80.2485959,75.1085302 82.5590213,74.8256322 C83.4474602,74.7168629 84.341709,74.6076057 85.2253063,74.6558935 C86.5514285,74.728569 87.8087995,75.1509649 89.0482566,75.5694588 C90.0708086,75.9152771 91.0972339,76.2625588 92.0587814,76.7405588 C92.7346729,77.0756465 93.3965235,77.4814588 94.1576276,77.5760833 C95.000071,77.6804629 95.8613968,77.3917118 96.6873787,77.1073506 C98.477329,76.4908282 100.276478,75.8699159 101.96427,74.9807384 C103.652546,74.0910731 105.239148,72.9131445 106.378383,71.3659853 C106.572533,71.101622 106.727949,70.671422 106.457302,70.5231445 C106.379836,70.4807098 106.28494,70.478271 106.194401,70.47632 C102.205383,70.3968159 98.2696231,69.6968873 94.5677136,68.4097016 C94.4244014,68.3599506 94.2655959,68.2936159 94.2176638,68.1487527 C94.1339036,67.8946322 94.4394104,67.6712404 94.6868176,67.540522 C96.1155824,66.7869404 97.3104964,65.5524322 98.0202792,64.0979465 C98.0202792,64.0979465 95.8246005,63.9769833 95.7757,63.99942 C94.5793335,64.5608261 93.3757045,65.1061363 92.1759489,65.6592506 C91.0982023,66.1557853 90.0098041,66.6567098 88.865243,66.9064404 C87.9080529,67.1156873 86.9339172,67.1444649 85.9660756,67.1727547 C83.4924873,67.2449424 80.0965688,67.3541996 77.6234647,67.4263873 L75.6272611,75.6733506 Z" id="Fill-92" fill="#FFCFD6"></path>
                            <path d="M29.2970357,42.5269284 C30.9833751,46.5723692 32.477986,50.7699896 34.424805,54.6495937 C37.9742032,61.7239937 39.8571127,69.5012488 44.0407643,76.2532427 C45.1185109,77.9925773 46.0849,79.4577937 47.8787235,80.5528039 C49.5839452,81.5946488 51.5288276,82.2643365 53.5419769,82.522359 C56.9248231,82.956461 60.4964928,82.2994549 63.9171036,81.9868039 L75.230538,80.9537386 C75.8226692,80.8995978 76.4336828,80.8400916 76.969167,80.5523161 C77.8009588,80.1060202 77.881814,79.4158467 77.8890765,78.602759 C77.9011805,77.3697141 77.9621851,76.1532529 78.0469136,74.9167937 C78.1510086,73.4130447 78.2643027,71.9097835 78.3577462,70.4060345 C78.4216557,69.3817488 78.6864928,66.3683978 78.6864928,66.3683978 C78.6864928,66.3683978 76.0289226,66.5986182 75.0455878,66.6883651 C73.7780493,66.8039631 72.510995,66.9200488 71.2439407,67.035159 L63.4494023,67.7467937 C60.809262,67.9877447 57.9096104,68.16041 55.8858095,66.5903263 C54.5959995,65.5894529 53.8799226,64.0320508 53.2059679,62.5292773 C50.0012937,55.3812263 47.6589136,47.841508 45.1412665,40.3842202" id="Fill-94" fill="#84D896"></path>
                            <path d="M30.2984783,104.348961 C29.3432249,108.520242 28.3816774,112.690061 27.4143199,116.857928 C27.343148,117.163263 27.809881,117.293981 27.8815371,116.988159 C28.8488946,112.819316 29.8099579,108.649498 30.7656955,104.478704 C30.8354149,104.173369 30.3691661,104.042651 30.2984783,104.348961" id="Fill-96" fill="#231F20"></path>
                            <path d="M59.6716244,170.478359 C61.8513258,169.449683 64.0857376,168.545873 66.366629,167.771318 C66.6605158,167.671328 66.5341493,167.200157 66.2378416,167.300634 C63.9182172,168.089334 61.6445882,169.010703 59.4271222,170.056938 C59.1453394,170.190095 59.39081,170.61054 59.6716244,170.478359" id="Fill-98" fill="#231F20"></path>
                            <path d="M59.8432602,171.189506 C61.4777941,171.156338 63.1123281,171.22121 64.7386312,171.388022 C65.0484955,171.420214 65.0460747,170.931971 64.7386312,170.900267 C63.1123281,170.733454 61.4777941,170.668583 59.8432602,170.70175 C59.5319434,170.708579 59.530491,171.196334 59.8432602,171.189506" id="Fill-100" fill="#231F20"></path>
                            <path d="M11.2000434,169.449976 C9.18640995,170.590835 7.10741448,171.612194 4.97177195,172.499421 C4.68756833,172.617457 4.81199819,173.089604 5.10007511,172.969617 C7.275419,172.065806 9.39363167,171.033229 11.4445457,169.870908 C11.7156769,169.717266 11.472143,169.296333 11.2000434,169.449976" id="Fill-102" fill="#231F20"></path>
                            <path d="M35.0048805,237.826656 C39.824238,238.60365 44.7157357,238.863624 49.5898036,238.612918 C49.8996679,238.596822 49.9016045,238.109067 49.5898036,238.125162 C44.7597946,238.37343 39.9094507,238.126138 35.1336679,237.35646 C34.8291294,237.307685 34.6974371,237.776905 35.0048805,237.826656" id="Fill-104" fill="#231F20"></path>
                            <path d="M6.72671719,87.3361116 C7.5526991,87.7102198 8.37964932,88.0828647 9.20514706,88.4584361 C9.37121493,88.5340382 9.62007466,88.6081769 9.70867647,88.7847443 C9.78856335,88.9432647 9.74063122,89.13983 9.69221493,89.2993259 C9.56584842,89.7207463 9.33006109,90.121681 9.15043665,90.5211524 C8.45178959,92.0741647 7.843681,93.6686361 7.33579412,95.2948116 C6.82645475,96.9258647 6.41685294,98.5886218 6.11328281,100.270889 C5.80390271,101.988275 5.67075792,103.732975 5.34927376,105.44841 C5.27422851,105.848857 5.24324208,106.408312 5.00890724,106.755593 C4.74552262,107.146285 4.13838235,107.054587 3.73410633,107.052636 L0.602540724,107.037028 C0.290739819,107.035077 0.290255656,107.522832 0.602540724,107.524783 C1.60621041,107.529173 2.60988009,107.534538 3.61403394,107.539903 C4.35189819,107.543318 5.20983484,107.606726 5.53180317,106.781932 C5.68673529,106.384899 5.74967647,105.938603 5.82714253,105.520597 C5.91816516,105.025526 5.99224208,104.52704 6.06002489,104.028067 C6.18397059,103.114014 6.28709729,102.197034 6.43089367,101.285908 C7.01382579,97.5853096 8.1085181,93.9642157 9.66219683,90.5601729 C9.95850452,89.9109708 10.6605407,88.8281545 9.86796606,88.25553 C9.4656267,87.964828 8.92965837,87.8019178 8.47938688,87.5980361 C7.97682579,87.3702545 7.47426471,87.1429606 6.97121946,86.9146912 C6.68943665,86.7868994 6.44299774,87.2068565 6.72671719,87.3361116" id="Fill-106" fill="#231F20"></path>
                            <path d="M31.9173738,44.2979184 C32.7709529,48.4462755 33.9508579,52.5268347 35.2784326,56.5444735 C36.6883149,60.8103796 38.2831475,65.0187306 40.0963376,69.1275796 C41.0109213,71.200051 41.9845729,73.2481347 43.0545729,75.2440286 C43.2032109,75.5205857 43.6210434,75.2747571 43.4728896,74.9977122 C41.4994416,71.3166245 39.8319846,67.467749 38.3180072,63.574 C36.6887991,59.3841837 35.2401837,55.1182776 34.0186407,50.7899388 C33.4008489,48.6018694 32.842609,46.3957531 32.384591,44.1681755 C32.3211656,43.8608898 31.8544326,43.9911204 31.9173738,44.2979184" id="Fill-108" fill="#231F20"></path>
                            <path d="M45.5368276,42.1720865 C46.3327914,44.9054661 47.202348,47.6159212 48.1474339,50.3005253 C48.2500765,50.5946416 48.718262,50.4678253 48.6136828,50.1707824 C47.6695652,47.4861784 46.7990403,44.7757233 46.0035606,42.0423437 C45.9159271,41.7418865 45.4482258,41.8696784 45.5368276,42.1720865" id="Fill-110" fill="#231F20"></path>
                            <path d="M55.8404434,67.8040073 C55.0149457,68.2566441 54.2509367,68.8214645 53.5716561,69.4760318 C53.3465204,69.6930829 53.6888235,70.0379257 53.9139593,69.8208747 C54.5651584,69.1936216 55.2933394,68.6585543 56.0849457,68.22494 C56.3584977,68.0751992 56.1139955,67.653291 55.8404434,67.8040073" id="Fill-112" fill="#231F20"></path>
                            <path d="M57.0844032,68.657091 C56.489367,69.6423563 56.1141407,70.7388298 55.978091,71.8826155 C55.9625977,72.0138216 56.1001,72.1264931 56.2201724,72.1264931 C56.3639688,72.1264931 56.4462765,72.0143094 56.4622538,71.8826155 C56.587652,70.8266257 56.9546475,69.8096563 57.5022357,68.9034073 C57.6649145,68.6341665 57.2461136,68.3888257 57.0844032,68.657091" id="Fill-114" fill="#231F20"></path>
                            <path d="M91.0013213,68.7075737 C92.2562715,68.6256308 93.5039593,68.4432104 94.7303439,68.1637267 C95.0343982,68.0944655 94.9056109,67.6237818 94.6015566,67.6935308 C93.4163258,67.9637471 92.2141493,68.1408022 91.0013213,68.2198186 C90.691457,68.2398165 90.6895204,68.7280594 91.0013213,68.7075737" id="Fill-116" fill="#231F20"></path>
                            <path d="M52.4697014,18.4964539 C54.0035294,18.57986 55.5378416,18.6627784 57.0716697,18.7461845 C57.3829864,18.7632559 57.3820181,18.2755008 57.0716697,18.2584294 C55.5378416,18.1750233 54.0035294,18.0921049 52.4697014,18.0086988 C52.1579005,17.9921151 52.1588688,18.4798702 52.4697014,18.4964539" id="Fill-118" fill="#231F20"></path>
                            <path d="M65.6995493,3.51081245 C65.5983593,3.78054102 65.552848,4.07855939 65.5751195,4.3663349 C65.5881919,4.53461041 65.5983593,4.7726349 65.763943,4.86774714 C65.8617439,4.92383898 65.9856896,4.92335122 66.0801014,4.85945531 C66.1672507,4.79994918 66.2151828,4.7150798 66.2500425,4.61752878 C66.3483276,4.33414306 66.3594633,4.01954102 66.2984588,3.72737571 C66.2635991,3.56056347 66.206952,3.36351041 66.0205493,3.31863694 C65.8874045,3.2864451 65.7658796,3.35765735 65.6903502,3.46496347 C65.6472597,3.52788388 65.6235357,3.60592469 65.6012643,3.67957571 C65.5078208,3.99320224 65.5097575,4.34633694 65.6215991,4.65508592 C65.6792145,4.81506959 65.8268842,4.8682349 65.9769747,4.80092469 C66.1478842,4.72434714 66.2224452,4.51705122 66.1827439,4.3424349 C66.1541783,4.21805735 66.0060244,4.1327002 65.8849837,4.17220837 C65.7557122,4.21415531 65.6855086,4.33902061 65.7160109,4.47266551 C65.7126217,4.43218184 65.7111692,4.42145122 65.7116534,4.44096143 C65.7116534,4.46047163 65.71359,4.45022878 65.7169792,4.41072061 C65.7082643,4.45120429 65.7392507,4.37462673 65.7237575,4.39755122 C65.7092326,4.41998796 65.7663638,4.35609204 65.7310199,4.38779612 C65.7532914,4.36779816 65.7673321,4.36438388 65.7324724,4.37950429 C65.8510923,4.4282798 65.9701964,4.47656755 66.0883321,4.52534306 C66.0723548,4.48046959 66.0578299,4.43559612 66.0471783,4.38925939 C66.0413683,4.36731041 66.0365267,4.34536143 66.0326534,4.32341245 C66.0307167,4.31121857 66.0287801,4.29853694 66.0263593,4.28585531 C66.0157077,4.22488592 66.0282959,4.31951041 66.0263593,4.28390429 C66.0229701,4.23561653 66.0186127,4.18830429 66.0186127,4.13952878 C66.0186127,4.09172878 66.013771,4.02978388 66.0278118,3.98442265 C66.025391,3.99076347 66.0186127,4.03758796 66.0268434,3.99076347 C66.0292643,3.97808184 66.0312009,3.9654002 66.0331376,3.95223082 C66.037495,3.92930633 66.0423367,3.90686959 66.0481466,3.88540837 C66.0602507,3.83370633 66.0786489,3.78493082 66.0926896,3.73371653 C66.102857,3.69957367 66.0718706,3.76932265 66.0883321,3.74395939 C66.0912371,3.74005735 66.0994679,3.72786347 66.099952,3.72396143 C66.0931738,3.73225327 66.0873638,3.74103286 66.0805855,3.74932469 C65.9934362,3.74639816 65.9062869,3.74444714 65.8191376,3.74200837 C65.8244633,3.74591041 65.7770154,3.67957571 65.7823412,3.68055122 C65.7963819,3.68299 65.8220425,3.81370837 65.8259158,3.82882878 C65.8312416,3.85419204 65.8365674,3.87955531 65.8409249,3.90540633 C65.8423774,3.91467367 65.8438299,3.92442878 65.8457665,3.93369612 C65.8515765,3.96930224 65.8418932,3.89077367 65.844314,3.92735531 C65.8477032,3.9795451 65.8525448,4.03075939 65.8520606,4.08392469 C65.8520606,4.13318796 65.8491557,4.18245122 65.8447982,4.23171449 C65.8433457,4.24732265 65.8491557,4.27219816 65.8457665,4.22586143 C65.8467348,4.23464102 65.8428615,4.24634714 65.841409,4.25512673 C65.8360833,4.2848798 65.8307575,4.31365735 65.8239792,4.34292265 C65.8123593,4.39218592 65.7949294,4.43901041 65.7828253,4.48729816 C65.7755629,4.51705122 65.7900878,4.46827571 65.7925086,4.46583694 C65.7949294,4.46437367 65.7770154,4.49217571 65.7774995,4.49266347 C65.7707213,4.48437163 65.8297891,4.4434002 65.8249475,4.44583898 C65.9087077,4.46876347 65.9919837,4.4912002 66.0757439,4.51412469 C66.0883321,4.54826755 66.0922054,4.55655939 66.0863955,4.53802469 C66.0830063,4.51802673 66.0767122,4.49802878 66.0733231,4.47754306 C66.0713864,4.46486143 66.0694498,4.4521798 66.067029,4.43852265 C66.064124,4.42437776 66.0525041,4.39852673 66.067029,4.44486347 C66.0525041,4.39755122 66.0563774,4.33560633 66.0549249,4.28683082 C66.0529882,4.23025122 66.0539566,4.17318388 66.0573457,4.11709204 C66.0592824,4.08685122 66.0621873,4.05709816 66.0655765,4.0273451 C66.067029,4.01173694 66.0621873,3.98588592 66.0646081,4.0317349 C66.0636398,4.01954102 66.0689656,4.00442061 66.0709023,3.99222673 C66.0912371,3.87175122 66.123676,3.75469 66.1662824,3.64055531 C66.2113095,3.52105531 66.1164136,3.3679002 65.9968253,3.34009816 C65.8593231,3.30888184 65.7474814,3.38253286 65.6995493,3.51081245" id="Fill-120" fill="#231F20"></path>
                            <path d="M63.596491,2.68631122 C64.2869072,1.89712347 65.1230566,1.25718878 66.0647534,0.80162551 C66.1828891,0.744558163 66.2138756,0.574819388 66.1514186,0.46800102 C66.0812149,0.34655 65.938871,0.323137755 65.8202511,0.380205102 C64.8461154,0.851864286 63.9688122,1.52447857 63.2541878,2.34146837 C63.0484186,2.57607857 63.3897534,2.92238469 63.596491,2.68631122" id="Fill-122" fill="#231F20"></path>
                            <path d="M63.4484824,8.61653531 C63.5743647,9.13453122 63.902143,9.56863327 64.3286905,9.87591898 C64.8002652,10.2158843 65.3802923,10.3631863 65.9496679,10.4144006 C66.0803919,10.4261067 66.1917493,10.2934373 66.1917493,10.1705231 C66.1917493,10.0290741 66.080876,9.93835163 65.9496679,9.92664551 C65.0767222,9.84762918 64.1413195,9.41694143 63.9156995,8.48679245 C63.8416226,8.18194551 63.3748896,8.31120061 63.4484824,8.61653531" id="Fill-124" fill="#231F20"></path>
                        </g>
                    </g>
                </g>
            </g>
        </g>
    </g>
</svg>