<?xml version="1.0" encoding="UTF-8"?>
<svg width="111px" height="253px" viewBox="0 0 111 253" version="1.1" xmlns="http://www.w3.org/2000/svg" xmlns:xlink="http://www.w3.org/1999/xlink">
    <!-- Generator: Sketch 62 (91390) - https://sketch.com -->
    <title>Group 67</title>
    <desc>Created with Sketch.</desc>
    <defs>
        <polygon id="path-1" points="0.0340476112 0.0342540603 14.5978742 0.0342540603 14.5978742 29.1081545 0.0340476112 29.1081545"></polygon>
        <polygon id="path-3" points="0 0.140664829 34.8685746 0.140664829 34.8685746 65.3047371 0 65.3047371"></polygon>
        <polygon id="path-5" points="0.0752905827 0.353040331 74.5053499 0.353040331 74.5053499 49.5875531 0.0752905827 49.5875531"></polygon>
    </defs>
    <g id="Symbols" stroke="none" stroke-width="1" fill="none" fill-rule="evenodd">
        <g id="cta" transform="translate(-74.000000, -73.000000)">
            <g id="Group-22" transform="translate(-1.000000, 73.000000)">
                <g id="Group-67" transform="translate(75.000000, 0.000000)">
                    <path d="M90.0568663,130.464867 C88.5757326,131.883728 87.0956679,133.302053 85.6145342,134.721452 C85.3820213,134.944324 85.1372147,135.187066 85.0618485,135.495328 C84.9634982,135.899719 85.2457207,136.608076 85.2457207,136.608076 C85.2457207,136.608076 86.2185332,139.945784 87.6895111,140.381324 L93.2783722,142.033262 C93.7204139,142.163763 94.243167,142.657303 93.875957,142.974694 C91.4690479,142.999398 89.0632079,143.00638 86.6584368,142.994028 C81.2844497,142.967713 77.6059357,135.042065 73.7991388,131.477189 C73.3576316,131.06313 72.8797776,130.529849 73.027303,129.913326 C73.1342055,129.462749 73.5425729,129.142135 73.9226112,128.865022 C76.6395374,126.88012 79.3773097,124.925291 82.1343243,123 L90.0568663,130.464867 Z" id="Fill-1" fill="#231F20"></path>
                    <g id="Group-66">
                        <path d="M41.2055348,36.3245338 C41.2055348,36.3245338 46.506117,44.6364712 40.6100927,48.4366447 C34.7140684,52.2357787 25.8397906,37.0958999 25.8397906,37.0958999 C25.8397906,37.0958999 29.5923274,29.3183049 29.7565693,29.1899172 C34.114455,25.7915402 29.1512205,18.1007499 30.768091,12.8264563 C31.3301634,10.9952415 32.0757696,9.15571009 33.4235961,7.79074556 C35.6619789,5.52394803 39.1225301,4.9844076 42.3124732,5.05561862 C43.7969074,5.08784551 45.3068903,5.23338628 46.6729659,5.81243064 C48.0385202,6.39199478 49.2554746,7.46275904 49.7111808,8.8713858 C49.992217,9.73735339 49.9724036,10.667255 49.9505047,11.5768848 C49.9233918,12.7063851 49.8957574,13.8364053 49.8681231,14.9659056 C49.8503954,15.7045251 49.849874,16.5024004 50.284724,17.1011967 C50.926571,17.9848371 52.2045296,18.0534492 53.1586969,18.5877917 C53.378729,18.7115014 53.6091891,18.9194168 53.563827,19.1668361 C53.5372355,19.3123768 53.4204412,19.422572 53.3057326,19.5166537 C52.7645163,19.9584739 52.1195409,20.2719064 51.4370245,20.425244 C51.0459723,20.5130882 50.6272857,20.5557109 50.2982805,20.7844178 C49.5959507,21.273019 49.6486124,22.3022001 49.7236944,23.1536137 C49.8472669,24.5549634 49.8248466,25.9698276 49.6574763,27.367019 C49.5943865,27.8940845 49.5052266,28.433625 49.2309687,28.8884399 C48.6803672,29.7996291 47.5442302,30.146328 46.5019458,30.3719162 C44.4465754,30.8168551 39.6778242,30.6468843 39.6778242,30.6468843 C39.6293338,31.9297222 39.6329836,33.5628976 39.6653106,34.8462553 L41.2055348,36.3245338 Z" id="Fill-3" fill="#A5453C"></path>
                        <path d="M46.3757663,6.36766868 C47.1891548,7.77161735 48.2356105,9.03678249 49.4671642,10.0961114 C49.7200446,10.3139028 50.0902407,9.94797168 49.8357961,9.72862095 C48.6355265,8.69580125 47.6187908,7.47377855 46.825737,6.1051755 C46.6578452,5.81565332 46.2073531,6.07710693 46.3757663,6.36766868" id="Fill-5" fill="#231F20"></path>
                        <path d="M50.1202735,9.74171962 C50.2109976,6.73994119 48.8308441,3.72828678 46.4960018,1.83105885 C46.0309104,1.45369242 45.5251495,1.11479034 44.961513,0.910513467 C44.3196659,0.67816802 43.6282857,0.626708961 42.946812,0.578368633 C41.5989855,0.482207766 40.2511589,0.38552711 38.9038537,0.288846454 C36.4204116,0.111598585 33.9067281,-0.0646097071 31.4545701,0.364215783 C28.162432,0.939621622 25.0397499,2.66479956 23.0010645,5.30480521 L21.8133086,7.17552393 C20.5489065,9.02129279 21.2715709,11.5672167 20.5885331,13.6957505 C20.2652633,14.7041402 19.6343658,15.5857014 19.2255859,16.562384 C18.6145016,18.0224698 18.5216919,19.6915106 18.96697,21.2092929 C19.2808546,22.2790176 19.858569,23.3414652 19.6750352,24.440298 C19.4763807,25.6316532 18.4523453,26.4804678 17.7515798,27.4659867 C16.574252,29.1220328 16.2911302,31.2989069 16.6686259,33.2933353 C17.0461216,35.2877637 18.0305304,37.1231368 19.2005585,38.7838609 L32.779455,18.5620102 L33.8994284,18.4024351 C36.4000769,18.1882823 39.2052246,16.903885 40.9618311,15.1163324 C42.6694257,13.3781598 43.7195312,11.1186393 44.7362669,8.90745912 C45.1831092,7.93545467 45.6299515,6.96397002 46.0762724,5.99248536" id="Fill-7" fill="#231F20"></path>
                        <path d="M83.7034189,224.856959 C82.8363259,228.49028 82.717446,232.29929 83.3572074,235.978873 C83.6121734,237.447795 84.0120895,238.946865 84.9563502,240.101835 C85.5851621,240.870602 86.4277492,241.450686 87.0179774,242.248561 C87.6087269,243.046436 87.8908059,244.221158 87.2818072,245.005519 C80.4910555,241.98035 73.9239856,238.456184 67.6525512,234.470446 L66.8422911,233.941822 C66.9992334,231.519088 67.21353,229.100512 67.4846595,226.687654 L83.7034189,224.856959 Z" id="Fill-9" fill="#231F20"></path>
                        <g id="Group-13" transform="translate(38.062414, 223.509043)">
                            <mask id="mask-2" fill="white">
                                <use xlink:href="#path-1"></use>
                            </mask>
                            <g id="Clip-12"></g>
                            <path d="M0.0340476112,12.1406474 C0.701964761,8.02028415 1.25100204,4.18112649 1.72182889,0.0342540603 L14.5978742,3.79804239 C14.209429,6.8549184 13.8209838,9.9117944 13.4325386,12.9686704 C13.2349269,14.527516 13.0362724,16.0900002 13.0159377,17.6613207 C12.9945602,19.2929368 13.1650589,20.9209143 13.3350363,22.5436939 C13.5644536,24.7320033 13.7938709,26.9203128 14.0227667,29.1086223 C13.0868485,29.0940682 12.3485419,28.3445332 11.7317223,27.6417792 C7.70127766,23.0541261 4.00505231,18.174352 0.681630047,13.0544355 L0.0340476112,12.1406474 Z" id="Fill-11" fill="#231F20" mask="url(#mask-2)"></path>
                        </g>
                        <path d="M40.2391145,141.525874 C40.2714415,142.350259 39.8975956,144.770914 39.8464981,145.150359 C39.4606599,148.012315 38.9872261,150.886225 38.5935669,153.747661 C35.4672349,176.45358 30.7459314,199.039949 28.2061777,221.811882 C28.0143015,223.533941 27.2603528,225.002343 28.7964059,225.739404 C29.4846577,226.068949 30.4972222,226.11781 31.2412642,226.283622 C33.8305511,226.860067 36.4203595,227.435993 39.0096464,228.012958 C44.4405793,229.221986 49.8715122,230.431014 55.3019237,231.640042 C55.8165484,231.754396 57.3035895,232.360469 57.7358325,232.028844 C58.173811,231.692541 58.1383556,229.306192 58.2150018,228.734945 C58.5054233,226.552353 58.7963661,224.369241 59.0873089,222.18613 C61.2897149,205.661014 63.4926423,189.135899 65.6945268,172.610784 C65.7018265,172.556206 65.7096475,172.502148 65.7164257,172.447571 L68.4402346,150.724571 C67.9600225,161.893266 67.479289,173.061961 66.9985555,184.230136 C66.4969659,195.884833 65.9953763,207.53901 65.4943081,219.193707 C65.4338254,220.591938 65.373864,221.990689 65.3139027,223.38892 C65.2643694,224.536093 64.6887406,226.90425 65.1131626,227.947465 C65.4724092,228.828506 65.9239441,228.52599 66.9260805,228.389805 C69.2416309,228.076373 71.5571813,227.764499 73.8722103,227.445869 C78.5236458,226.80497 83.17456,226.154715 87.8160888,225.447802 C89.026265,225.263797 94.7090355,225.176992 95.469241,224.040215 C95.8295304,223.501194 95.5724788,221.907523 95.5834282,221.302489 C95.6261833,219.054404 95.6486036,216.8032 95.6856232,214.557194 C95.7820827,208.750637 95.6720667,202.933684 95.6611173,197.126088 C95.6611173,185.886702 95.60637,174.647835 95.5328521,163.408969 C95.4603771,152.479377 95.9046124,141.428674 94.5953697,130.585366 C94.2074459,127.367876 93.7538254,122.076949 92.6985058,119.011756 C91.6437077,115.946564 89.9569692,113.03055 87.4599706,110.955035 C84.2058949,108.248496 79.9173559,107.201642 75.7920159,106.234316 C75.7920159,106.234316 65.0594581,106.894447 64.6360789,106.754105 C64.2126997,106.612722 14.3785721,104.501861 14.3785721,104.501861 C11.7767715,111.111491 10.4336376,116.739241 10.29703,123.839032 C10.2339402,127.129293 10.4722214,130.536506 11.9842899,133.461876 C14.2059877,137.761566 18.9027853,140.352712 23.6715365,141.243629 C28.4402877,142.134027 40.2391145,141.525874 40.2391145,141.525874" id="Fill-14" fill="#4A6DE2"></path>
                        <path d="M84.9794483,109.251272 C80.7393997,109.045436 68.7434826,109.518963 64.8032407,111.482724 C52.503867,110.238351 40.0856135,117.422347 12.1305955,111.091323 C12.1305955,111.091323 13.1827866,107.392509 14.3455152,104.68753 L81.2289971,107.263081 L84.9794483,109.251272 Z" id="Fill-16" fill="#231F20"></path>
                        <path d="M14.4999026,104.263538 C15.9118617,99.9784019 17.3238208,95.6932657 18.73578,91.4076098 C21.3297595,83.5343738 24.3684958,74.7639829 22.8720694,66.6511244 C22.8251431,66.399027 21.7854657,68.2920966 21.7854657,68.2920966 C21.7854657,68.2920966 16.0995667,64.9280256 14.2777849,63.8608999 C14.2777849,63.8608999 22.3324173,41.3488611 25.543738,37.8356108 C28.7545372,34.3223605 27.5798164,36.1967178 27.5798164,36.1967178 L29.8374911,39.368467 C30.9251376,41.2230723 32.4429415,42.7839971 33.9904654,44.2783889 C35.4670785,45.7046885 37.1845797,47.1736107 39.2404715,47.2058376 C39.9600075,47.2177928 40.7014425,47.0332679 41.2619506,46.583131 C42.4564847,45.6236015 42.4882903,43.8339698 42.2604372,42.3213853 C41.8599998,39.6548705 40.9501517,37.3059464 39.6398661,34.9476661 L42.2244604,35.8838051 C47.6209807,37.2310968 50.9282395,40.459503 53.4148101,45.4214038 C54.3976546,47.3825657 55.0363732,49.4934267 55.7340103,51.5731004 C57.0177043,55.4003029 58.5125665,59.1578538 60.209733,62.8218427 L43.1713281,105.948172 L14.4999026,104.263538 Z" id="Fill-18" fill="#42BC56"></path>
                        <path d="M32.5876308,32.8667449 C28.3392398,28.5909649 24.2608261,24.1467735 20.3675104,19.5466455 L20.0640539,18.0642088 L25.8005289,13.0472104 C29.5791359,17.5111539 37.613955,24.0204649 37.613955,24.0204649 C37.613955,24.0204649 37.7656833,25.4639175 37.8913414,25.5897063 L32.5876308,32.8667449 Z" id="Fill-20" fill="#231F20"></path>
                        <path d="M32.29893,31.3707937 C28.050539,27.0950137 23.9721253,22.6503025 20.0788096,18.0506943 L25.5118281,11.5512592 C29.4056652,16.1508674 33.3532067,19.8179751 37.6026406,24.0937551 L32.29893,31.3707937 Z" id="Fill-22" fill="#09299C"></path>
                        <g id="Group-26" transform="translate(0.000000, 14.034289)">
                            <mask id="mask-4" fill="white">
                                <use xlink:href="#path-3"></use>
                            </mask>
                            <g id="Clip-25"></g>
                            <path d="M20.3626614,53.3882017 C20.3626614,53.3882017 19.8198809,54.2744411 18.9261963,55.9731098 C17.7947519,58.1229549 16.4928088,60.2161431 14.7570585,61.9200097 C13.0213081,63.6233565 10.8105597,64.9238673 8.39489997,65.2372997 C5.97871881,65.5502124 3.36492593,64.7726088 1.76995438,62.9372357 C0.40075029,61.3612371 -0.106574758,59.174487 0.0180405413,57.0932539 C0.142655841,55.0120209 0.842378569,53.0082363 1.6484675,51.0839794 C3.94941861,45.5965725 7.02152466,40.4709384 10.2625653,35.4918846 C13.4665862,30.568968 17.1356986,25.8352544 19.873064,20.6321718 C21.8997572,16.7794996 23.4227751,12.6050784 23.794014,8.2705623 C23.8440687,7.68839921 23.8743101,7.09687993 24.0568011,6.54174584 C24.2007083,6.10252458 24.435861,5.69968852 24.6772706,5.30464928 C25.7612673,3.52957164 26.998035,1.84701636 28.3693247,0.281933268 C28.3693247,0.281933268 30.1014252,-0.00966806559 30.7818561,0.245028286 C31.4628083,0.499204849 34.9520367,4.91064962 34.867048,5.25059128 C34.7820593,5.58949336 32.9097014,5.58949336 32.9097014,5.58949336 C32.8653822,6.78396727 33.1146128,7.5085524 33.0702935,8.70302631 C32.9686199,11.4610239 32.8434832,14.3141429 31.6140151,16.7862568 C30.4502438,19.1273841 28.4047801,20.9024618 26.9318168,23.0632224 C25.9114313,24.560733 25.1752104,26.229254 24.4457677,27.8868595 C22.8372397,31.5399329 21.2276688,35.1950854 19.827702,38.9323645 C18.5940626,42.2236651 17.517887,45.5913746 16.0741223,48.7891133 L15.4239328,50.4737478 L20.3626614,53.3882017 Z" id="Fill-24" fill="#A5453C" mask="url(#mask-4)"></path>
                        </g>
                        <path d="M49.6884998,106.376686 C53.5953719,107.757244 57.5940109,108.884146 61.4685561,110.356187 C64.0182164,111.325592 66.7055271,112.56009 68.5257447,114.654837 C70.0909963,116.456424 70.7380573,118.950369 70.8532874,121.266027 C70.9257624,122.735989 70.863194,124.212708 70.7865478,125.68111 C70.6848742,127.632916 70.527932,129.582123 70.3511764,131.52873 C69.9815017,135.604912 69.5195387,139.674336 69.0200347,143.737002 C68.7436911,145.985607 68.4454487,148.310621 68.1466848,150.492693 C68.1425136,150.526999 68.1372995,150.561825 68.1326069,150.596131 C68.0872448,150.923598 68.5893559,151.06498 68.6352393,150.734395 C68.9011548,148.816375 69.147257,146.895237 69.3876238,144.974099 C69.8933846,140.936382 70.3616044,136.893987 70.7500496,132.843795 C71.0967825,129.226068 71.4695856,125.563118 71.3971106,121.924079 C71.3559198,119.893785 70.992502,117.780325 70.0492841,115.967303 C68.6722589,113.32106 65.9786914,111.732067 63.333093,110.567741 C61.3835674,109.71009 59.3573956,109.047879 57.3385235,108.374753 C55.1736585,107.651727 53.0009725,106.951052 50.8376718,106.222309 C50.5003241,106.108475 50.1629764,105.994122 49.8277143,105.87509 C49.5102111,105.763336 49.3740938,106.265451 49.6884998,106.376686" id="Fill-27" fill="#231F20"></path>
                        <path d="M40.4219184,141.349198 C40.4474671,137.925351 40.5939813,134.503064 40.8604182,131.089613 C40.8864884,130.755909 40.3650854,130.757468 40.3390153,131.089613 C40.0725784,134.503064 39.9260642,137.925351 39.9005057,141.349198 C39.8979084,141.683942 40.4193114,141.684462 40.4219184,141.349198" id="Fill-29" fill="#231F20"></path>
                        <path d="M40.1489639,140.924323 C39.1218002,139.529211 37.8500984,138.336296 36.3854776,137.405875 C36.1018344,137.225508 35.8400901,137.675125 36.1221691,137.854972 C37.5075367,138.733934 38.7265767,139.866553 39.6984718,141.186816 C39.8950407,141.453987 40.3476184,141.195133 40.1489639,140.924323" id="Fill-31" fill="#231F20"></path>
                        <path d="M66.1895989,217.91851 C67.633885,217.817671 69.0729571,217.589484 70.5026439,217.370653 C72.6367461,217.044226 74.7651128,216.680374 76.8908726,216.305087 C81.4348991,215.503573 85.9700618,214.646442 90.4947964,213.740451 C92.1434724,213.410385 93.7937127,213.081359 95.4335249,212.707631 C95.7604445,212.632781 95.6217513,212.131705 95.2943103,212.206555 C91.7967395,213.00391 88.2642346,213.663002 84.7405936,214.334569 C80.2309797,215.193779 75.7145876,216.02752 71.1789035,216.742749 C69.5255348,217.003683 67.8612167,217.28125 66.1895989,217.398722 C65.8569438,217.422112 65.8538154,217.941901 66.1895989,217.91851" id="Fill-33" fill="#231F20"></path>
                        <path d="M29.6053104,214.786577 C37.239692,216.232628 44.8881516,217.607989 52.561117,218.828452 C54.7040831,219.169953 56.8480919,219.49742 58.9947078,219.809813 C59.3231916,219.857633 59.4650132,219.356557 59.1339223,219.308217 C51.4447934,218.190671 43.7843416,216.876126 36.1421389,215.477376 C34.0080367,215.087015 31.8754987,214.689376 29.7440035,214.285501 C29.4160411,214.223646 29.2757837,214.724202 29.6053104,214.786577" id="Fill-35" fill="#231F20"></path>
                        <path d="M15.9908021,62.5890814 C15.5825436,63.5033894 15.2629236,64.4629189 14.9182763,65.4021766 C14.4761266,66.6070463 14.0391909,67.8145149 13.6048623,69.0219836 C13.5057957,69.2959121 13.407772,69.5708802 13.3092268,69.8448087 C13.1966038,70.1603203 13.6997576,70.2965049 13.8118593,69.9830724 C14.5199244,68.0057971 15.2300752,66.0285218 15.9689032,64.0626817 C16.1154174,63.6718008 16.297387,63.1728039 16.4412942,62.8515746 C16.576859,62.5490577 16.1274097,62.2839656 15.9908021,62.5890814" id="Fill-37" fill="#231F20"></path>
                        <path d="M28.564538,50.6710075 C27.1630069,55.3220747 25.7531334,60.0064084 23.6002607,64.3788691 C22.9917835,65.6159656 22.3223021,66.8223947 21.5876454,67.9888 C21.4082828,68.2731243 21.8598177,68.5340581 22.0376161,68.2512932 C24.6503662,64.1054603 26.3610892,59.4850606 27.8330097,54.8360725 C28.2569102,53.4970974 28.6620403,52.1534442 29.0676918,50.8092712 C29.1641513,50.4880419 28.6615189,50.3508178 28.564538,50.6710075" id="Fill-39" fill="#231F20"></path>
                        <path d="M17.7108061,60.1226331 C20.1994622,53.8597018 21.7256086,47.2209635 24.7711231,41.1794621 C25.4833595,39.7656374 26.2769348,38.3907969 27.1732264,37.085608 C28.0919384,35.7487121 29.1639428,34.5531986 30.2010132,33.3103844 C31.1890717,32.1278656 32.0259234,30.866339 32.5509762,29.4104115 C33.0755075,27.9560433 33.2736407,26.4138309 33.1803095,24.8742175 C33.0614297,22.9161743 33.1307762,20.9373396 33.2027299,18.9787766 C33.2147221,18.6440328 32.6933192,18.6445526 32.6813269,18.9787766 C32.6177158,20.7112316 32.5749607,22.4509636 32.6276224,24.1844582 C32.6458715,24.7712993 32.6990546,25.3560614 32.6828911,25.9439421 C32.6609922,26.7423372 32.546805,27.5360542 32.3460648,28.3094995 C31.945106,29.8548306 31.1916788,31.2452648 30.2004918,32.4927571 C29.2134761,33.7345318 28.1211369,34.8843039 27.1857401,36.1697408 C26.253993,37.4499798 25.4291336,38.8050683 24.6892629,40.2038191 C23.2001361,43.0179539 22.0551353,45.9968616 21.0185862,49.001239 C19.7547056,52.6641884 18.6399461,56.3806759 17.2076523,59.9843694 C17.0840798,60.2957227 17.5882764,60.4308677 17.7108061,60.1226331" id="Fill-41" fill="#231F20"></path>
                        <path d="M29.1042943,14.8461984 C28.8508925,14.8638712 28.692386,15.0998551 28.7794603,15.3415568 C28.8607991,15.5687043 29.1084655,15.6076885 29.3180695,15.6232821 C29.5949344,15.6445934 30.0172708,15.611327 30.0970455,15.9497093 C30.1768201,16.2875718 30.0824462,16.6607799 30.3494045,16.9373074 C30.5152106,17.1093574 30.7274216,17.1322281 30.9511035,17.1660143 C31.0960535,17.1878454 31.1867776,17.2367055 31.2670736,17.358336 C31.4787632,17.6764466 31.5397674,18.0746046 31.8520877,18.3251426 C31.9610609,18.4129869 32.1133106,18.4316992 32.2207196,18.3251426 C32.3119651,18.2346994 32.3307356,18.0460162 32.2207196,17.9576521 C31.9318624,17.7253067 31.8833719,17.314154 31.6685539,17.0251516 C31.5402888,16.8536214 31.3713542,16.7257535 31.1581004,16.6768934 C31.0209714,16.645706 30.7613128,16.6763736 30.6914448,16.5251151 C30.6200126,16.3702182 30.6486898,16.159184 30.6288764,15.9938913 C30.6022849,15.7745406 30.5397165,15.5609075 30.3754746,15.4034116 C30.2200965,15.2537125 30.0125782,15.1809421 29.8024528,15.1487152 C29.6830515,15.1305226 29.5626075,15.1201269 29.441642,15.1123301 C29.3879375,15.1086915 29.331626,15.0993353 29.2774001,15.1003749 C29.2122247,15.1014145 29.2273454,15.0785438 29.2429875,15.1102509 C29.2544583,15.1544329 29.2664506,15.1980951 29.2784429,15.2417574 C29.266972,15.2090107 29.2674934,15.2006941 29.2815713,15.2152482 C29.259151,15.2537125 29.2367306,15.2916571 29.2143103,15.3301214 C29.2111819,15.331161 29.2085749,15.3322006 29.2054465,15.3327204 C29.1616486,15.3446755 29.1178508,15.3561108 29.0740529,15.368066 C29.084481,15.3675462 29.0943876,15.3665066 29.1042943,15.3659868 C29.4374708,15.3425963 29.4400778,14.8222881 29.1042943,14.8461984" id="Fill-43" fill="#231F20"></path>
                        <path d="M47.528536,15.2330249 C47.3231032,15.6098716 47.3324885,16.0963936 47.5770265,16.4545278 C47.6369878,16.5428919 47.7277119,16.5933114 47.8366851,16.5787573 C47.9446155,16.5642032 48.0165691,16.4919526 48.0535887,16.3921532 C48.1928033,16.016866 48.1891535,15.5771249 48.038468,15.2054761 C47.9962344,15.1020382 47.9096815,15.0095159 47.7866304,15.0147138 C47.6630579,15.0204314 47.5806763,15.0942414 47.5358356,15.2054761 C47.4028779,15.5365814 47.3799362,15.9155072 47.4633606,16.2616863 C47.4920378,16.3781189 47.5655556,16.4846756 47.6781786,16.5319763 C47.7642101,16.5678417 47.858584,16.5652428 47.9409657,16.5200212 C47.9821565,16.4981901 48.0212618,16.4602455 48.0447249,16.4207416 C48.0739234,16.3708419 48.0775733,16.3147047 48.0838301,16.2590874 C48.105729,16.0833989 48.1156357,15.906151 48.1130287,15.7289031 C48.1109431,15.591679 48.1046862,15.4513361 48.0061411,15.3442597 C47.8841328,15.2127532 47.6646221,15.2075553 47.5384426,15.3354233 C47.4425045,15.4326237 47.4336407,15.6077924 47.5384426,15.7029137 C47.6416804,15.7975152 47.8048795,15.8068714 47.9070745,15.7029137 C47.8465918,15.7600904 47.783502,15.7751643 47.7178052,15.7481353 C47.6833927,15.7476155 47.6568011,15.7330614 47.6380306,15.7044731 C47.6140461,15.6888794 47.598404,15.6675681 47.5905829,15.6405391 C47.5895401,15.628584 47.5879759,15.616109 47.5869331,15.6041539 C47.5785907,15.6207871 47.5905829,15.6779639 47.5911043,15.6987554 C47.5921471,15.7632092 47.5921471,15.8281827 47.5900615,15.8926365 C47.5864117,16.0251826 47.5759837,16.1577286 47.5592988,16.2892351 C47.6020538,16.2149054 47.6453302,16.139536 47.6880853,16.0652063 C47.8215644,16.0189451 47.9138527,16.0402564 47.9670358,16.12966 C47.952958,16.1062696 47.955565,16.1140664 47.9743355,16.1546099 C47.9774639,16.1447339 47.9644288,16.1156258 47.9618218,16.1057498 C47.958172,16.0875572 47.9540008,16.0688448 47.9513938,16.0506522 C47.9487867,16.0386971 47.9467011,16.0257024 47.9446155,16.0137472 C47.9404443,15.9846391 47.9409657,15.9887974 47.9467011,16.0272617 C47.9326233,15.9986734 47.9388801,15.9472143 47.9373159,15.9149874 C47.9352303,15.871845 47.9352303,15.8281827 47.9373159,15.7845205 C47.9388801,15.7434572 47.9430513,15.7034335 47.9472225,15.66289 C47.9498295,15.643138 47.9487867,15.6509349 47.9440941,15.6857607 L47.950351,15.6493755 C47.9534794,15.6306631 47.9571292,15.6119507 47.960779,15.5937581 C47.9795495,15.5085128 48.0056197,15.4248269 48.038468,15.3437399 L47.5358356,15.3437399 C47.5676412,15.4227477 47.5931899,15.5038347 47.6103962,15.5870009 C47.6156103,15.6109112 47.6197815,15.6343016 47.6244741,15.6582119 C47.6343808,15.7159084 47.6197815,15.6077924 47.6244741,15.6613306 C47.6281239,15.707072 47.6317738,15.7522936 47.6328166,15.7975152 C47.633338,15.8401379 47.6317738,15.8827605 47.6286453,15.9248634 C47.6276025,15.9399373 47.6312524,15.9763224 47.6229099,15.9882776 C47.6281239,15.9492934 47.6291667,15.9440956 47.6249955,15.9732037 C47.6234313,15.9820401 47.6218671,15.9913963 47.6203029,16.0002327 C47.6046608,16.0870374 47.5817191,16.1717629 47.5504349,16.2544093 C47.7094628,16.2336177 47.8679693,16.2128262 48.0269972,16.1925545 C48.0040555,16.1582484 47.9826779,16.1239424 47.9644288,16.0875572 C47.960779,16.0797604 47.9571292,16.0724833 47.9534794,16.0652063 C47.9425299,16.0397366 47.9446155,16.0454543 47.960779,16.0823593 C47.963386,16.0704042 47.9425299,16.034019 47.9383587,16.021544 C47.9274092,15.9846391 47.9175026,15.9482539 47.9102029,15.9108291 C47.9086387,15.8999135 47.9070745,15.8895178 47.9049889,15.8786022 C47.9070745,15.8910771 47.9086387,15.9030323 47.9096815,15.9149874 C47.9138527,15.8978344 47.9055103,15.8687262 47.9044675,15.8500139 C47.9023819,15.8120693 47.9029033,15.7741247 47.9055103,15.7361802 C47.9065531,15.7252646 47.9075959,15.7148688 47.9086387,15.7034335 C47.9112457,15.6753649 47.9107243,15.6821222 47.9055103,15.724225 C47.9122885,15.7143491 47.9117671,15.6883596 47.9143742,15.6764045 C47.9221952,15.6389797 47.9321019,15.6025945 47.9451369,15.5667291 C47.9487867,15.5563334 47.9519152,15.5464574 47.9560864,15.5360616 C47.9404443,15.5729666 47.9378373,15.5786843 47.9493081,15.5532146 C47.9586934,15.5339825 47.9686001,15.5142305 47.9785067,15.4949983 C48.0436821,15.375447 48.0123979,15.2065157 47.8851756,15.139463 C47.7631673,15.075529 47.5978826,15.105157 47.528536,15.2330249" id="Fill-45" fill="#231F20"></path>
                        <path d="M45.7280795,15.2101542 C46.3230003,14.3930468 47.0347153,13.6289577 47.9711549,13.2063697 C48.09942,13.1481534 48.1301828,12.9631087 48.0644861,12.8508344 C47.9873184,12.7193279 47.836633,12.6990561 47.7078465,12.7572724 C46.6905893,13.2162457 45.9220414,14.0619415 45.2781088,14.9476611 C45.1952057,15.0614947 45.2582955,15.237703 45.3709185,15.3037162 C45.5028335,15.3801251 45.6451765,15.3245077 45.7280795,15.2101542" id="Fill-47" fill="#231F20"></path>
                        <path d="M46.6532569,21.5902459 C47.1115701,22.5939574 48.1642826,23.2686428 49.2649642,23.3019093 C49.6002262,23.3123051 49.5997048,22.7925166 49.2649642,22.7821208 C48.3353027,22.7535325 47.4869802,22.1666913 47.103749,21.3277527 C47.0453519,21.1998847 46.8597324,21.1686974 46.7471094,21.2341908 C46.6151945,21.3116392 46.5948598,21.4618581 46.6532569,21.5902459" id="Fill-49" fill="#231F20"></path>
                        <path d="M37.6646875,30.8713289 C38.6496177,30.9758064 39.636112,31.0610517 40.624692,31.1275847 C40.9589112,31.1504553 40.9578684,30.6301471 40.624692,30.6077962 C39.636112,30.5412633 38.6496177,30.4560179 37.6646875,30.3515405 C37.5244302,30.3369864 37.4039861,30.4814876 37.4039861,30.6114347 C37.4039861,30.7642525 37.5239088,30.8567749 37.6646875,30.8713289" id="Fill-51" fill="#231F20"></path>
                        <g id="Group-55" transform="translate(36.498205, 59.255886)">
                            <mask id="mask-6" fill="white">
                                <use xlink:href="#path-5"></use>
                            </mask>
                            <g id="Clip-54"></g>
                            <path d="M0.0752905827,46.6355257 C3.54991969,46.7930216 7.02350599,46.9603935 10.4970923,47.1340029 C14.0379396,47.3112507 17.5782655,47.4942163 21.1191127,47.6808203 C24.692287,47.8689838 28.2654613,48.0597461 31.8386355,48.2510283 C35.410767,48.4423104 38.9818556,48.6335926 42.5534657,48.8212362 C44.3799401,48.8212362 46.2272707,49.013558 48.0511381,49.1076397 C49.8520638,49.2006818 51.6597678,49.3113968 53.4586079,49.3571382 C54.5165344,49.3841672 55.5760252,49.5395839 56.6376015,49.5702514 C57.4671536,49.5941617 58.2972271,49.5931221 59.1267791,49.5681723 C59.4338854,49.5588161 59.7107504,49.6014387 59.9412105,49.3841672 C60.1831415,49.1570196 60.287422,48.8461861 60.3771033,48.5358724 C60.8562726,46.8767076 61.3531696,45.2227406 61.8380743,43.565655 C62.3469636,41.825923 62.8626311,40.0887899 63.386641,38.3542558 C64.4346609,34.8851875 65.5124008,31.4244359 66.6209034,27.9745998 C67.729406,24.5237241 68.8676286,21.0827244 70.0371354,17.6521205 C71.2061207,14.2215166 72.4053475,10.8013084 73.6342942,7.39149604 C73.812614,6.8971772 73.9914552,6.40285836 74.1708178,5.90853952 L74.2985615,5.31805982 C74.4367333,4.9043082 74.5764693,4.46144842 74.464889,4.03989997 C74.3809432,3.72334879 74.1603897,3.45565772 73.8949956,3.2628162 C73.6301229,3.06945489 72.2009575,2.90260279 72.2009575,2.90260279 C53.5873944,1.51060926 34.7986399,1.19873618 16.151707,0.353040331" id="Fill-53" fill="#DBE2F9" mask="url(#mask-6)"></path>
                        </g>
                        <path d="M36.8413402,105.343191 C43.1002609,90.4377364 48.6391242,75.712129 53.7874567,59.461982 L50.8331877,59.5144806 C45.6848552,75.7651474 40.3055412,90.3925148 34.0460991,105.297969 L36.8413402,105.343191 Z" id="Fill-56" fill="#231F20"></path>
                        <path d="M37.5205718,103.237164 C35.2816676,103.188823 14.5595511,102.628491 9.57650329,102.493346 C8.96698326,102.476713 8.44818735,102.92633 8.37623375,103.530324 C8.29489489,104.207609 8.80482695,104.811083 9.48786479,104.84435 C14.9740664,105.109442 36.4824585,106.134984 36.5789181,105.942143 C36.6899769,105.721233 37.5205718,103.237164 37.5205718,103.237164" id="Fill-58" fill="#231F20"></path>
                        <polygon id="Fill-60" fill="#000000" points="82.6204129 78.7380776 82.6188487 78.7458744 80.8976977 78.6154075 80.6943505 79.6056046 81.7084792 79.6825333 72.1850547 86.8145509 71.8258081 86.7870021 71.6214182 87.7777189 74.8833149 88.0251382 75.0871834 87.0349412 73.6209984 86.9237065 82.2679445 80.4476619 82.0703328 81.4066716 83.0860257 81.4836003 83.4301517 79.8130002 83.6340202 78.8228031 83.6355844 78.8150063"></polygon>
                        <polygon id="Fill-62" fill="#000000" points="73.075246 80.7242933 74.0904175 80.801222 74.4345434 79.1311417 79.3221744 79.501231 79.5265644 78.511034 74.6389333 78.1404248 74.6404975 78.1331478 73.625326 78.0556993 73.6237618 78.0634961 73.4193719 79.0536932"></polygon>
                        <polygon id="Fill-64" fill="#000000" points="80.8209471 87.4699002 76.441684 87.1372356 76.237294 88.1279524 80.6170786 88.4600972 80.6155144 88.4673743 81.6312073 88.544303 81.6327715 88.5370259 81.83664 87.5463091 82.180766 85.8762287 81.1650731 85.7987803"></polygon>
                    </g>
                </g>
            </g>
        </g>
    </g>
</svg>